<svg width="375" height="400" viewBox="0 0 375 400" fill="none" xmlns="http://www.w3.org/2000/svg">
<path d="M253.744 73.664H306.344C306.344 73.664 301.696 65.2 288.152 66.464C275.224 67.64 274.552 62.296 267.992 61.664C261.432 61.032 255.936 65.992 253.744 73.664Z" fill="#E0E0E0"/>
<path d="M116.257 212.72C116.257 212.72 110.985 215.568 118.657 226.576C126.329 237.584 131.321 242.864 131.321 242.864C131.321 242.864 132.777 245.464 130.521 246.208C128.265 246.952 123.057 246.848 122.417 249.816C121.753 252.904 124.273 255.416 128.929 257.216C133.585 259.016 143.649 263.44 144.553 263.84C145.457 264.24 146.449 265.4 144.993 266.152C143.537 266.904 132.249 269.68 133.881 274.952C135.513 280.224 149.337 283.208 150.841 283.56C152.345 283.912 152.769 284.472 152.761 285.272C152.753 286.072 148.873 286.648 145.689 287.568C142.505 288.488 138.985 290.12 140.185 293.088C141.385 296.056 150.073 301.44 169.257 300.68L178.121 299.752L181.897 291.632C188.913 273.768 186.697 263.792 184.297 261.68C181.897 259.568 179.193 262.368 177.281 265.072C175.369 267.776 173.545 271.248 172.785 270.992C172.025 270.736 171.641 270.152 171.801 268.592C171.961 267.032 173.697 253.024 169.249 249.744C164.801 246.464 158.465 256.208 157.249 257.336C156.033 258.464 155.289 257.136 155.209 256.16C155.129 255.184 154.289 244.232 154.089 239.224C153.889 234.216 152.377 231.032 149.249 230.648C146.121 230.264 144.625 235.224 143.177 237.112C141.729 239 139.753 236.768 139.753 236.768C139.753 236.768 136.401 230.32 128.553 219.456C120.705 208.592 116.153 212.8 116.153 212.8" fill="#EBEBEB"/>
<path d="M178.864 301.776C173.112 293.776 163.136 279.376 154.504 267.064C145.872 254.752 138.056 243.616 132.344 235.584C129.488 231.584 127.184 228.336 125.576 226.088L123.736 223.496L123.264 222.824C123.16 222.672 123.112 222.584 123.112 222.584C123.112 222.584 123.176 222.656 123.288 222.808L123.784 223.464L125.664 226.024C127.264 228.24 129.664 231.472 132.504 235.472C138.256 243.472 146.104 254.592 154.728 266.904C163.352 279.216 173.312 293.632 179.024 301.656" fill="#E0E0E0"/>
<path d="M129.696 250.264C129.912 250.273 130.126 250.302 130.336 250.352C130.744 250.424 131.328 250.544 132.056 250.704C133.504 251.016 135.488 251.504 137.656 252.08L143.256 253.576L144.952 254.024C145.164 254.06 145.371 254.122 145.568 254.208C145.353 254.205 145.138 254.178 144.928 254.128C144.52 254.056 143.936 253.936 143.208 253.768C141.768 253.44 139.784 252.968 137.608 252.352L132.008 250.896L130.312 250.456C130.099 250.42 129.892 250.355 129.696 250.264Z" fill="#E0E0E0"/>
<path d="M146.096 253.6C146.016 253.6 146.84 249.44 147.928 244.352C149.016 239.264 149.968 235.144 150.04 235.16C150.112 235.176 149.296 239.312 148.2 244.408C147.104 249.504 146.168 253.6 146.096 253.6Z" fill="#E0E0E0"/>
<path d="M158.496 273.064C158.565 272.856 158.659 272.657 158.776 272.472L159.624 270.872C160.336 269.544 161.32 267.672 162.32 265.624C163.32 263.576 164.184 261.624 164.784 260.272L165.504 258.632C165.573 258.421 165.673 258.222 165.8 258.04C165.756 258.256 165.691 258.468 165.608 258.672C165.464 259.072 165.248 259.64 164.968 260.344C164.408 261.752 163.584 263.672 162.568 265.752C161.552 267.832 160.544 269.656 159.792 270.968C159.408 271.616 159.088 272.144 158.864 272.496C158.76 272.697 158.637 272.887 158.496 273.064Z" fill="#E0E0E0"/>
<path d="M143.008 273.352C143.203 273.298 143.405 273.274 143.608 273.28L145.264 273.184C146.656 273.112 148.584 273.04 150.712 272.968C152.84 272.896 154.768 272.856 156.168 272.84H157.824C158.026 272.822 158.23 272.822 158.432 272.84C158.234 272.894 158.029 272.921 157.824 272.92L156.176 273.016C154.776 273.08 152.848 273.16 150.72 273.224C148.592 273.288 146.664 273.336 145.264 273.352H143.616C143.414 273.376 143.21 273.376 143.008 273.352Z" fill="#E0E0E0"/>
<path d="M151.768 292C152.03 291.941 152.298 291.912 152.568 291.912L154.688 291.784C156.472 291.688 158.944 291.568 161.672 291.456C164.4 291.344 166.872 291.264 168.656 291.216L170.776 291.168C171.042 291.147 171.309 291.147 171.576 291.168C171.312 291.219 171.044 291.248 170.776 291.256L168.656 291.384C166.872 291.48 164.4 291.6 161.672 291.712C158.944 291.824 156.472 291.904 154.688 291.952L152.568 292C152.301 292.022 152.034 292.022 151.768 292Z" fill="#E0E0E0"/>
<path d="M171.048 291.04C171.138 290.778 171.251 290.523 171.384 290.28L172.392 288.24C173.24 286.52 174.392 284.144 175.592 281.48C176.792 278.816 177.832 276.384 178.568 274.608L179.44 272.512C179.536 272.253 179.651 272.002 179.784 271.76C179.728 272.034 179.645 272.302 179.536 272.56C179.36 273.072 179.096 273.8 178.736 274.688C178.048 276.48 177.04 278.936 175.832 281.6C174.624 284.264 173.432 286.64 172.544 288.336C172.096 289.184 171.744 289.872 171.456 290.336C171.338 290.581 171.201 290.816 171.048 291.04Z" fill="#E0E0E0"/>
<path d="M245.44 172.976C235.92 162.296 236.832 146.88 240.44 133.688C241.04 131.48 241.352 129.08 242.84 127.384C244.328 125.688 247.144 124.936 248.912 126.344C250.376 127.512 250.64 129.6 251.184 131.408C251.907 133.812 253.293 135.964 255.184 137.616C256.424 138.688 258.064 139.544 259.648 139.112C261.816 138.504 262.664 135.912 263.176 133.696C264.12 129.573 265.069 125.451 266.024 121.328C266.419 119.091 267.167 116.931 268.24 114.928C269.424 112.992 271.44 111.408 273.648 111.32C275.856 111.232 278.2 113.056 278.128 115.32C277.995 116.255 277.8 117.18 277.544 118.088C277.424 118.542 277.439 119.021 277.588 119.466C277.738 119.911 278.014 120.303 278.384 120.592C279.184 121.064 280.232 120.648 281.048 120.152C283.856 118.464 286.088 115.96 288.208 113.44C290.328 110.92 292.424 108.336 295.072 106.392C297.72 104.448 301.032 103.192 304.24 103.768C307.448 104.344 310.352 107.096 310.416 110.384C310.48 113.672 307.92 116.424 305.344 118.472C301.537 121.513 297.313 123.989 292.8 125.824C291.947 126.062 291.193 126.567 290.648 127.264C289.848 128.624 290.864 130.416 292.2 131.264C293.72 132.2 295.544 132.456 297.224 133.064C298.904 133.672 300.584 134.88 300.848 136.656C301.216 139.128 298.768 141.048 296.544 142.16C292.09 144.374 287.29 145.808 282.352 146.4C280.584 146.608 278.752 146.728 277.168 147.552C275.584 148.376 274.328 150.184 274.768 151.928C275.208 153.672 277.104 154.656 278.88 154.736C280.656 154.816 282.4 154.264 284.168 154.04C287.472 153.608 291.368 154.744 292.664 157.832C293.049 158.882 293.184 160.006 293.059 161.117C292.934 162.228 292.552 163.294 291.944 164.232C290.726 166.082 289.148 167.668 287.304 168.896C281.124 173.533 273.826 176.448 266.152 177.344C258.536 178.144 251.848 177.232 245.456 173.016" fill="#F5F5F5"/>
<path d="M247.376 174.256C249.104 169.104 247.296 171.688 250.856 165.456C254.781 158.729 259.09 152.233 263.76 146C264.987 144.336 266.2 142.696 267.4 141.08C268.6 139.48 269.8 137.88 271.048 136.368C273.476 133.509 276.058 130.785 278.784 128.208C281.368 125.728 283.912 123.472 286.312 121.376C288.712 119.28 290.984 117.376 293.128 115.736C296.503 113.12 300.08 110.774 303.824 108.72C305.144 107.992 306.224 107.464 306.904 107.12L307.704 106.728L307.984 106.608C307.902 106.67 307.813 106.724 307.72 106.768L306.92 107.2C306.216 107.576 305.184 108.128 303.88 108.872C300.18 110.979 296.645 113.361 293.304 116C291.176 117.656 288.92 119.568 286.536 121.664C284.152 123.76 281.624 126.032 279.048 128.512C276.342 131.088 273.776 133.806 271.36 136.656C270.112 138.144 268.96 139.736 267.736 141.352L264.096 146.272C259.442 152.484 255.136 158.95 251.2 165.64C247.632 171.856 249.424 169.232 247.664 174.352" fill="#E0E0E0"/>
<path d="M271.2 136.384C271.168 136.054 271.168 135.722 271.2 135.392C271.2 134.752 271.304 133.792 271.408 132.696C271.616 130.416 272.016 127.288 272.464 123.84C272.912 120.392 273.264 117.264 273.432 114.992C273.52 113.856 273.584 112.944 273.624 112.304C273.621 111.973 273.656 111.643 273.728 111.32C273.781 111.648 273.8 111.98 273.784 112.312C273.784 112.944 273.784 113.912 273.728 115.008C273.632 117.296 273.328 120.44 272.872 123.896C272.416 127.352 272.016 130.376 271.704 132.696C271.568 133.76 271.456 134.656 271.368 135.376C271.35 135.717 271.293 136.055 271.2 136.384Z" fill="#E0E0E0"/>
<path d="M300.8 137.8C300.41 137.797 300.021 137.755 299.64 137.672C298.896 137.56 297.816 137.4 296.48 137.24C293.816 136.904 290.08 136.576 286.016 136.384C281.952 136.192 278.2 136.192 275.504 136.264C274.16 136.264 273.104 136.344 272.304 136.376C271.913 136.409 271.519 136.409 271.128 136.376C271.511 136.281 271.902 136.222 272.296 136.2C273.048 136.12 274.136 136.024 275.496 135.96C278.192 135.808 281.896 135.768 286.04 135.96C289.55 136.112 293.051 136.44 296.528 136.944C297.856 137.144 298.928 137.352 299.672 137.504C300.057 137.566 300.434 137.665 300.8 137.8Z" fill="#E0E0E0"/>
<path d="M251.328 165.008C251.269 164.884 251.232 164.752 251.216 164.616C251.152 164.304 251.072 163.928 250.968 163.472C250.768 162.48 250.504 161.072 250.208 159.248C249.608 155.672 248.936 150.704 248.264 145.208C247.592 139.712 246.968 134.744 246.448 131.16C246.192 129.416 245.976 127.96 245.816 126.92C245.752 126.456 245.696 126.072 245.648 125.76C245.636 125.624 245.636 125.488 245.648 125.352C245.706 125.477 245.746 125.609 245.768 125.744L246.008 126.888C246.216 127.88 246.472 129.288 246.768 131.112C247.368 134.688 248.04 139.656 248.712 145.152C249.384 150.648 250.008 155.616 250.528 159.2C250.792 160.944 251 162.4 251.16 163.448C251.232 163.904 251.28 164.288 251.328 164.6C251.345 164.736 251.345 164.873 251.328 165.008Z" fill="#E0E0E0"/>
<path d="M291.944 161.784C291.812 161.826 291.674 161.848 291.536 161.848L290.352 161.96L286 162.312C282.328 162.608 277.256 163.112 271.656 163.608C266.056 164.104 260.968 164.56 257.256 164.784C255.416 164.896 253.928 164.968 252.896 165H251.712C251.574 165.021 251.434 165.021 251.296 165C251.429 164.962 251.566 164.94 251.704 164.936L252.888 164.824L257.24 164.472C260.912 164.176 265.984 163.672 271.584 163.176C277.184 162.68 282.264 162.224 285.984 162.008C287.832 161.896 289.32 161.816 290.352 161.784H291.536C291.671 161.767 291.808 161.767 291.944 161.784Z" fill="#E0E0E0"/>
<path d="M323.448 243.2C323.42 243.33 323.377 243.456 323.32 243.576L322.88 244.64C322.472 245.6 321.896 246.952 321.176 248.64L315.008 262.904L314.968 262.984H314.88L295.504 266.184L289.008 267.248L288.712 267.296L288.784 267.008C290.384 260.776 291.816 255.008 293.056 250.168L293.144 250.352L281.76 245.264L278.616 243.832L277.816 243.448C277.72 243.407 277.629 243.356 277.544 243.296L277.832 243.4L278.672 243.744L281.872 245.096L293.312 250.056L293.44 250.112V250.24C292.224 255.12 290.792 260.864 289.24 267.104L289.016 266.864L295.512 265.792L314.896 262.64L314.76 262.744L321.056 248.544C321.816 246.848 322.424 245.504 322.856 244.544L323.336 243.496C323.367 243.395 323.405 243.296 323.448 243.2Z" fill="#E0E0E0"/>
<path d="M291.28 265L290.744 266.392L291.592 267.624L290.104 267.552L289.2 268.736L288.808 267.296L287.4 266.8L288.648 265.984L288.688 264.496L289.848 265.432L291.28 265Z" fill="#E0E0E0"/>
<path d="M277.976 242.4L277.712 243.096L278.128 243.704L277.392 243.664L276.944 244.256L276.744 243.544L276.048 243.296L276.664 242.888L276.688 242.144L277.264 242.608L277.976 242.4Z" fill="#E0E0E0"/>
<path d="M315.552 262.048L315.288 262.744L315.704 263.352L314.968 263.32L314.52 263.912L314.32 263.192L313.624 262.952L314.24 262.544L314.256 261.8L314.84 262.264L315.552 262.048Z" fill="#E0E0E0"/>
<path d="M293.864 249.576L293.601 250.264L294.025 250.88L293.281 250.84L292.833 251.432L292.641 250.712L291.937 250.472L292.561 250.064L292.577 249.32L293.153 249.784L293.864 249.576Z" fill="#E0E0E0"/>
<path d="M324.352 242.504L324.088 243.2L324.512 243.808L323.768 243.776L323.32 244.368L323.128 243.648L322.424 243.4L323.048 243L323.064 242.256L323.64 242.72L324.352 242.504Z" fill="#E0E0E0"/>
<path d="M81.8721 300.728H123.76C123.76 300.728 120.056 293.984 109.272 294.968C98.9761 295.904 98.4561 291.648 93.2161 291.128C87.9761 290.608 83.6241 294.616 81.8721 300.728Z" fill="#E0E0E0"/>
<path d="M90.1924 135.832H132.072C132.072 135.832 128.368 129.096 117.584 130.072C107.296 131.016 106.768 126.76 101.536 126.24C96.3044 125.72 91.9364 129.728 90.1924 135.832Z" fill="#F5F5F5"/>
<path d="M302.896 164.96H337.296C337.296 164.96 334.256 159.424 325.4 160.224C316.936 161.024 316.504 157.504 312.208 157.072C307.912 156.64 304.328 159.944 302.896 164.96Z" fill="#F5F5F5"/>
<path d="M234.184 232.872C235.896 219.984 226.832 209.344 215.504 202.952C204.176 196.56 191.032 194.4 178.52 190.864C166.72 187.512 154.984 182.616 146.248 174.008C137.512 165.4 132.264 152.464 135.4 140.608C136.2 137.632 137.6 134.64 140.16 132.92C142.72 131.2 146.616 131.248 148.528 133.664C152.592 138.816 144.672 148.064 149.632 152.336C150.768 153.328 152.336 153.688 153.512 154.624C156.64 157.128 155.632 161.984 156.072 165.968C156.944 173.848 164.336 179.32 171.592 182.512C181.312 186.784 191.84 188.792 202.144 191.312C212.448 193.832 222.856 197.04 231.44 203.312C240.024 209.584 247.488 219.312 247.44 229.944C247.44 232.912 247.048 236.56 245.184 238.864C243.32 241.168 240.952 241.656 238.264 240.392C235.576 239.128 233.704 237.192 234.2 232.888" fill="#407BFF"/>
<g opacity="0.8">
<path opacity="0.8" d="M234.184 232.872C235.896 219.984 226.832 209.344 215.504 202.952C204.176 196.56 191.032 194.4 178.52 190.864C166.72 187.512 154.984 182.616 146.248 174.008C137.512 165.4 132.264 152.464 135.4 140.608C136.2 137.632 137.6 134.64 140.16 132.92C142.72 131.2 146.616 131.248 148.528 133.664C152.592 138.816 144.672 148.064 149.632 152.336C150.768 153.328 152.336 153.688 153.512 154.624C156.64 157.128 155.632 161.984 156.072 165.968C156.944 173.848 164.336 179.32 171.592 182.512C181.312 186.784 191.84 188.792 202.144 191.312C212.448 193.832 222.856 197.04 231.44 203.312C240.024 209.584 247.488 219.312 247.44 229.944C247.44 232.912 247.048 236.56 245.184 238.864C243.32 241.168 240.952 241.656 238.264 240.392C235.576 239.128 233.704 237.192 234.2 232.888" fill="white"/>
</g>
<path d="M179.384 130.4C178.976 125.6 182.536 121.464 186.584 119.24C190.632 117.016 195.272 116.104 199.44 114.128C209.801 109.216 216.385 97.6558 216.873 85.8078C217.361 73.9598 212.217 62.1038 204.185 53.3998C200.913 49.8638 196.897 46.1518 196.849 41.3278C196.801 36.2878 201.649 32.3198 206.561 32.3838C211.473 32.4478 215.937 35.7198 218.857 39.8238C221.777 43.9278 223.385 48.7998 224.961 53.5998C223.841 51.5838 226.137 49.0958 228.361 49.3118C230.585 49.5278 232.361 51.3758 233.697 53.2158C239.615 61.2516 242.454 71.1444 241.697 81.0958C240.895 90.8617 236.472 99.9753 229.297 106.648C221.401 113.848 210.961 117.216 200.833 120.416L179.704 127.08" fill="#407BFF"/>
<g opacity="0.8">
<path opacity="0.8" d="M179.384 130.4C178.976 125.6 182.536 121.464 186.584 119.24C190.632 117.016 195.272 116.104 199.44 114.128C209.801 109.216 216.385 97.6558 216.873 85.8078C217.361 73.9598 212.217 62.1038 204.185 53.3998C200.913 49.8638 196.897 46.1518 196.849 41.3278C196.801 36.2878 201.649 32.3198 206.561 32.3838C211.473 32.4478 215.937 35.7198 218.857 39.8238C221.777 43.9278 223.385 48.7998 224.961 53.5998C223.841 51.5838 226.137 49.0958 228.361 49.3118C230.585 49.5278 232.361 51.3758 233.697 53.2158C239.615 61.2516 242.454 71.1444 241.697 81.0958C240.895 90.8617 236.472 99.9753 229.297 106.648C221.401 113.848 210.961 117.216 200.833 120.416L179.704 127.08" fill="white"/>
</g>
<path d="M173.504 30.0158C172.433 30.4579 171.573 31.2965 171.105 32.3569C170.637 33.4172 170.597 34.6172 170.993 35.7066C171.388 36.796 172.189 37.6905 173.228 38.2036C174.268 38.7166 175.465 38.8085 176.57 38.46C177.676 38.1116 178.604 37.3498 179.161 36.3335C179.718 35.3173 179.861 34.1251 179.561 33.0058C179.26 31.8865 178.539 30.9265 177.547 30.3262C176.556 29.7259 175.371 29.5316 174.24 29.7838" fill="#407BFF"/>
<g opacity="0.8">
<path opacity="0.8" d="M173.504 30.0158C172.433 30.4579 171.573 31.2965 171.105 32.3569C170.637 33.4172 170.597 34.6172 170.993 35.7066C171.388 36.796 172.189 37.6905 173.228 38.2036C174.268 38.7166 175.465 38.8085 176.57 38.46C177.676 38.1116 178.604 37.3498 179.161 36.3335C179.718 35.3173 179.861 34.1251 179.561 33.0058C179.26 31.8865 178.539 30.9265 177.547 30.3262C176.556 29.7259 175.371 29.5316 174.24 29.7838" fill="white"/>
</g>
<path d="M199.56 338.272C196.968 332.904 199.232 326.208 203.36 321.904C207.488 317.6 213.12 315.144 218.56 312.744C230.608 307.432 243.36 301.112 249.48 289.464C251.544 285.536 252.72 281.216 253.88 276.928C256.128 268.64 258.24 259.224 253.72 251.92C252.416 249.816 250.464 247.92 248.032 247.52C245.256 247.024 242.432 248.552 240.704 250.784C239.102 253.116 238.139 255.827 237.912 258.648C237.24 263.952 237.8 269.352 237.24 274.648C236.68 279.944 234.752 285.6 230.4 288.624C225.064 292.344 217.456 291.512 212.28 295.44C208.096 298.64 206.504 304.112 203.24 308.24C200.488 311.688 196.64 314.04 193.12 316.696C189.6 319.352 186.192 322.584 184.992 326.832C184.363 329.052 184.387 331.407 185.062 333.614C185.737 335.822 187.034 337.787 188.798 339.276C190.561 340.764 192.717 341.713 195.006 342.007C197.296 342.302 199.621 341.93 201.704 340.936" fill="#407BFF"/>
<g opacity="0.8">
<path opacity="0.8" d="M199.56 338.272C196.968 332.904 199.232 326.208 203.36 321.904C207.488 317.6 213.12 315.144 218.56 312.744C230.608 307.432 243.36 301.112 249.48 289.464C251.544 285.536 252.72 281.216 253.88 276.928C256.128 268.64 258.24 259.224 253.72 251.92C252.416 249.816 250.464 247.92 248.032 247.52C245.256 247.024 242.432 248.552 240.704 250.784C239.102 253.116 238.139 255.827 237.912 258.648C237.24 263.952 237.8 269.352 237.24 274.648C236.68 279.944 234.752 285.6 230.4 288.624C225.064 292.344 217.456 291.512 212.28 295.44C208.096 298.64 206.504 304.112 203.24 308.24C200.488 311.688 196.64 314.04 193.12 316.696C189.6 319.352 186.192 322.584 184.992 326.832C184.363 329.052 184.387 331.407 185.062 333.614C185.737 335.822 187.034 337.787 188.798 339.276C190.561 340.764 192.717 341.713 195.006 342.007C197.296 342.302 199.621 341.93 201.704 340.936" fill="white"/>
</g>
<path d="M119.464 67.0879C117.334 65.5064 115.612 63.4396 114.441 61.0591C113.27 58.6786 112.683 56.0531 112.73 53.4005C112.777 50.7479 113.456 48.1448 114.711 45.8072C115.965 43.4696 117.76 41.4651 119.944 39.9599C122.408 38.2719 125.32 37.2319 127.512 35.1599C129.456 33.3519 130.712 30.8479 132.896 29.3279C134.259 28.3613 135.895 27.8555 137.566 27.8842C139.237 27.9129 140.855 28.4746 142.184 29.4874C143.513 30.5003 144.483 31.9112 144.954 33.5144C145.425 35.1177 145.371 36.8294 144.8 38.3999C143.8 41.2079 141.28 43.2639 140.224 46.0479C139.088 49.0559 139.824 52.4479 139.424 55.5999C139.162 57.5623 138.462 59.4406 137.376 61.0956C136.289 62.7506 134.844 64.1398 133.147 65.1602C131.451 66.1806 129.546 66.806 127.575 66.9902C125.604 67.1743 123.616 66.9124 121.76 66.2239" fill="#407BFF"/>
<g opacity="0.8">
<path opacity="0.8" d="M119.464 67.0879C117.334 65.5064 115.612 63.4396 114.441 61.0591C113.27 58.6786 112.683 56.0531 112.73 53.4005C112.777 50.7479 113.456 48.1448 114.711 45.8072C115.965 43.4696 117.76 41.4651 119.944 39.9599C122.408 38.2719 125.32 37.2319 127.512 35.1599C129.456 33.3519 130.712 30.8479 132.896 29.3279C134.259 28.3613 135.895 27.8555 137.566 27.8842C139.237 27.9129 140.855 28.4746 142.184 29.4874C143.513 30.5003 144.483 31.9112 144.954 33.5144C145.425 35.1177 145.371 36.8294 144.8 38.3999C143.8 41.2079 141.28 43.2639 140.224 46.0479C139.088 49.0559 139.824 52.4479 139.424 55.5999C139.162 57.5623 138.462 59.4406 137.376 61.0956C136.289 62.7506 134.844 64.1398 133.147 65.1602C131.451 66.1806 129.546 66.806 127.575 66.9902C125.604 67.1743 123.616 66.9124 121.76 66.2239" fill="white"/>
</g>
<path d="M119.769 49.9358H129.601V70.1998C129.601 70.7681 129.489 71.3309 129.271 71.856C129.054 72.3811 128.735 72.8582 128.333 73.2601C127.931 73.662 127.454 73.9808 126.929 74.1983C126.404 74.4158 125.841 74.5278 125.273 74.5278H124.105C122.957 74.5278 121.856 74.0718 121.044 73.2601C120.233 72.4485 119.777 71.3476 119.777 70.1998V49.9358H119.769Z" fill="#407BFF"/>
<path d="M119.769 49.9359L124.681 40.9199L129.601 49.9359H119.769Z" fill="#FFBE9D"/>
<path d="M122.736 44.4879C122.736 44.4879 124.232 46.7359 126.632 44.4879L124.688 40.9199L122.736 44.4879Z" fill="#407BFF"/>
<path d="M129.736 69.2159C128.078 69.4163 126.405 69.4832 124.736 69.4159C123.069 69.4833 121.4 69.4164 119.744 69.2159C121.4 69.0153 123.069 68.9485 124.736 69.0159C126.405 68.9485 128.078 69.0154 129.736 69.2159Z" fill="#263238"/>
<path d="M129.601 67.7039C127.977 67.9043 126.339 67.9712 124.705 67.9039C123.07 67.9712 121.432 67.9043 119.809 67.7039C121.433 67.5136 123.07 67.4494 124.705 67.5119C126.339 67.4494 127.976 67.5136 129.601 67.7039Z" fill="#263238"/>
<path d="M122.656 50.0798C122.76 50.0798 122.856 53.9998 122.856 58.8398C122.856 63.6798 122.76 67.6398 122.656 67.6398C122.552 67.6398 122.456 63.7118 122.456 58.8398C122.456 53.9678 122.544 50.0798 122.656 50.0798Z" fill="#FAFAFA"/>
<path d="M126.633 50.0798C126.745 50.0798 126.833 53.9998 126.833 58.8398C126.833 63.6798 126.745 67.6398 126.633 67.6398C126.521 67.6398 126.433 63.7118 126.433 58.8398C126.433 53.9678 126.521 50.0798 126.633 50.0798Z" fill="#FAFAFA"/>
<path d="M205.193 326.976L249.857 328.888L250.937 331.488L221.657 379.008L168.809 377.464L205.193 326.976Z" fill="#263238"/>
<path d="M166.809 372.832L219.969 375.872L247.745 332.776L228.241 334.36L178.889 351.736L166.809 372.832Z" fill="#E0E0E0"/>
<path d="M159.337 369.64L208.137 370.44C206.113 364.192 210.889 355.4 217.457 352.44C221.809 350.48 229.993 347.936 234.217 345.768C242.217 341.648 249.497 333.856 248.865 327.16L228.801 326.496L203.201 325.504C201.057 331.856 196.481 336.008 189.521 338.512C183.297 340.752 176.209 340.744 170.129 343.312C160.353 347.408 155.657 360.68 159.297 369.664" fill="#EBEBEB"/>
<path d="M159.336 369.64C159.336 369.64 159.288 369.536 159.216 369.32L158.88 368.384C158.703 367.862 158.564 367.327 158.464 366.784C158.301 366.051 158.189 365.308 158.128 364.56C157.973 362.483 158.102 360.394 158.512 358.352C159.08 355.602 160.143 352.978 161.648 350.608C162.072 349.923 162.54 349.265 163.048 348.64C163.312 348.328 163.568 347.984 163.848 347.68L164.752 346.76C165.055 346.445 165.381 346.153 165.728 345.888C166.072 345.608 166.408 345.312 166.776 345.048C167.538 344.512 168.341 344.036 169.176 343.624C172.56 341.92 176.6 341.224 180.808 340.424C182.92 340.04 185.096 339.624 187.272 339.04C189.511 338.426 191.672 337.556 193.712 336.448C194.766 335.878 195.77 335.219 196.712 334.48C197.684 333.733 198.576 332.888 199.376 331.96C201.033 330.045 202.295 327.821 203.088 325.416L203.136 325.28H203.272L224.592 326.08C231.992 326.368 239.648 326.568 247.488 326.832L248.912 326.88H249.088V327.056C249.195 328.588 248.977 330.126 248.448 331.568C248.196 332.28 247.896 332.975 247.552 333.648C247.199 334.309 246.809 334.95 246.384 335.568C244.697 337.99 242.659 340.147 240.336 341.968C238.091 343.756 235.638 345.268 233.032 346.472C230.456 347.632 227.848 348.576 225.296 349.52C222.744 350.464 220.216 351.36 217.824 352.4C216.647 352.922 215.541 353.594 214.536 354.4C214.016 354.768 213.584 355.24 213.112 355.648C212.64 356.056 212.232 356.552 211.856 357.056C210.298 358.937 209.136 361.114 208.44 363.456C207.734 365.673 207.693 368.048 208.32 370.288L208.392 370.504H208.168L172.656 369.88L162.808 369.68L160.232 369.608H159.344C159.344 369.608 159.648 369.608 160.232 369.608H162.816L172.664 369.72L208.168 370.216L208.016 370.424C207.359 368.123 207.395 365.68 208.12 363.4C208.816 361.005 209.995 358.778 211.584 356.856C211.96 356.344 212.432 355.904 212.856 355.424C213.28 354.944 213.784 354.52 214.312 354.136C215.336 353.31 216.466 352.623 217.672 352.096C220.072 351.04 222.616 350.136 225.168 349.192C227.72 348.248 230.32 347.296 232.872 346.144C235.444 344.952 237.861 343.453 240.072 341.68C242.364 339.888 244.376 337.763 246.04 335.376C246.458 334.777 246.845 334.158 247.2 333.52C247.535 332.865 247.826 332.189 248.072 331.496C248.582 330.108 248.795 328.628 248.696 327.152L248.888 327.328L247.456 327.288C239.616 327.024 231.96 326.816 224.568 326.488L203.24 325.688L203.424 325.56C202.608 328.008 201.32 330.272 199.632 332.224C198.816 333.168 197.904 334.026 196.912 334.784C195.954 335.536 194.931 336.203 193.856 336.776C191.795 337.897 189.609 338.772 187.344 339.384C185.144 339.984 182.96 340.384 180.848 340.76C176.64 341.512 172.616 342.216 169.28 343.88C168.464 344.282 167.68 344.747 166.936 345.272C166.568 345.528 166.24 345.824 165.896 346.072C165.552 346.334 165.228 346.623 164.928 346.936L164 347.856C163.712 348.16 163.464 348.496 163.2 348.808C162.69 349.421 162.223 350.068 161.8 350.744C160.295 353.086 159.229 355.683 158.656 358.408C158.227 360.431 158.079 362.504 158.216 364.568C158.264 365.313 158.366 366.054 158.52 366.784C158.61 367.326 158.738 367.861 158.904 368.384C159.04 368.8 159.136 369.112 159.208 369.336C159.28 369.56 159.336 369.64 159.336 369.64Z" fill="#263238"/>
<path d="M216.952 326.296C216.952 326.296 217.016 325.984 217.064 325.424C217.123 324.636 216.992 323.846 216.68 323.12C216.245 322.037 215.424 321.154 214.376 320.64C213.734 320.341 213.039 320.174 212.331 320.15C211.623 320.125 210.917 320.243 210.256 320.497C209.594 320.751 208.991 321.135 208.481 321.627C207.971 322.119 207.566 322.708 207.288 323.36C206.798 324.422 206.634 325.605 206.816 326.76C206.932 327.537 207.205 328.283 207.616 328.952C207.92 329.432 208.144 329.656 208.12 329.68C207.873 329.509 207.661 329.292 207.496 329.04C207.001 328.382 206.664 327.618 206.512 326.808C206.275 325.595 206.417 324.337 206.92 323.208C207.213 322.507 207.645 321.873 208.19 321.344C208.735 320.816 209.382 320.403 210.091 320.133C210.8 319.862 211.557 319.738 212.316 319.769C213.075 319.8 213.819 319.984 214.504 320.312C215.618 320.877 216.476 321.843 216.904 323.016C217.204 323.778 217.297 324.606 217.176 325.416C217.144 325.637 217.091 325.854 217.016 326.064C217 326.232 216.968 326.296 216.952 326.296Z" fill="#263238"/>
<path d="M224.608 326.296C224.568 326.296 224.672 325.984 224.72 325.424C224.775 324.636 224.644 323.847 224.336 323.12C223.897 322.037 223.074 321.154 222.024 320.64C221.382 320.342 220.686 320.176 219.979 320.152C219.271 320.128 218.566 320.246 217.905 320.5C217.244 320.754 216.64 321.138 216.13 321.629C215.621 322.12 215.214 322.709 214.936 323.36C214.448 324.422 214.287 325.606 214.472 326.76C214.585 327.538 214.857 328.284 215.272 328.952C215.576 329.432 215.8 329.656 215.776 329.68C215.523 329.514 215.307 329.296 215.144 329.04C214.652 328.38 214.316 327.617 214.16 326.808C213.93 325.594 214.075 324.338 214.576 323.208C214.869 322.508 215.3 321.875 215.845 321.347C216.389 320.819 217.035 320.407 217.744 320.136C218.452 319.866 219.208 319.742 219.966 319.772C220.724 319.802 221.468 319.986 222.152 320.312C223.266 320.877 224.124 321.843 224.552 323.016C224.849 323.779 224.945 324.605 224.832 325.416C224.802 325.638 224.746 325.855 224.664 326.064C224.662 326.144 224.643 326.223 224.608 326.296Z" fill="#263238"/>
<path d="M230.4 326.696C230.4 326.696 230.448 326.376 230.464 325.816C230.477 325.026 230.301 324.245 229.952 323.536C229.452 322.483 228.58 321.651 227.504 321.2C226.848 320.94 226.146 320.814 225.44 320.827C224.735 320.841 224.038 320.995 223.392 321.28C222.093 321.876 221.082 322.964 220.585 324.304C220.156 325.393 220.059 326.584 220.305 327.728C220.473 328.501 220.8 329.231 221.264 329.872C221.592 330.328 221.833 330.544 221.809 330.568C221.547 330.417 221.321 330.213 221.144 329.968C220.613 329.337 220.232 328.593 220.033 327.792C219.732 326.594 219.805 325.332 220.24 324.176C220.493 323.46 220.888 322.803 221.402 322.244C221.917 321.685 222.539 321.237 223.232 320.926C223.925 320.616 224.674 320.45 225.433 320.437C226.192 320.425 226.946 320.568 227.648 320.856C228.793 321.355 229.705 322.27 230.2 323.416C230.548 324.165 230.692 324.993 230.616 325.816C230.6 326.039 230.557 326.259 230.488 326.472C230.464 326.624 230.4 326.696 230.4 326.696Z" fill="#263238"/>
<path d="M236.648 327.048C236.648 327.048 236.648 326.728 236.648 326.168C236.622 325.379 236.405 324.608 236.016 323.92C235.463 322.892 234.548 322.105 233.448 321.712C232.778 321.486 232.069 321.396 231.363 321.449C230.658 321.502 229.97 321.696 229.341 322.02C228.712 322.344 228.154 322.791 227.701 323.334C227.248 323.878 226.909 324.507 226.704 325.184C226.332 326.293 226.299 327.488 226.608 328.616C226.819 329.381 227.184 330.094 227.68 330.712C228.032 331.144 228.28 331.344 228.256 331.376C227.988 331.236 227.752 331.043 227.56 330.808C226.998 330.206 226.579 329.484 226.336 328.696C225.967 327.516 225.967 326.252 226.336 325.072C226.552 324.345 226.912 323.669 227.394 323.083C227.877 322.498 228.472 322.015 229.144 321.664C229.822 321.317 230.562 321.112 231.322 321.061C232.081 321.01 232.843 321.115 233.56 321.368C234.725 321.803 235.685 322.659 236.248 323.768C236.636 324.507 236.821 325.335 236.784 326.168C236.777 326.389 236.747 326.609 236.696 326.824C236.688 326.976 236.664 327.048 236.648 327.048Z" fill="#263238"/>
<path d="M242.888 326.904C242.888 326.904 242.888 326.584 242.888 326.024C242.84 325.235 242.601 324.469 242.192 323.792C241.61 322.782 240.676 322.021 239.568 321.656C238.891 321.447 238.179 321.376 237.474 321.448C236.769 321.52 236.086 321.733 235.466 322.075C234.845 322.417 234.3 322.881 233.863 323.438C233.425 323.996 233.105 324.636 232.92 325.32C232.633 326.257 232.585 327.252 232.782 328.212C232.979 329.172 233.415 330.068 234.048 330.816C234.416 331.24 234.672 331.432 234.648 331.456C234.374 331.332 234.131 331.149 233.936 330.92C233.36 330.331 232.923 329.62 232.656 328.84C232.258 327.669 232.227 326.405 232.568 325.216C232.765 324.483 233.106 323.797 233.572 323.198C234.038 322.599 234.618 322.099 235.28 321.728C235.947 321.364 236.681 321.139 237.438 321.068C238.194 320.996 238.957 321.079 239.68 321.312C240.861 321.717 241.846 322.551 242.44 323.648C242.849 324.381 243.056 325.209 243.04 326.048C243.04 326.271 243.016 326.494 242.968 326.712C242.928 326.824 242.904 326.904 242.888 326.904Z" fill="#263238"/>
<path d="M248.152 327.6C248.152 327.6 248.152 327.28 248.152 326.72C248.135 325.93 247.926 325.156 247.544 324.464C247.002 323.434 246.099 322.64 245.008 322.232C244.341 321.997 243.633 321.898 242.926 321.942C242.22 321.986 241.53 322.172 240.897 322.488C240.263 322.805 239.701 323.246 239.241 323.784C238.782 324.323 238.436 324.949 238.224 325.624C237.902 326.549 237.816 327.54 237.974 328.507C238.132 329.474 238.529 330.386 239.128 331.16C239.48 331.6 239.72 331.8 239.704 331.832C239.438 331.69 239.203 331.494 239.016 331.256C238.457 330.649 238.046 329.921 237.816 329.128C237.464 327.943 237.483 326.678 237.872 325.504C238.097 324.779 238.465 324.107 238.954 323.527C239.443 322.947 240.044 322.471 240.72 322.128C241.402 321.79 242.144 321.595 242.904 321.554C243.663 321.512 244.423 321.626 245.136 321.888C246.301 322.336 247.251 323.212 247.792 324.336C248.173 325.077 248.35 325.905 248.304 326.736C248.295 326.957 248.263 327.177 248.208 327.392C248.192 327.528 248.168 327.608 248.152 327.6Z" fill="#263238"/>
<path d="M271.201 163.72C268.991 163.654 266.779 163.755 264.585 164.024C257.926 164.881 251.811 168.143 247.39 173.196C242.97 178.248 240.549 184.743 240.585 191.456C240.561 195.873 241.134 200.273 242.289 204.536C246.137 218.184 247.321 230.208 246.881 236.072L259.761 242.992C259.761 242.992 265.721 234.424 271.481 230.728C277.241 227.032 296.409 217.128 304.001 207.008C308.889 200.464 309.833 187.008 298.169 175.28C290.994 168.111 281.34 163.972 271.201 163.72Z" fill="#407BFF"/>
<path d="M240.72 250.968L252.352 257.256L244.784 266.872L237.024 263.352L240.72 250.968Z" fill="#455A64"/>
<path d="M241.289 251.36C241.185 251.32 242.337 247.864 243.865 243.648C245.393 239.432 246.713 236.032 246.817 236.072C246.921 236.112 245.769 239.56 244.241 243.784C242.713 248.008 241.393 251.392 241.289 251.36Z" fill="#263238"/>
<path d="M251.625 256.8C251.529 256.744 253.353 253.48 255.689 249.512C258.025 245.544 260.001 242.4 260.105 242.4C260.209 242.4 258.377 245.72 256.033 249.688C253.689 253.656 251.713 256.84 251.625 256.8Z" fill="#263238"/>
<g opacity="0.4">
<path opacity="0.4" d="M275.04 164.088C274.52 164.088 268.12 171.608 265.288 176.68C255.76 193.744 255.328 210.344 252.688 229.704C252.312 232.472 250.936 238.432 250.96 238.296C252.368 239.4 257.104 241.6 257.104 241.6C257.104 241.6 261.576 236.208 263.352 233.496C270.456 222.64 278.176 214.168 284.264 202.704C290.352 191.24 296.208 181.104 290.576 169.376C290.576 169.376 280.8 163.76 275.04 164.088Z" fill="black"/>
</g>
<path d="M304.001 208.72C303.933 208.603 303.877 208.48 303.833 208.352C303.729 208.112 303.601 207.736 303.385 207.272C302.782 205.929 302.028 204.66 301.137 203.488C299.769 201.679 298.099 200.12 296.201 198.88C293.767 197.268 290.994 196.241 288.097 195.88H288.001L287.953 195.816C286.398 193.681 284.661 191.684 282.761 189.848C280.681 187.841 278.283 186.192 275.665 184.968C273.034 183.778 270.157 183.229 267.273 183.368C264.645 183.471 262.1 184.32 259.937 185.816L259.817 185.896L259.713 185.8C257.514 183.871 254.779 182.657 251.873 182.32C249.616 182.063 247.33 182.354 245.209 183.168C243.835 183.694 242.547 184.419 241.385 185.32C240.985 185.64 240.681 185.896 240.489 186.072C240.394 186.168 240.289 186.254 240.177 186.328C240.262 186.224 240.352 186.126 240.449 186.032C240.633 185.84 240.921 185.568 241.313 185.232C242.459 184.279 243.75 183.515 245.137 182.968C247.285 182.107 249.611 181.783 251.913 182.024C254.889 182.345 257.695 183.571 259.953 185.536H259.729C261.945 183.99 264.557 183.11 267.257 183C270.199 182.85 273.135 183.398 275.825 184.6C278.484 185.844 280.918 187.523 283.025 189.568C284.94 191.422 286.686 193.443 288.241 195.608L288.121 195.536C291.068 195.91 293.885 196.974 296.345 198.64C298.258 199.916 299.934 201.516 301.297 203.368C302.178 204.565 302.908 205.866 303.473 207.24C303.673 207.712 303.785 208.096 303.873 208.344C303.923 208.467 303.966 208.592 304.001 208.72Z" fill="#263238"/>
<path d="M280.048 225.72C279.85 224.73 279.473 223.784 278.936 222.928C278.307 221.95 277.461 221.128 276.464 220.528C275.189 219.739 273.693 219.385 272.2 219.52H272.04V219.36C271.728 217.445 270.931 215.642 269.725 214.121C268.52 212.6 266.945 211.413 265.152 210.672C263.562 210.051 261.854 209.791 260.152 209.912C258.588 210.026 257.065 210.464 255.68 211.2L255.56 211.264L255.464 211.16C254.266 209.905 252.7 209.064 250.992 208.76C249.666 208.503 248.299 208.546 246.992 208.888C245.833 209.211 244.746 209.755 243.792 210.488C243.792 210.488 243.84 210.416 243.96 210.312C244.08 210.208 244.256 210.04 244.504 209.856C245.234 209.339 246.045 208.947 246.904 208.696C248.243 208.31 249.653 208.239 251.024 208.488C252.811 208.783 254.453 209.651 255.704 210.96L255.488 210.92C256.91 210.165 258.474 209.712 260.08 209.592C261.841 209.469 263.607 209.742 265.248 210.392C267.222 211.19 268.933 212.526 270.184 214.248C271.31 215.761 272.046 217.528 272.328 219.392L272.144 219.248C273.706 219.126 275.264 219.516 276.584 220.36C277.599 220.99 278.453 221.848 279.08 222.864C279.481 223.515 279.768 224.229 279.928 224.976C279.968 225.172 279.998 225.369 280.016 225.568C280.031 225.618 280.042 225.669 280.048 225.72Z" fill="#263238"/>
<path d="M250.104 260.288C250.104 260.288 249.976 260.128 249.68 260C249.234 259.865 248.756 259.882 248.32 260.048C247.985 260.153 247.639 260.215 247.288 260.232C247.072 260.23 246.859 260.185 246.661 260.098C246.463 260.011 246.284 259.886 246.136 259.728C245.52 259.08 245.288 258.128 244.704 257.512C244.571 257.36 244.406 257.241 244.22 257.162C244.035 257.083 243.834 257.047 243.632 257.056C243.22 257.101 242.813 257.184 242.416 257.304C242.021 257.417 241.605 257.439 241.2 257.368C240.775 257.263 240.387 257.04 240.083 256.724C239.779 256.408 239.57 256.013 239.48 255.584C239.426 255.407 239.426 255.217 239.48 255.04C239.48 255.04 239.48 255.232 239.616 255.552C239.767 255.994 240.045 256.381 240.416 256.664C240.66 256.859 240.949 256.988 241.256 257.04C241.614 257.088 241.977 257.056 242.32 256.944C242.739 256.809 243.171 256.718 243.608 256.672C243.866 256.657 244.123 256.7 244.361 256.799C244.599 256.897 244.812 257.048 244.984 257.24C245.664 258.04 245.872 258.92 246.392 259.472C246.622 259.729 246.944 259.884 247.288 259.904C247.61 259.9 247.93 259.855 248.24 259.768C248.734 259.615 249.266 259.649 249.736 259.864C250.072 260.056 250.12 260.288 250.104 260.288Z" fill="#263238"/>
<path d="M251.44 258.4C249.492 257.589 247.597 256.654 245.768 255.6C243.874 254.662 242.039 253.61 240.272 252.448C242.222 253.263 244.119 254.199 245.952 255.248C247.844 256.187 249.676 257.239 251.44 258.4Z" fill="#263238"/>
<path d="M249.128 261.352C249.128 261.352 248.968 261.432 248.688 261.56C248.544 261.624 248.384 261.72 248.16 261.816C247.904 261.906 247.631 261.941 247.36 261.92C246.658 261.881 245.986 261.621 245.44 261.176C245.122 260.905 244.872 260.563 244.712 260.176C244.582 259.798 244.39 259.444 244.144 259.128C243.856 258.885 243.519 258.706 243.157 258.601C242.795 258.496 242.414 258.469 242.04 258.52C241.36 258.6 240.67 258.535 240.016 258.328C239.569 258.157 239.203 257.823 238.992 257.392C238.864 257.08 238.912 256.88 238.928 256.888C238.944 256.896 238.976 257.064 239.136 257.32C239.368 257.675 239.716 257.938 240.12 258.064C240.743 258.22 241.39 258.25 242.024 258.152C242.452 258.089 242.887 258.12 243.302 258.241C243.716 258.363 244.099 258.573 244.424 258.856C244.695 259.206 244.906 259.598 245.048 260.016C245.184 260.355 245.394 260.659 245.664 260.904C246.149 261.31 246.741 261.566 247.368 261.64C247.797 261.679 248.228 261.601 248.616 261.416C248.944 261.328 249.128 261.328 249.128 261.352Z" fill="#263238"/>
<path d="M161.296 186.64L181.416 183.656L171.816 170.056L166.664 170.36C164.961 170.458 163.32 171.028 161.922 172.005C160.525 172.983 159.427 174.33 158.752 175.896C158.021 177.594 157.818 179.473 158.168 181.288L161.296 186.64Z" fill="#407BFF"/>
<path opacity="0.4" d="M161.296 186.64L181.416 183.656L171.816 170.056L166.664 170.36C164.961 170.458 163.32 171.028 161.922 172.005C160.525 172.983 159.427 174.33 158.752 175.896C158.021 177.594 157.818 179.473 158.168 181.288L161.296 186.64Z" fill="black"/>
<path d="M247.713 208.928C247.921 209.504 248.145 210.184 248.377 211C248.568 211.703 248.641 212.433 248.593 213.16C248.561 214.062 248.408 214.955 248.137 215.816C247.809 216.616 248.577 217.352 249.225 216.968C249.873 216.584 250.825 214.504 250.825 211.832C250.825 209.16 253.497 212.36 254.513 213.512C255.529 214.664 258.841 218.08 259.441 218.048C260.321 218 260.433 217.048 259.393 215.92C258.353 214.792 255.465 211.2 256.097 210.688C256.729 210.176 261.817 216.12 261.817 216.12C261.817 216.12 262.697 217.568 263.417 217.008C264.777 215.992 258.897 210.08 258.321 209.536C257.929 209.152 258.593 208.576 259.001 209.008C259.409 209.44 263.945 215.048 265.337 214.024C266.401 213.224 260.537 209.12 260.249 207.44C259.961 205.76 264.377 211.016 265.361 210.232C265.737 209.936 265.969 209.664 262.961 207.032C261.521 205.736 256.033 201.896 256.033 201.896L239.521 154.624L226.769 161.928L247.713 208.928Z" fill="#FFBE9D"/>
<path d="M149.416 119.52L130.968 97.5039C130.735 96.7442 130.433 96.0077 130.064 95.3039C129.636 94.4256 129.027 93.6478 128.277 93.0218C127.527 92.3958 126.653 91.9357 125.712 91.6719C124.544 91.4159 123.2 91.5439 122.28 90.7759C121.872 90.4319 121.6 89.9759 121.168 89.6239C120.736 89.2719 120.024 89.2399 119.744 89.6959C119.672 89.8738 119.642 90.0658 119.656 90.2572C119.67 90.4485 119.727 90.6342 119.824 90.7999C120.517 92.4288 121.619 93.8508 123.024 94.9279C121.296 95.4559 118.824 96.2559 118.824 96.2559C118.824 96.2559 114.928 92.0239 112.928 92.0319C110.928 92.0399 114.528 95.8159 114.528 95.8159C114.528 95.8159 111.328 92.8559 110.336 93.6879C109.344 94.5199 111.888 96.7199 111.888 96.7199C111.124 96.2004 110.211 95.9447 109.288 95.9919C108.384 96.1439 107.608 97.2079 108.096 97.9839C108.304 98.2635 108.579 98.4863 108.896 98.6319L113.808 101.368C114.594 101.892 115.494 102.221 116.432 102.328C118.928 102.408 120.824 100.864 123.312 100.928C123.312 100.928 137.224 130.216 138.632 131.728C140.04 133.24 170.632 135.296 170.632 135.296L188.32 120.056L149.416 119.52Z" fill="#FFBE9D"/>
<path d="M204.84 279.064L223.68 287.264L213.6 310.76C211.408 309.664 212.128 295.56 212.128 295.56L199.84 290.8L204.84 279.064Z" fill="#407BFF"/>
<g opacity="0.6">
<path opacity="0.6" d="M214.216 287.872C214.382 287.674 214.614 287.544 214.87 287.507C215.125 287.47 215.385 287.529 215.6 287.672C215.801 287.832 215.934 288.062 215.971 288.316C216.009 288.571 215.947 288.829 215.8 289.04C215.625 289.248 215.379 289.383 215.11 289.42C214.841 289.457 214.568 289.393 214.344 289.24C214.148 289.053 214.033 288.798 214.022 288.527C214.012 288.257 214.107 287.993 214.288 287.792" fill="white"/>
</g>
<path opacity="0.6" d="M223.68 287.264L221.744 286.512L212.8 309.32C212.8 309.32 212.8 310.568 213.6 310.76L223.68 287.264Z" fill="white"/>
<path d="M211.831 295.904C211.951 295.944 212.247 295.392 212.863 294.992C213.479 294.592 214.079 294.488 214.079 294.368C214.079 294.248 213.343 294.128 212.615 294.632C211.887 295.136 211.719 295.88 211.831 295.904Z" fill="#263238"/>
<path d="M211.792 298.8C211.896 298.88 212.304 298.464 212.96 298.28C213.616 298.096 214.168 298.208 214.216 298.096C214.264 297.984 213.64 297.624 212.832 297.864C212.024 298.104 211.688 298.752 211.792 298.8Z" fill="#263238"/>
<path d="M214.144 301.472C214.216 301.376 213.704 300.968 212.952 300.992C212.2 301.016 211.72 301.448 211.792 301.536C211.864 301.624 212.344 301.44 212.968 301.432C213.592 301.424 214.08 301.6 214.144 301.472Z" fill="#263238"/>
<path d="M209.152 294.504C209.28 294.504 209.344 293.904 209.672 293.28C210 292.656 210.416 292.232 210.344 292.128C210.272 292.024 209.648 292.336 209.28 293.08C208.912 293.824 209.04 294.52 209.152 294.504Z" fill="#263238"/>
<path d="M206.608 292.744C206.656 292.744 206.92 292.344 207.104 291.568C207.214 291.112 207.265 290.645 207.256 290.176C207.253 289.908 207.231 289.641 207.192 289.376C207.175 289.213 207.132 289.054 207.064 288.904C207.016 288.794 206.932 288.704 206.826 288.647C206.72 288.59 206.599 288.571 206.48 288.592C206.375 288.613 206.277 288.658 206.193 288.725C206.11 288.792 206.043 288.878 206 288.976C205.936 289.126 205.893 289.285 205.872 289.448C205.744 290.196 205.807 290.963 206.056 291.68C206.32 292.44 206.672 292.808 206.712 292.776C206.752 292.744 206.528 292.32 206.344 291.592C206.245 291.165 206.2 290.727 206.208 290.288C206.214 290.02 206.241 289.752 206.288 289.488C206.328 289.216 206.416 289 206.56 288.984C206.704 288.968 206.624 288.984 206.68 289.064C206.723 289.178 206.752 289.296 206.768 289.416C206.814 289.681 206.843 289.948 206.856 290.216C206.88 290.657 206.862 291.099 206.8 291.536C206.709 291.934 206.645 292.337 206.608 292.744Z" fill="#263238"/>
<path d="M206.832 292.672C206.832 292.672 206.56 292.232 205.832 291.872C205.405 291.663 204.945 291.53 204.472 291.48C204.206 291.451 203.938 291.451 203.672 291.48C203.489 291.478 203.309 291.522 203.148 291.609C202.987 291.696 202.851 291.822 202.752 291.976C202.711 292.082 202.7 292.197 202.722 292.309C202.743 292.421 202.795 292.524 202.872 292.608C202.986 292.726 203.115 292.828 203.256 292.912C203.504 293.067 203.773 293.183 204.056 293.256C204.524 293.372 205.012 293.372 205.48 293.256C206.28 293.056 206.632 292.64 206.6 292.616C206.215 292.75 205.822 292.862 205.424 292.952C205.001 293.013 204.569 292.98 204.16 292.856C203.922 292.781 203.696 292.673 203.488 292.536C203.256 292.392 203.096 292.216 203.16 292.136C203.229 292.056 203.315 291.992 203.412 291.949C203.509 291.906 203.614 291.885 203.72 291.888C203.986 291.862 204.254 291.862 204.52 291.888C204.955 291.918 205.383 292.01 205.792 292.16C206.4 292.416 206.792 292.72 206.832 292.672Z" fill="#263238"/>
<path d="M190.328 311.336L198.12 327.664L200.56 342.4C200.601 342.651 200.694 342.89 200.832 343.103C200.97 343.317 201.151 343.499 201.362 343.64C201.574 343.78 201.812 343.875 202.062 343.919C202.313 343.963 202.569 343.956 202.816 343.896C203.104 343.829 203.371 343.694 203.596 343.502C203.82 343.31 203.994 343.066 204.104 342.792C205.536 339.248 210.744 326.168 210.104 325.008C209.368 323.664 203.024 307.24 203.024 307.24L190.328 311.336Z" fill="#407BFF"/>
<path opacity="0.6" d="M202.815 343.856L209.599 323.856L209.919 324.552C210.191 325.156 210.239 325.836 210.055 326.472C209.559 328.176 208.095 332.872 204.151 342.728C204.04 343.012 203.859 343.264 203.626 343.461C203.393 343.658 203.114 343.794 202.815 343.856Z" fill="white"/>
<g opacity="0.6">
<path opacity="0.6" d="M203.824 320.056C203.687 320.295 203.645 320.577 203.704 320.845C203.763 321.114 203.92 321.352 204.144 321.512C204.379 321.658 204.661 321.707 204.932 321.651C205.203 321.594 205.442 321.436 205.6 321.208C205.74 320.952 205.782 320.654 205.717 320.369C205.652 320.084 205.485 319.834 205.248 319.664C204.987 319.538 204.688 319.518 204.413 319.609C204.138 319.7 203.909 319.895 203.776 320.152" fill="white"/>
</g>
<path d="M203.344 334.952C202.738 334.562 202.039 334.343 201.32 334.318C200.6 334.292 199.887 334.462 199.256 334.808C199.256 334.808 199.376 334.552 199.736 334.328C200.218 334.038 200.774 333.896 201.336 333.92C201.894 333.937 202.436 334.115 202.896 334.432C203.248 334.688 203.376 334.92 203.344 334.952Z" fill="#263238"/>
<path d="M203.2 337.688C202.61 337.634 202.016 337.618 201.424 337.64C200.847 337.777 200.278 337.948 199.72 338.152C199.632 338.088 200.272 337.352 201.368 337.24C201.687 337.162 202.02 337.163 202.339 337.241C202.657 337.318 202.953 337.472 203.2 337.688Z" fill="#263238"/>
<path d="M204.256 331.136C203.352 330.978 202.438 330.89 201.52 330.872C200.606 330.974 199.702 331.151 198.816 331.4C199.603 330.84 200.534 330.518 201.498 330.471C202.462 330.424 203.419 330.655 204.256 331.136Z" fill="#263238"/>
<path d="M202.304 325.976C202.304 326.096 201.224 326.12 200.016 326.616C198.808 327.112 198 327.808 197.92 327.72C198.378 327.014 199.068 326.49 199.872 326.24C200.626 325.868 201.488 325.774 202.304 325.976Z" fill="#263238"/>
<path d="M200.136 321.12C199.312 321.214 198.505 321.418 197.736 321.728C197.022 322.145 196.371 322.659 195.8 323.256C195.76 323.256 195.84 322.944 196.128 322.56C196.504 322.052 196.998 321.643 197.568 321.368C198.131 321.086 198.754 320.944 199.384 320.952C199.864 320.968 200.144 321.08 200.136 321.12Z" fill="#263238"/>
<path d="M197.352 320.8C197.214 320.615 197.11 320.406 197.048 320.184C196.851 319.586 196.772 318.956 196.816 318.328C196.807 317.866 196.95 317.413 197.224 317.04C197.323 316.932 197.452 316.855 197.594 316.819C197.736 316.784 197.886 316.791 198.024 316.84C198.294 316.972 198.507 317.196 198.624 317.472C198.836 318.044 198.842 318.672 198.641 319.247C198.439 319.823 198.043 320.31 197.52 320.624C196.998 320.924 196.399 321.063 195.798 321.023C195.197 320.984 194.622 320.767 194.144 320.4C194.023 320.304 193.924 320.183 193.855 320.045C193.785 319.907 193.748 319.755 193.744 319.6C193.752 319.447 193.808 319.3 193.905 319.181C194.001 319.062 194.132 318.976 194.28 318.936C194.728 318.846 195.191 318.873 195.624 319.016C196.236 319.176 196.814 319.447 197.328 319.816C197.688 320.064 197.848 320.248 197.832 320.272C197.129 319.837 196.363 319.513 195.56 319.312C195.178 319.199 194.773 319.185 194.384 319.272C194.303 319.292 194.23 319.338 194.177 319.403C194.124 319.468 194.092 319.548 194.088 319.632C194.102 319.73 194.136 319.824 194.187 319.91C194.237 319.995 194.305 320.069 194.384 320.128C194.805 320.434 195.304 320.612 195.823 320.642C196.343 320.672 196.859 320.552 197.312 320.296C197.766 320.032 198.114 319.619 198.297 319.128C198.481 318.637 198.489 318.097 198.32 317.6C198.248 317.404 198.106 317.241 197.92 317.144C197.844 317.109 197.758 317.1 197.676 317.117C197.594 317.134 197.52 317.177 197.464 317.24C197.23 317.555 197.101 317.936 197.096 318.328C197.035 319.161 197.122 319.998 197.352 320.8Z" fill="#263238"/>
<path d="M216.584 281.056L195.216 266.656L202.288 197.224L182.048 185.408L163.544 181.12C163.544 181.12 155.816 197.2 152.344 207.52C145.032 229.416 139.904 237.264 141.08 253.12C141.448 258.144 159.992 270.72 171.704 277.688C171.836 279.082 172.044 280.468 172.328 281.84C176.328 299.936 188.552 324 188.552 324L207.112 315.368L201.128 294.848L207.368 298.488L216.584 281.056ZM170.656 236.256L173.152 225.128C172.624 232.208 172.144 239.592 171.8 246.672C170.594 243.349 170.201 239.786 170.656 236.28V236.256Z" fill="#263238"/>
<path d="M188.584 324C188.527 323.906 188.479 323.807 188.44 323.704L188.048 322.832L186.616 319.448C185.384 316.496 183.616 312.248 181.496 306.928C179.376 301.608 176.864 295.304 174.296 288.184C173.664 286.4 173.048 284.568 172.464 282.672C172.208 281.712 171.88 280.768 171.712 279.752C171.664 279.504 171.608 279.248 171.568 279L171.48 278.24L171.312 276.72C171.088 274.672 170.91 272.587 170.776 270.464C170.712 269.408 170.656 268.336 170.608 267.264C170.56 266.192 170.528 265.096 170.608 264C170.928 255.28 171.656 247.008 172.264 239.48C172.872 231.952 173.456 225.184 173.936 219.48C174.416 213.776 174.736 209.184 174.896 205.992C175 204.392 175.056 203.16 175.088 202.328L175.144 201.368C175.13 201.262 175.13 201.154 175.144 201.048C175.153 201.154 175.153 201.261 175.144 201.368C175.144 201.608 175.144 201.92 175.144 202.328C175.144 203.168 175.104 204.408 175.032 206C174.896 209.2 174.616 213.808 174.192 219.504C173.768 225.2 173.2 231.976 172.592 239.504C171.984 247.032 171.288 255.304 170.992 264C170.928 265.088 170.992 266.16 170.992 267.24C170.992 268.32 171.088 269.376 171.16 270.44C171.288 272.573 171.462 274.651 171.68 276.672L171.848 278.2L171.936 278.952C171.976 279.2 172.032 279.44 172.08 279.688C172.24 280.664 172.56 281.616 172.816 282.568C173.384 284.448 174 286.28 174.624 288.064C177.136 295.176 179.624 301.504 181.704 306.824C183.784 312.144 185.52 316.424 186.712 319.384C187.296 320.856 187.76 322 188.08 322.8C188.224 323.176 188.344 323.472 188.424 323.688C188.504 323.904 188.584 324 188.584 324Z" fill="#455A64"/>
<path d="M174.296 198.696C174.296 198.696 174.112 198.584 173.816 198.304C173.434 197.874 173.128 197.381 172.912 196.848C172.279 195.083 171.97 193.219 172 191.344C171.976 189.474 172.064 187.604 172.264 185.744C172.302 184.976 172.409 184.213 172.584 183.464C172.65 184.23 172.65 185.001 172.584 185.768C172.512 187.184 172.4 189.144 172.432 191.304C172.419 193.14 172.689 194.966 173.232 196.72C173.42 197.234 173.676 197.721 173.992 198.168C174.184 198.496 174.32 198.68 174.296 198.696Z" fill="#455A64"/>
<path d="M166.312 182.176C166.501 182.803 166.555 183.463 166.472 184.112C166.366 185.705 165.836 187.24 164.937 188.559C164.038 189.879 162.803 190.934 161.36 191.616C160.784 191.93 160.15 192.121 159.496 192.176C159.496 192.112 160.192 191.92 161.232 191.376C162.586 190.656 163.744 189.618 164.608 188.351C165.472 187.085 166.016 185.627 166.192 184.104C166.328 182.92 166.24 182.176 166.312 182.176Z" fill="#455A64"/>
<path d="M199.512 222.544C199.512 222.544 199.512 222.616 199.512 222.752C199.512 222.888 199.512 223.12 199.464 223.368C199.4 223.944 199.32 224.744 199.224 225.768C198.992 227.856 198.672 230.824 198.272 234.472C197.472 241.856 196.288 251.992 195.024 263.2C194.573 268.476 194.926 273.79 196.072 278.96C196.573 281.212 197.217 283.43 198 285.6C198.72 287.648 199.384 289.56 200 291.312C201.208 294.784 202.184 297.608 202.872 299.592C203.192 300.552 203.448 301.304 203.672 301.848L203.864 302.44C203.89 302.504 203.907 302.571 203.912 302.64C203.912 302.64 203.912 302.584 203.824 302.448C203.736 302.312 203.688 302.112 203.6 301.872C203.392 301.336 203.12 300.592 202.8 299.64L199.808 291.408C199.184 289.664 198.496 287.752 197.76 285.712C196.958 283.53 196.298 281.299 195.784 279.032C194.606 273.829 194.236 268.476 194.688 263.16C195.936 251.92 197.184 241.792 198.056 234.44C198.512 230.792 198.856 227.824 199.136 225.744C199.264 224.736 199.368 223.952 199.448 223.344C199.448 223.096 199.512 222.896 199.536 222.736C199.518 222.673 199.51 222.609 199.512 222.544Z" fill="#455A64"/>
<path d="M163.544 181L166.824 172.624L174.304 183.776L164.328 181.288" fill="#FFBE9D"/>
<path d="M241.8 155.824L232.928 135.928C231.864 132.728 229.872 132.232 228.208 130.376L205.976 117.84C189.768 111.2 180.944 133.456 180.944 133.456L166.216 167.056C148.896 172.792 161.16 186.096 161.16 186.096C161.16 186.096 156.448 177.904 161.088 174.952C165.936 171.856 171.312 180.008 176.48 187.752C182.584 196.888 202.408 202.824 202.408 202.824C204.728 200.376 204.08 191.824 205.896 187.232C206.472 185.784 220.2 153.984 220.2 153.984L225.52 166.872C225.52 166.872 232.336 158.872 235.648 157.608C237.645 156.84 239.703 156.243 241.8 155.824Z" fill="#407BFF"/>
<path d="M202.4 169.968C202.197 170.152 201.971 170.311 201.729 170.44C201.082 170.815 200.405 171.133 199.705 171.392C197.374 172.27 194.857 172.531 192.396 172.151C189.935 171.772 187.614 170.763 185.657 169.224C185.065 168.767 184.517 168.259 184.017 167.704C183.818 167.515 183.651 167.297 183.521 167.056C183.577 167 184.321 167.904 185.825 169C187.779 170.442 190.054 171.389 192.455 171.759C194.855 172.13 197.31 171.913 199.609 171.128C201.385 170.536 202.4 169.904 202.4 169.968Z" fill="#263238"/>
<path d="M165.6 138.4L179.32 139.696L201.272 116.496L188.36 116.048L165.376 118.32C166.585 124.953 166.661 131.742 165.6 138.4Z" fill="#407BFF"/>
<path d="M184.616 126.192C184.583 126.341 184.526 126.484 184.448 126.616L183.896 127.8C183.4 128.872 182.704 130.352 181.864 132.144C180.16 135.824 177.864 140.944 175.464 146.624C173.064 152.304 170.776 157.448 169.064 161.136C168.224 162.984 167.528 164.464 167.032 165.488L166.448 166.656C166.387 166.798 166.309 166.932 166.216 167.056C166.257 166.908 166.31 166.763 166.376 166.624L166.888 165.424L168.808 161.024C170.408 157.256 172.64 152.128 175.072 146.464C177.504 140.8 179.872 135.68 181.608 132.024C182.496 130.2 183.208 128.736 183.76 127.728C184.016 127.264 184.216 126.88 184.376 126.576C184.442 126.44 184.522 126.311 184.616 126.192Z" fill="#263238"/>
<path d="M226.496 132.936C226.536 133.008 225.696 133.448 224.52 134.44C223.845 135.018 223.226 135.658 222.672 136.352C221.996 137.209 221.411 138.134 220.928 139.112C220.463 140.097 220.099 141.126 219.84 142.184C219.638 143.053 219.52 143.94 219.488 144.832C219.432 146.352 219.608 147.296 219.528 147.304C219.443 147.097 219.39 146.879 219.368 146.656C219.308 146.393 219.27 146.125 219.256 145.856C219.215 145.506 219.196 145.153 219.2 144.8C219.194 143.886 219.288 142.974 219.48 142.08C219.72 140.977 220.082 139.903 220.56 138.88C221.061 137.878 221.67 136.934 222.376 136.064C222.96 135.365 223.617 134.729 224.336 134.168C224.607 133.946 224.893 133.743 225.192 133.56C225.407 133.406 225.634 133.269 225.872 133.152C226.067 133.048 226.278 132.975 226.496 132.936Z" fill="#263238"/>
<path d="M230.328 101.072L217.456 125.136C216.441 127.029 214.748 128.467 212.716 129.161C210.684 129.856 208.465 129.755 206.504 128.88C205.447 128.402 204.5 127.713 203.72 126.854C202.94 125.996 202.344 124.987 201.969 123.89C201.594 122.792 201.449 121.629 201.54 120.473C201.632 119.317 201.96 118.192 202.504 117.168L204.72 112.992C204.72 112.992 199.12 109.368 201.744 103.32C204.08 97.928 212.656 82.696 214.472 79.48L225.32 84.336C226.764 85.0891 228.042 86.124 229.079 87.3796C230.117 88.6352 230.892 90.086 231.358 91.6463C231.825 93.2065 231.975 94.8445 231.798 96.4635C231.621 98.0825 231.121 99.6495 230.328 101.072Z" fill="#FFBE9D"/>
<path d="M204.72 112.904C207.474 114.197 210.551 114.643 213.56 114.184C213.56 114.184 209.768 117.68 204.008 114.456L204.72 112.904Z" fill="#EB996E"/>
<path d="M208.856 93.664C208.753 93.8873 208.742 94.1417 208.824 94.3733C208.906 94.6048 209.075 94.7952 209.296 94.904C209.401 94.9611 209.517 94.9967 209.636 95.0087C209.755 95.0207 209.876 95.0089 209.99 94.9739C210.105 94.9389 210.211 94.8814 210.304 94.8049C210.396 94.7283 210.472 94.6342 210.528 94.528C210.63 94.3047 210.641 94.0502 210.559 93.8187C210.477 93.5872 210.308 93.3968 210.087 93.288C209.982 93.2309 209.866 93.1953 209.747 93.1833C209.628 93.1713 209.507 93.1831 209.393 93.2181C209.278 93.2531 209.172 93.3105 209.079 93.3871C208.987 93.4636 208.911 93.5577 208.856 93.664Z" fill="#263238"/>
<path d="M208.904 92.9039C208.96 93.0639 209.824 92.9039 210.752 93.2879C211.68 93.6719 212.144 94.4639 212.296 94.3999C212.448 94.3359 212.344 94.1199 212.152 93.7759C211.874 93.3203 211.464 92.9603 210.976 92.7439C210.494 92.5279 209.957 92.4691 209.44 92.5759C209.064 92.6639 208.872 92.7999 208.904 92.9039Z" fill="#263238"/>
<path d="M217.505 97.9199C217.4 98.1429 217.388 98.3981 217.47 98.6302C217.552 98.8623 217.723 99.0526 217.945 99.1599C218.05 99.2167 218.167 99.2519 218.286 99.2633C218.406 99.2747 218.526 99.2622 218.641 99.2264C218.756 99.1907 218.862 99.1324 218.954 99.0551C219.046 98.9777 219.122 98.8828 219.177 98.7759C219.277 98.5534 219.287 98.3009 219.205 98.0713C219.123 97.8416 218.955 97.6526 218.737 97.5439C218.631 97.4856 218.516 97.4491 218.396 97.4366C218.277 97.424 218.156 97.4356 218.041 97.4707C217.926 97.5057 217.819 97.5636 217.727 97.6408C217.635 97.7179 217.559 97.8128 217.505 97.9199Z" fill="#263238"/>
<path d="M217.912 97.136C217.968 97.296 218.832 97.136 219.76 97.52C220.688 97.904 221.152 98.704 221.304 98.64C221.456 98.576 221.36 98.36 221.16 98.008C220.881 97.555 220.471 97.1978 219.984 96.984C219.503 96.7642 218.964 96.7053 218.448 96.816C218.072 96.904 217.88 97.064 217.912 97.136Z" fill="#263238"/>
<path d="M211.488 102.488C211.068 102.122 210.606 101.808 210.112 101.552C209.888 101.416 209.68 101.272 209.712 101.096C209.744 100.92 209.952 100.688 210.184 100.464L211.688 98.9761C213.016 97.7422 214.244 96.4046 215.36 94.9761C213.928 96.0942 212.59 97.3277 211.36 98.6641L209.88 100.176C209.604 100.395 209.414 100.703 209.344 101.048C209.343 101.146 209.363 101.244 209.403 101.334C209.443 101.423 209.502 101.503 209.576 101.568C209.691 101.66 209.818 101.738 209.952 101.8C210.43 102.099 210.947 102.33 211.488 102.488Z" fill="#263238"/>
<path d="M213.92 104.344C213.776 104.272 213.328 105.272 212.152 105.6C210.976 105.928 209.952 105.344 209.88 105.48C209.808 105.616 210.032 105.776 210.48 105.992C211.063 106.265 211.724 106.321 212.344 106.152C212.943 105.993 213.454 105.605 213.768 105.072C213.992 104.672 213.992 104.376 213.92 104.344Z" fill="#263238"/>
<path d="M219.296 93.408C219.296 93.704 220.248 93.992 221.272 94.608C222.296 95.224 223.048 95.912 223.288 95.752C223.4 95.672 223.352 95.368 223.112 94.952C222.771 94.4445 222.32 94.0205 221.792 93.7116C221.264 93.4027 220.673 93.2169 220.064 93.168C219.6 93.168 219.304 93.272 219.296 93.408Z" fill="#263238"/>
<path d="M210.44 90.4001C210.512 90.6881 211.24 90.7521 212.04 91.0801C212.84 91.4081 213.392 91.8801 213.64 91.7041C213.888 91.5281 213.752 91.3681 213.552 91.0481C213.288 90.6328 212.898 90.3132 212.44 90.1361C211.986 89.9401 211.482 89.8925 211 90.0001C210.6 90.0641 210.4 90.2401 210.44 90.4001Z" fill="#263238"/>
<path d="M226.28 104.68C226.408 104.68 230.96 105.304 228.992 109.36C227.024 113.416 223.392 110.6 223.392 110.48C223.392 110.36 226.28 104.68 226.28 104.68Z" fill="#FFBE9D"/>
<path d="M225.392 109.544C225.392 109.544 225.44 109.624 225.528 109.744C225.664 109.896 225.853 109.99 226.056 110.008C226.404 109.973 226.736 109.845 227.017 109.639C227.298 109.432 227.519 109.153 227.656 108.832C227.835 108.49 227.936 108.113 227.952 107.728C227.975 107.582 227.962 107.434 227.915 107.294C227.867 107.155 227.787 107.029 227.68 106.928C227.608 106.868 227.518 106.835 227.424 106.835C227.331 106.835 227.24 106.868 227.168 106.928C227.064 107.016 227.048 107.104 227.024 107.104C227 107.104 226.968 106.992 227.08 106.84C227.154 106.75 227.255 106.688 227.368 106.664C227.521 106.635 227.679 106.667 227.808 106.752C227.958 106.866 228.075 107.016 228.151 107.188C228.227 107.36 228.257 107.549 228.24 107.736C228.242 108.17 228.137 108.599 227.936 108.984C227.781 109.355 227.52 109.671 227.185 109.895C226.851 110.118 226.458 110.238 226.056 110.24C225.932 110.215 225.815 110.165 225.711 110.092C225.608 110.019 225.521 109.925 225.456 109.816C225.352 109.648 225.376 109.544 225.392 109.544Z" fill="#EB996E"/>
<path d="M228.632 105.6C228.255 105.41 227.835 105.322 227.414 105.346C226.992 105.37 226.585 105.504 226.232 105.736C225.704 106.2 225.344 106.84 224.816 107.336C224.573 107.594 224.25 107.764 223.9 107.819C223.55 107.874 223.191 107.811 222.88 107.64C222.698 107.477 222.562 107.27 222.486 107.038C222.411 106.806 222.397 106.558 222.448 106.32C222.555 105.841 222.753 105.388 223.032 104.984C224.128 103.176 225.384 101.448 226.328 99.5519C227.355 97.6791 227.803 95.5436 227.616 93.4159C227.508 92.3577 227.116 91.3483 226.483 90.4938C225.849 89.6392 224.997 88.9712 224.016 88.5599C222.696 88.0959 221.224 88.2319 219.872 87.8479C219.072 87.6076 218.336 87.1891 217.721 86.6238C217.106 86.0584 216.627 85.361 216.32 84.5839C216.161 84.2704 215.985 83.966 215.792 83.6719C215.84 83.5759 216.32 82.7599 216.792 82.5999C220.36 81.3919 225.184 82.7759 228.136 85.1039C229.643 86.2748 230.876 87.7605 231.749 89.4573C232.623 91.1541 233.115 93.0211 233.192 94.9279C233.232 98.6879 230.864 102.832 228.664 105.632" fill="#263238"/>
<path d="M228.672 105.16C229.8 103.24 231.624 101.856 233.016 100.128C234.408 98.4 235.416 95.96 234.376 93.976C234.04 93.296 233.496 92.728 233.216 92.024C232.994 91.2931 232.86 90.5385 232.816 89.776C232.635 88.6108 232.193 87.5016 231.522 86.5317C230.852 85.5618 229.97 84.7564 228.944 84.176C227.52 83.376 225.88 83.056 224.432 82.296C222.152 81.096 220.48 78.872 218.032 77.92C217.646 77.7318 217.225 77.6274 216.796 77.6136C216.367 77.5998 215.941 77.677 215.544 77.84C215.354 77.9323 215.186 78.0636 215.05 78.2253C214.914 78.3871 214.814 78.5756 214.756 78.7786C214.698 78.9816 214.683 79.1945 214.713 79.4036C214.742 79.6126 214.815 79.8131 214.928 79.992C214.88 79.8077 214.793 79.636 214.673 79.4889C214.552 79.3419 214.401 79.223 214.229 79.1407C214.057 79.0584 213.87 79.0146 213.68 79.0124C213.49 79.0102 213.301 79.0496 213.128 79.128C212.787 79.3135 212.509 79.5955 212.329 79.9385C212.148 80.2815 212.072 80.6703 212.112 81.056C212.206 81.826 212.507 82.556 212.984 83.168C214.467 85.2707 216.651 86.7767 219.144 87.416L224.672 86.984L229.2 90.336L232.544 95.672L226.472 103.56L228.672 105.16Z" fill="#263238"/>
<path d="M194.12 73.6799C193.895 70.1942 192.739 66.8328 190.771 63.9469C188.803 61.061 186.096 58.7565 182.934 57.2742C179.771 55.7918 176.268 55.186 172.791 55.5201C169.314 55.8541 165.991 57.1158 163.168 59.1732C160.345 61.2306 158.127 64.0083 156.745 67.216C155.362 70.4238 154.867 73.9439 155.31 77.4086C155.753 80.8734 157.118 84.1555 159.263 86.9122C161.408 89.6689 164.254 91.799 167.504 93.0799C167.656 95.3839 167.824 97.9919 167.824 97.9919L184.88 96.8879C184.88 96.8879 184.808 94.1279 184.68 91.6639C187.755 89.8239 190.263 87.1717 191.928 83.9989C193.594 80.8262 194.352 77.2557 194.12 73.6799Z" fill="#407BFF"/>
<path d="M178.704 97.2078C178.704 97.2078 178.704 97.1198 178.704 96.9678C178.704 96.8158 178.704 96.5598 178.704 96.2558C178.704 95.6398 178.792 94.7198 178.888 93.5438C178.984 92.3678 179.12 90.9198 179.384 89.2638C179.676 87.377 180.15 85.523 180.8 83.7278C181.183 82.6828 181.656 81.6735 182.216 80.7118C182.521 80.1867 182.953 79.7465 183.472 79.4318C183.753 79.2751 184.068 79.1882 184.389 79.1785C184.711 79.1687 185.03 79.2364 185.32 79.3758C185.627 79.5237 185.865 79.7845 185.984 80.1038C186.116 80.4269 186.116 80.7887 185.984 81.1118C185.699 81.7336 185.195 82.229 184.568 82.5038C183.908 82.7624 183.203 82.8873 182.494 82.8714C181.785 82.8555 181.086 82.699 180.438 82.411C179.79 82.123 179.205 81.7093 178.718 81.1938C178.231 80.6783 177.851 80.0712 177.6 79.4078C177.304 78.7006 177.213 77.9245 177.336 77.1678C177.403 76.7654 177.608 76.399 177.917 76.1318C178.225 75.8645 178.617 75.7132 179.024 75.7038C179.235 75.7106 179.441 75.7716 179.622 75.8809C179.803 75.9902 179.952 76.1441 180.056 76.3278C180.271 76.6826 180.354 77.1021 180.288 77.5118C180.1 78.3009 179.666 79.0098 179.048 79.5358C178.46 80.1013 177.759 80.5362 176.991 80.8119C176.223 81.0876 175.406 81.198 174.592 81.1358C173.777 81.0591 172.993 80.7863 172.306 80.3405C171.619 79.8946 171.05 79.2892 170.648 78.5758C170.442 78.2244 170.31 77.8339 170.262 77.4291C170.214 77.0243 170.25 76.6139 170.368 76.2238C170.426 76.0237 170.527 75.8387 170.665 75.6819C170.802 75.5251 170.972 75.4003 171.163 75.3164C171.353 75.2325 171.56 75.1914 171.769 75.1962C171.977 75.2009 172.182 75.2513 172.368 75.3438C172.737 75.5142 173.044 75.7934 173.248 76.1438C173.439 76.4853 173.564 76.8599 173.616 77.2478C173.719 77.997 173.667 78.7593 173.464 79.4878C173.088 80.9158 172.181 82.1464 170.928 82.9278C169.732 83.6613 168.314 83.9449 166.928 83.7278C166.255 83.6648 165.62 83.3839 165.12 82.9278C164.876 82.6896 164.72 82.3752 164.678 82.0365C164.635 81.6977 164.71 81.3547 164.888 81.0638C165.096 80.7959 165.4 80.6206 165.736 80.5758C166.056 80.5349 166.381 80.5762 166.68 80.6958C167.232 80.9653 167.679 81.4097 167.952 81.9598C168.512 82.9838 168.968 83.9838 169.432 84.9358C171.24 88.7598 172.552 91.9198 173.432 94.1118C173.872 95.2078 174.232 96.0638 174.424 96.6398C174.528 96.9278 174.608 97.1518 174.672 97.3038C174.702 97.3794 174.726 97.4569 174.744 97.5358L174.648 97.3118L174.376 96.6638L173.344 94.1438C172.432 91.9678 171.096 88.8158 169.272 85.0078C168.808 84.0638 168.336 83.0478 167.784 82.0478C167.528 81.5378 167.112 81.125 166.6 80.8718C166.342 80.75 166.051 80.7138 165.771 80.7685C165.49 80.8232 165.234 80.9659 165.04 81.1758C164.895 81.4297 164.838 81.7245 164.879 82.0141C164.919 82.3037 165.055 82.5716 165.264 82.7758C165.731 83.2012 166.324 83.4624 166.952 83.5198C168.289 83.7188 169.653 83.4352 170.8 82.7198C171.989 81.9579 172.847 80.7749 173.2 79.4078C173.396 78.708 173.445 77.9754 173.344 77.2558C173.321 76.8981 173.206 76.5524 173.012 76.2514C172.817 75.9504 172.549 75.704 172.232 75.5358C172.073 75.4625 171.9 75.4246 171.724 75.4246C171.549 75.4246 171.376 75.4625 171.216 75.5358C171.054 75.6132 170.911 75.7247 170.796 75.8629C170.682 76.001 170.598 76.1624 170.552 76.3358C170.445 76.6946 170.413 77.0717 170.458 77.4435C170.504 77.8152 170.626 78.1735 170.816 78.4958C171.206 79.1672 171.75 79.7355 172.404 80.1531C173.059 80.5707 173.803 80.8254 174.576 80.8958C175.356 80.9535 176.139 80.8458 176.873 80.5797C177.608 80.3136 178.279 79.8952 178.84 79.3518C179.413 78.864 179.818 78.2095 180 77.4798C180.056 77.123 179.986 76.7578 179.8 76.4478C179.715 76.2988 179.593 76.1738 179.446 76.0843C179.299 75.9949 179.132 75.9438 178.96 75.9358C178.607 75.9381 178.268 76.0722 178.008 76.3118C177.748 76.5502 177.573 76.868 177.512 77.2158C177.394 77.9291 177.48 78.6613 177.76 79.3278C177.999 79.9696 178.364 80.5571 178.834 81.0559C179.303 81.5548 179.867 81.9549 180.493 82.2328C181.119 82.5108 181.794 82.6609 182.479 82.6745C183.163 82.6881 183.844 82.5648 184.48 82.3118C185.059 82.0592 185.525 81.604 185.792 81.0318C185.907 80.7622 185.914 80.4591 185.813 80.1842C185.712 79.9092 185.51 79.6831 185.248 79.5518C184.986 79.4252 184.697 79.3635 184.406 79.3718C184.115 79.3802 183.831 79.4584 183.576 79.5998C183.092 79.8975 182.688 80.3096 182.4 80.7998C181.845 81.749 181.374 82.7448 180.992 83.7758C180.335 85.554 179.853 87.392 179.552 89.2638C179.272 90.9198 179.12 92.3598 179.008 93.5358C178.896 94.7118 178.84 95.6158 178.784 96.2478C178.784 96.5438 178.736 96.7838 178.728 96.9518C178.72 97.1198 178.704 97.2078 178.704 97.2078Z" fill="#263238"/>
<path d="M183.768 100.128L169.128 101.08C168.836 101.097 168.548 100.999 168.328 100.806C168.108 100.612 167.973 100.34 167.952 100.048C167.935 99.7563 168.033 99.4696 168.227 99.2507C168.42 99.0317 168.693 98.8984 168.984 98.8799L183.632 97.9359C183.776 97.9261 183.921 97.9449 184.057 97.9911C184.194 98.0373 184.32 98.1101 184.429 98.2052C184.537 98.3004 184.626 98.416 184.69 98.5455C184.754 98.675 184.791 98.8158 184.8 98.9599C184.818 99.2515 184.719 99.5382 184.525 99.7571C184.332 99.976 184.06 100.109 183.768 100.128Z" fill="#263238"/>
<path d="M183.832 101.088L169.184 102.04C168.893 102.059 168.622 102.193 168.43 102.412C168.238 102.631 168.14 102.917 168.16 103.208C168.179 103.499 168.312 103.77 168.532 103.962C168.751 104.154 169.037 104.251 169.328 104.232L170.928 104.128L173.328 108.056C173.464 108.275 173.657 108.453 173.887 108.572C174.117 108.69 174.374 108.744 174.632 108.728L179.864 108.392C180.122 108.372 180.371 108.283 180.584 108.133C180.796 107.984 180.965 107.781 181.072 107.544L182.88 103.36L183.976 103.288C184.256 103.254 184.513 103.114 184.693 102.897C184.873 102.68 184.964 102.402 184.945 102.12C184.927 101.838 184.801 101.574 184.594 101.382C184.387 101.19 184.114 101.085 183.832 101.088Z" fill="#263238"/>
<g opacity="0.2">
<path opacity="0.2" d="M161.352 63.3438C162.431 62.1962 163.693 61.2364 165.088 60.5038C166 60.0047 166.982 59.6435 168 59.4318C168.736 59.3118 169.16 59.3518 169.208 59.5038C169.312 59.8558 167.872 60.4718 166.008 61.9038C163.518 63.7158 161.602 66.2058 160.488 69.0769C159.375 71.948 159.111 75.0788 159.728 78.0958C160.152 80.4558 160.8 81.8798 160.528 82.0958C160.384 82.1838 160.048 81.9278 159.592 81.3438C158.965 80.4997 158.474 79.5632 158.136 78.5678C157.618 77.0863 157.347 75.5294 157.336 73.9598C157.298 72.0066 157.638 70.0645 158.336 68.2398" fill="white"/>
</g>
<g opacity="0.2">
<path opacity="0.2" d="M173.96 60.0479C172.728 60.1119 171.616 59.8479 171.448 59.1999C171.376 58.8799 171.584 58.5199 172.008 58.2239C172.557 57.8903 173.179 57.6955 173.82 57.6565C174.461 57.6174 175.102 57.7353 175.688 57.9999C176.152 58.2479 176.392 58.5839 176.36 58.9119" fill="white"/>
</g>
<path d="M180.8 107.904C180.451 107.843 180.107 107.76 179.768 107.656C178.946 107.482 178.102 107.431 177.264 107.504C176.439 107.593 175.631 107.8 174.864 108.12C174.272 108.376 173.92 108.584 173.904 108.552C174.163 108.305 174.464 108.108 174.792 107.968C175.57 107.589 176.411 107.353 177.272 107.272C178.135 107.189 179.005 107.265 179.84 107.496C180.181 107.577 180.506 107.715 180.8 107.904Z" fill="#455A64"/>
<path d="M182.92 103.408C182.92 103.472 180.28 103.696 177.008 103.912C173.736 104.128 171.096 104.24 171.088 104.168C171.08 104.096 173.728 103.88 176.992 103.672C180.256 103.464 182.912 103.344 182.92 103.408Z" fill="#455A64"/>
<path d="M182.112 105.208C181.642 105.325 181.163 105.402 180.68 105.44C179.792 105.56 178.56 105.688 177.192 105.8C175.824 105.912 174.592 105.968 173.696 105.992C173.214 106.036 172.73 106.036 172.248 105.992C172.722 105.896 173.204 105.842 173.688 105.832L177.176 105.568L180.664 105.28C181.144 105.215 181.628 105.191 182.112 105.208Z" fill="#455A64"/>
<path d="M76.6406 203.2L79.8406 208.296C79.8406 208.296 93.4406 195.808 106.873 199.336C106.849 199.32 94.7526 189.064 76.6406 203.2Z" fill="#407BFF"/>
<path d="M106.848 199.32C106.848 199.32 116.808 188.504 131.416 190.968L135.416 191.568L134.152 189.272C134.152 189.272 108.72 180.568 106.848 199.32Z" fill="#407BFF"/>
<path d="M85.8238 162.848C85.8238 162.848 65.8718 159.416 52.7998 166.496L73.5998 205.6C73.5998 205.6 90.6078 189.208 106.88 199.304L85.8238 162.848Z" fill="#F5F5F5"/>
<path d="M85.8241 162.848C85.8652 162.899 85.9026 162.952 85.9361 163.008L86.2321 163.504L87.3841 165.448L91.7041 172.856L107 199.256C107.019 199.29 107.027 199.328 107.022 199.367C107.016 199.405 106.999 199.44 106.972 199.467C106.944 199.495 106.909 199.512 106.871 199.517C106.832 199.523 106.794 199.515 106.76 199.496C104.415 198.046 101.818 197.05 99.1041 196.56C97.6789 196.329 96.2357 196.227 94.7921 196.256C93.3073 196.321 91.8303 196.509 90.3761 196.816C84.2292 198.327 78.5581 201.352 73.8801 205.616L73.7041 205.776C73.6862 205.795 73.6645 205.81 73.6404 205.821C73.6163 205.831 73.5904 205.837 73.5641 205.837C73.5379 205.837 73.5119 205.831 73.4878 205.821C73.4638 205.81 73.4421 205.795 73.4241 205.776V205.736L52.6481 166.576C52.6371 166.558 52.63 166.538 52.6272 166.517C52.6245 166.496 52.6262 166.474 52.6322 166.454C52.6383 166.433 52.6485 166.415 52.6622 166.398C52.676 166.382 52.693 166.369 52.7121 166.36C56.8814 164.28 61.3803 162.94 66.0081 162.4C69.5397 161.965 73.1001 161.81 76.6561 161.936C79.6001 162.04 81.8961 162.272 83.4481 162.464C84.2481 162.56 84.8241 162.648 85.2241 162.72L85.6801 162.8H85.8241H85.6721L85.2161 162.744C84.8161 162.696 84.2241 162.616 83.4401 162.536C81.8401 162.376 79.5841 162.176 76.6481 162.104C73.1062 162.006 69.5621 162.185 66.0481 162.64C61.4585 163.204 57.0009 164.558 52.8721 166.64L52.9361 166.424L73.7361 205.528L73.4241 205.472L73.6001 205.312C76.0257 203.145 78.6941 201.265 81.5521 199.712C84.2934 198.202 87.2346 197.087 90.2881 196.4C91.7652 196.084 93.2668 195.897 94.7761 195.84C96.244 195.806 97.7118 195.911 99.1601 196.152C101.916 196.659 104.554 197.677 106.936 199.152L106.688 199.392L91.5601 172.992L87.3041 165.52L86.1921 163.536C86.0721 163.312 85.9761 163.144 85.9121 163.016C85.8789 162.962 85.8495 162.906 85.8241 162.848Z" fill="#263238"/>
<path d="M117.184 154.824C117.184 154.824 102.096 145.224 86.0801 162.824L107.104 199.296C107.104 199.296 111.392 184.496 136.496 189.64L117.184 154.824Z" fill="#F5F5F5"/>
<path d="M117.184 154.824C117.226 154.87 117.261 154.921 117.288 154.976C117.352 155.096 117.448 155.248 117.56 155.448L118.624 157.304L122.624 164.376L136.648 189.6C136.66 189.62 136.667 189.641 136.67 189.663C136.673 189.685 136.671 189.708 136.665 189.73C136.659 189.751 136.649 189.771 136.635 189.789C136.621 189.807 136.604 189.821 136.584 189.832C136.546 189.847 136.503 189.847 136.464 189.832L132.728 189.216C132.09 189.108 131.447 189.036 130.8 189L128.832 188.84C128.165 188.784 127.494 188.768 126.824 188.792L124.8 188.8C124.112 188.8 123.432 188.936 122.744 189C122.05 189.057 121.36 189.161 120.68 189.312L118.624 189.776L116.6 190.488C115.935 190.757 115.283 191.058 114.648 191.392C114.318 191.542 114.003 191.722 113.704 191.928L112.784 192.52C112.176 192.928 111.632 193.424 111.064 193.88C110.528 194.382 110.024 194.917 109.552 195.48C108.584 196.617 107.826 197.918 107.312 199.32C107.294 199.37 107.257 199.411 107.209 199.433C107.161 199.456 107.106 199.458 107.056 199.44C107.012 199.425 106.975 199.393 106.952 199.352L106.104 197.888C98.6724 184.968 91.7044 172.928 85.9524 162.872C85.9331 162.842 85.9229 162.808 85.9229 162.772C85.9229 162.737 85.9331 162.702 85.9524 162.672C89.1278 159.077 93.0009 156.165 97.3364 154.112C100.7 152.576 104.388 151.884 108.08 152.096C110.439 152.237 112.759 152.756 114.952 153.632C115.527 153.868 116.087 154.135 116.632 154.432L117.048 154.672L117.176 154.768L117.032 154.696L116.608 154.48C116.232 154.296 115.672 154.024 114.92 153.736C112.114 152.668 109.121 152.173 106.12 152.282C103.119 152.391 100.17 153.1 97.4484 154.368C93.1619 156.426 89.3359 159.33 86.2004 162.904V162.712L106.4 197.752L107.28 199.2L106.912 199.248C107.441 197.789 108.224 196.435 109.224 195.248C109.712 194.669 110.231 194.117 110.776 193.592C111.368 193.12 111.92 192.608 112.544 192.2L113.48 191.592C113.787 191.383 114.111 191.201 114.448 191.048C115.12 190.736 115.752 190.36 116.44 190.12L118.496 189.408L120.592 188.936C121.282 188.781 121.983 188.677 122.688 188.624C123.384 188.56 124.072 188.432 124.76 188.424H126.816C127.491 188.392 128.168 188.408 128.84 188.472L130.824 188.64C131.476 188.671 132.126 188.743 132.768 188.856L136.528 189.488L136.344 189.744C130.608 179.344 125.816 170.632 122.44 164.496C120.768 161.448 119.448 159.032 118.544 157.368L117.52 155.48C117.416 155.272 117.328 155.112 117.264 154.992C117.2 154.872 117.184 154.824 117.184 154.824Z" fill="#263238"/>
<path d="M58.4004 147.696L80.9044 191.016C80.9044 191.016 99.1844 190.216 106.928 199.128L86.0804 162.848C86.0804 162.848 73.8564 147.696 58.4004 147.696Z" fill="#F5F5F5"/>
<path d="M58.3996 147.696H58.9756L60.7036 147.768C60.8956 147.768 61.1036 147.768 61.3116 147.768L61.9756 147.88L63.4796 148.128C64.0623 148.225 64.6372 148.364 65.1996 148.544C65.8515 148.7 66.4951 148.89 67.1276 149.112C72.5036 150.904 79.7196 155.24 86.1996 162.712L107.08 198.968C107.106 199.014 107.113 199.068 107.1 199.119C107.086 199.17 107.053 199.213 107.008 199.24C106.974 199.267 106.931 199.282 106.888 199.282C106.844 199.282 106.802 199.267 106.768 199.24L105.888 198.36C104.215 196.754 102.263 195.466 100.128 194.56C98.0596 193.636 95.9014 192.928 93.6876 192.448C89.4869 191.516 85.1895 191.092 80.8876 191.184C80.8536 191.184 80.8201 191.176 80.7906 191.159C80.7611 191.142 80.7366 191.118 80.7196 191.088C74.1596 178.368 68.5596 167.496 64.5836 159.8C62.6476 156 61.0956 152.96 59.9996 150.864C59.4796 149.848 59.0716 149.056 58.7916 148.464L58.4876 147.864L58.3916 147.664C58.4394 147.731 58.4796 147.804 58.5116 147.88L58.8476 148.496L60.1116 150.896L64.7996 159.872L81.0396 190.928L80.8716 190.832C85.2022 190.727 89.5296 191.146 93.7596 192.08C95.997 192.566 98.179 193.279 100.272 194.208C102.449 195.137 104.438 196.455 106.144 198.096L107.056 198.992L106.728 199.224C98.9916 185.744 91.8316 173.248 85.9276 162.936C83.0356 159.56 79.7265 156.566 76.0796 154.024C73.2965 152.058 70.2612 150.476 67.0556 149.32C66.4259 149.093 65.7851 148.898 65.1356 148.736C64.5791 148.55 64.0095 148.406 63.4316 148.304L61.9356 148.032L61.2876 147.912L60.6956 147.864L58.3996 147.696Z" fill="#263238"/>
<path d="M128.64 270.56L129.12 271.36C129.662 272.261 130.451 272.988 131.392 273.456L132.192 273.872L131.392 274.352C130.494 274.898 129.768 275.685 129.296 276.624L128.88 277.464L128.4 276.664C127.858 275.763 127.07 275.036 126.128 274.568L125.288 274.152L126.088 273.672C126.991 273.132 127.719 272.343 128.184 271.4L128.64 270.56Z" fill="#407BFF"/>
<path d="M84.2877 105.544L84.7677 106.344C85.3105 107.242 86.0988 107.967 87.0397 108.432L87.8397 108.848L87.0397 109.336C86.1355 109.874 85.4072 110.663 84.9437 111.608L84.5277 112.408L84.0477 111.608C83.5047 110.705 82.7132 109.977 81.7677 109.512L80.9277 109.096L81.7277 108.616C82.6268 108.068 83.3533 107.278 83.8237 106.336L84.2877 105.544Z" fill="#407BFF"/>
<path d="M289.552 134.016L290.032 134.816C290.575 135.719 291.367 136.447 292.312 136.912L293.152 137.328L292.352 137.808C291.453 138.354 290.729 139.145 290.264 140.088L289.848 140.888L289.36 140.088C288.82 139.188 288.031 138.463 287.088 138L286.24 137.6L287.04 137.112C287.944 136.574 288.673 135.785 289.136 134.84L289.552 134.016Z" fill="#407BFF"/>
<path d="M265.312 280.92L265.792 281.72C266.337 282.619 267.128 283.343 268.072 283.808L268.912 284.224L268.112 284.712C267.211 285.255 266.484 286.043 266.016 286.984L265.608 287.824L265.12 287.024C264.58 286.121 263.791 285.393 262.848 284.928L262.008 284.512L262.808 284.032C263.711 283.489 264.439 282.697 264.904 281.752L265.312 280.92Z" fill="#407BFF"/>
<path d="M269.928 311.792L270.16 311.888C270.414 311.987 270.691 312.015 270.96 311.968L271.208 311.92L271.112 312.152C271.013 312.406 270.985 312.683 271.032 312.952L271.08 313.2L270.848 313.104C270.593 313.005 270.317 312.978 270.048 313.024L269.8 313.072L269.896 312.84C269.995 312.586 270.023 312.309 269.976 312.04L269.928 311.792Z" fill="#407BFF"/>
<path d="M283.888 103.048L284.112 103.144C284.366 103.242 284.643 103.269 284.912 103.224L285.152 103.176L285.064 103.408C284.961 103.661 284.933 103.939 284.984 104.208L285.032 104.456L284.8 104.36C284.545 104.262 284.269 104.234 284 104.28L283.76 104.328L283.848 104.096C283.951 103.842 283.978 103.565 283.928 103.296L283.888 103.048Z" fill="#407BFF"/>
<path d="M93.3038 84L93.5358 84.088C93.7892 84.191 94.067 84.2187 94.3358 84.168H94.5838L94.4878 84.392C94.3898 84.6467 94.3622 84.923 94.4078 85.192L94.4558 85.432L94.2238 85.344C93.9703 85.241 93.6926 85.2133 93.4238 85.264H93.1758L93.2718 85.04C93.3698 84.7853 93.3974 84.509 93.3518 84.24L93.3038 84Z" fill="#407BFF"/>
<path d="M116.8 246.528L117.032 246.616C117.284 246.723 117.563 246.751 117.832 246.696L118.08 246.656L117.984 246.888C117.885 247.142 117.857 247.419 117.904 247.688L117.952 247.928L117.72 247.84C117.466 247.737 117.189 247.709 116.92 247.76L116.672 247.808L116.768 247.576C116.866 247.321 116.893 247.045 116.848 246.776L116.8 246.528Z" fill="#407BFF"/>
<path d="M142.327 309.352L142.103 309.584L141.439 310.248L138.855 312.8L129.255 322.056V321.96C129.759 332 130.399 345.6 131.071 360.8V361.136L130.783 360.952L127.319 358.632L105.367 343.936H105.319V343.888C102.039 334.104 99.2793 325.848 97.3193 320.024C96.3593 317.128 95.6073 314.84 95.0793 313.256L94.5033 311.456C94.4393 311.264 94.3913 311.112 94.3593 311C94.3593 310.888 94.3113 310.84 94.3193 310.84L94.3833 310.984L94.5513 311.44C94.6953 311.864 94.9033 312.456 95.1753 313.224L97.4953 319.968C99.4793 325.784 102.295 334.016 105.607 343.784L105.543 343.704L127.519 358.376L130.983 360.688L130.711 360.84C130.063 345.64 129.479 332.04 129.047 321.984V321.928H129.087L138.751 312.76L141.383 310.288L142.071 309.656C142.239 309.416 142.327 309.352 142.327 309.352Z" fill="#407BFF"/>
<path d="M132.104 356.2L132.032 358.464L133.864 359.808L131.688 360.44L130.976 362.592L129.696 360.72L127.432 360.712L128.824 358.92L128.128 356.76L130.264 357.528L132.104 356.2Z" fill="#407BFF"/>
<path d="M105.655 340.832L105.703 342.296L106.935 343.096L105.551 343.584L105.175 345.008L104.279 343.848L102.815 343.928L103.639 342.712L103.111 341.344L104.519 341.76L105.655 340.832Z" fill="#407BFF"/>
<path d="M94.2631 308.088L95.3672 309.512L97.1672 309.4L96.1591 310.896L96.8152 312.568L95.0871 312.072L93.6951 313.216L93.6311 311.416L92.1191 310.448L93.8071 309.832L94.2631 308.088Z" fill="#407BFF"/>
<path d="M141.216 306.672L142.328 308.088L144.12 307.984L143.112 309.472L143.768 311.152L142.04 310.648L140.648 311.792L140.592 309.992L139.072 309.024L140.768 308.408L141.216 306.672Z" fill="#407BFF"/>
<path d="M128.896 320.384L129.6 321.296L130.744 321.224L130.104 322.176L130.52 323.248L129.416 322.928L128.528 323.656L128.488 322.512L127.52 321.888L128.6 321.496L128.896 320.384Z" fill="#407BFF"/>
<path d="M86.5516 259.88C95.3617 259.88 102.504 252.738 102.504 243.928C102.504 235.118 95.3617 227.976 86.5516 227.976C77.7416 227.976 70.5996 235.118 70.5996 243.928C70.5996 252.738 77.7416 259.88 86.5516 259.88Z" fill="#407BFF"/>
<g opacity="0.3">
<path opacity="0.3" d="M84.4797 248.904C84.4812 249.42 84.3294 249.926 84.0435 250.356C83.7575 250.786 83.3503 251.122 82.8734 251.32C82.3965 251.518 81.8715 251.571 81.3648 251.47C80.8582 251.37 80.3928 251.121 80.0275 250.756C79.6623 250.391 79.4138 249.925 79.3134 249.419C79.213 248.912 79.2653 248.387 79.4637 247.91C79.6621 247.433 79.9976 247.026 80.4277 246.74C80.8578 246.454 81.3632 246.302 81.8797 246.304C82.5686 246.306 83.2287 246.581 83.7158 247.068C84.2029 247.555 84.4776 248.215 84.4797 248.904Z" fill="white"/>
</g>
<g opacity="0.3">
<path opacity="0.3" d="M80.7998 241.4C80.8013 241.701 80.7135 241.996 80.5475 242.247C80.3814 242.498 80.1446 242.694 79.867 242.81C79.5894 242.926 79.2835 242.957 78.9881 242.9C78.6928 242.842 78.4212 242.698 78.2078 242.486C77.9944 242.273 77.8489 242.003 77.7896 241.707C77.7303 241.412 77.7599 241.106 77.8747 240.828C77.9895 240.55 78.1843 240.312 78.4345 240.145C78.6846 239.977 78.9788 239.888 79.2797 239.888C79.6815 239.888 80.0669 240.047 80.3517 240.33C80.6366 240.614 80.7976 240.998 80.7998 241.4Z" fill="white"/>
</g>
<path d="M71.0717 247.808C71.1437 248.088 57.4157 261.256 60.9597 264.064C64.5037 266.872 79.3597 259.672 92.0717 249.424C104.784 239.176 116.352 226.728 113.176 223.432C110 220.136 94.1437 229.888 94.1437 229.888L96.0397 231.104C96.0397 231.104 105.64 224.952 108.664 227.336C111.688 229.72 103.064 239.048 90.8477 247.96C78.6317 256.872 66.8477 263.112 65.0317 260.672C63.2157 258.232 71.8317 250.096 71.8317 250.096L71.0717 247.808Z" fill="#407BFF"/>
<g opacity="0.3">
<path opacity="0.3" d="M71.0717 247.808C71.1437 248.088 57.4157 261.256 60.9597 264.064C64.5037 266.872 79.3597 259.672 92.0717 249.424C104.784 239.176 116.352 226.728 113.176 223.432C110 220.136 94.1437 229.888 94.1437 229.888L96.0397 231.104C96.0397 231.104 105.64 224.952 108.664 227.336C111.688 229.72 103.064 239.048 90.8477 247.96C78.6317 256.872 66.8477 263.112 65.0317 260.672C63.2157 258.232 71.8317 250.096 71.8317 250.096L71.0717 247.808Z" fill="black"/>
</g>
<g opacity="0.3">
<path opacity="0.3" d="M77.76 232.688C77.888 232.84 76.808 233.76 75.584 235.6C73.9602 237.964 73.0645 240.752 73.0076 243.62C72.9507 246.488 73.7352 249.309 75.264 251.736C76.416 253.632 77.456 254.592 77.32 254.736C77.184 254.88 75.96 254.112 74.536 252.224C73.7136 251.119 73.061 249.898 72.6 248.6C71.4327 245.369 71.5039 241.821 72.8 238.64C73.3103 237.358 74.0116 236.16 74.88 235.088C76.376 233.264 77.688 232.576 77.76 232.688Z" fill="white"/>
</g>
<path d="M271.49 103.953C276.73 98.9173 276.896 90.5865 271.86 85.346C266.824 80.1054 258.493 79.9397 253.253 84.9757C248.012 90.0117 247.846 98.3425 252.882 103.583C257.918 108.824 266.249 108.989 271.49 103.953Z" fill="#407BFF"/>
<g opacity="0.4">
<path opacity="0.4" d="M266.664 89.44C266.673 89.0161 266.809 88.6045 267.052 88.2574C267.295 87.9103 267.636 87.6431 268.032 87.4897C268.427 87.3363 268.859 87.3036 269.273 87.3956C269.687 87.4876 270.064 87.7003 270.357 88.0068C270.65 88.3132 270.846 88.6997 270.919 89.1172C270.992 89.5348 270.94 89.9648 270.769 90.3528C270.598 90.7409 270.316 91.0695 269.959 91.2972C269.601 91.5248 269.184 91.6413 268.76 91.632C268.478 91.6268 268.2 91.5658 267.942 91.4527C267.683 91.3395 267.45 91.1763 267.255 90.9725C267.06 90.7687 266.908 90.5284 266.806 90.2654C266.705 90.0023 266.656 89.7218 266.664 89.44Z" fill="black"/>
</g>
<g opacity="0.4">
<path opacity="0.4" d="M270.952 94.4479C270.956 94.1992 271.035 93.9576 271.177 93.7536C271.32 93.5496 271.519 93.3925 271.751 93.3021C271.983 93.2118 272.236 93.1922 272.479 93.246C272.722 93.2998 272.943 93.4245 273.115 93.6043C273.287 93.784 273.402 94.0108 273.445 94.2558C273.487 94.5008 273.457 94.753 273.356 94.9805C273.255 95.2079 273.089 95.4004 272.879 95.5334C272.669 95.6665 272.424 95.7342 272.176 95.7279C272.011 95.7248 271.849 95.6891 271.698 95.623C271.547 95.5569 271.411 95.4616 271.297 95.3426C271.183 95.2237 271.094 95.0834 271.035 94.9298C270.976 94.7762 270.947 94.6125 270.952 94.4479Z" fill="black"/>
</g>
<g opacity="0.4">
<path opacity="0.4" d="M269.28 98.2879C269.34 98.2878 269.399 98.2999 269.455 98.3234C269.51 98.347 269.56 98.3814 269.602 98.4247C269.644 98.468 269.677 98.5193 269.698 98.5755C269.72 98.6317 269.73 98.6917 269.728 98.7519C269.723 98.8743 269.672 98.9903 269.584 99.0753C269.496 99.1604 269.378 99.208 269.256 99.2079C269.134 99.2037 269.019 99.1519 268.935 99.0636C268.851 98.9753 268.806 98.8576 268.808 98.7359C268.809 98.6753 268.822 98.6155 268.846 98.5601C268.871 98.5046 268.906 98.4546 268.95 98.4129C268.994 98.3711 269.045 98.3386 269.102 98.3172C269.159 98.2957 269.219 98.2857 269.28 98.2879Z" fill="black"/>
</g>
</svg>
