<svg width="375" height="439" viewBox="0 0 375 439" fill="none" xmlns="http://www.w3.org/2000/svg">
<path d="M268.2 257.35H326.715V330.49H268.2C262.538 330.49 257.91 325.863 257.91 320.2V267.64C257.91 261.985 262.538 257.35 268.2 257.35Z" fill="#F0F0F0"/>
<path d="M326.228 257.35H327.195C332.858 257.35 337.485 261.978 337.485 267.64V320.2C337.485 325.863 332.858 330.49 327.195 330.49H326.228C320.565 330.49 315.938 325.863 315.938 320.2V267.64C315.938 261.985 320.573 257.35 326.228 257.35Z" fill="#F5F5F5"/>
<path d="M318.878 284.327H190.688V330.49H318.878V284.327Z" fill="#F0F0F0"/>
<path d="M325.155 332.8H135.69C134.527 332.8 133.582 331.855 133.582 330.693V330.498H268.177L327.27 330.693C327.262 331.855 326.317 332.8 325.155 332.8Z" fill="#E0E0E0"/>
<path d="M270.81 227.005H147.93C140.002 227.005 133.582 233.432 133.582 241.352V294.76H285.165V241.352C285.157 233.432 278.73 227.005 270.81 227.005Z" fill="#E0E0E0"/>
<path d="M282.03 227.005H157.77C150.225 227.005 144.112 233.117 144.112 240.662V294.767H295.695V240.662C295.695 233.117 289.575 227.005 282.03 227.005Z" fill="#F5F5F5"/>
<path d="M312.757 280.112H200.445C196.867 280.112 193.965 283.015 193.965 286.592V292.435C193.965 296.012 196.867 298.915 200.445 298.915H312.757C317.947 298.915 322.155 294.707 322.155 289.517C322.155 284.32 317.947 280.112 312.757 280.112Z" fill="#E0E0E0"/>
<path d="M131.835 257.35H190.35V330.49H131.835C126.172 330.49 121.545 325.863 121.545 320.2V267.64C121.545 261.985 126.18 257.35 131.835 257.35Z" fill="#F0F0F0"/>
<path d="M189.87 257.35H190.838C196.5 257.35 201.128 261.978 201.128 267.64V320.2C201.128 325.863 196.5 330.49 190.838 330.49H189.87C184.208 330.49 179.58 325.863 179.58 320.2V267.64C179.58 261.985 184.208 257.35 189.87 257.35Z" fill="#F5F5F5"/>
<path d="M300.795 115.382H247.822V193.277H300.795V115.382Z" fill="#E0E0E0"/>
<path d="M303.982 115.382H249.27V193.277H303.982V115.382Z" fill="#F5F5F5"/>
<path d="M299.4 121.525H253.853V187.142H299.4V121.525Z" fill="white"/>
<path d="M270.96 157.502V162.497C277.222 162.497 282.3 157.42 282.3 151.157V146.162C276.03 146.17 270.96 151.247 270.96 157.502Z" fill="#F5F5F5"/>
<path d="M270.96 140.657V145.652C277.222 145.652 282.3 140.575 282.3 134.312V129.317C276.03 129.317 270.96 134.395 270.96 140.657Z" fill="#F5F5F5"/>
<path d="M270.96 174.355V179.35C277.222 179.35 282.3 174.272 282.3 168.01V163.015C276.03 163.015 270.96 168.092 270.96 174.355Z" fill="#F5F5F5"/>
<path d="M222.119 121.525H49.124V176.485H222.119V121.525Z" fill="#EBEBEB"/>
<path d="M49.1245 121.525H48.082V176.485H49.1245V121.525Z" fill="#E0E0E0"/>
<path d="M213.592 130.052H57.6523V167.957H213.592V130.052Z" fill="#F5F5F5"/>
<path d="M95.0248 167.957H82.0723L92.2123 130.052H105.165L95.0248 167.957Z" fill="white"/>
<path d="M107.07 167.957H99.5771L109.717 130.052H117.21L107.07 167.957Z" fill="white"/>
<path d="M172.267 167.957H164.774L174.914 130.052H182.407L172.267 167.957Z" fill="white"/>
<path d="M116.49 269.942H74.5572L69.3672 212.972H111.307L116.49 269.942Z" fill="#E6E6E6"/>
<path d="M118.664 269.942H76.7245L71.542 212.972H113.482L118.664 269.942Z" fill="#F0F0F0"/>
<path d="M82.4624 263.635L78.4199 219.28H107.745L111.78 263.635H82.4624Z" fill="white"/>
<path d="M147.922 269.942H142.274V332.8H147.922V269.942Z" fill="#E6E6E6"/>
<path d="M149.7 269.942H145.777V332.8H149.7V269.942Z" fill="#F5F5F5"/>
<path d="M150.915 269.942H91.3203V276.88H150.915V269.942Z" fill="#F5F5F5"/>
<path d="M88.792 276.88H83.1445V332.8H88.792V276.88Z" fill="#E6E6E6"/>
<path d="M90.5778 276.88H86.6553V332.8H90.5778V276.88Z" fill="#F5F5F5"/>
<path d="M53.0625 276.88H47.415V332.8H53.0625V276.88Z" fill="#E6E6E6"/>
<path d="M54.8473 276.88H50.9248V332.8H54.8473V276.88Z" fill="#F5F5F5"/>
<path d="M112.192 276.88H106.545V332.8H112.192V276.88Z" fill="#E6E6E6"/>
<path d="M113.97 276.88H110.048V332.8H113.97V276.88Z" fill="#F5F5F5"/>
<path d="M91.32 269.942H47.415V276.88H91.32V269.942Z" fill="#E6E6E6"/>
<path d="M201.54 155.17C160.56 197.822 67.1848 158.717 64.6348 242.05C62.1973 321.895 166.312 317.897 218.16 300.85C278.272 281.087 325.935 226.18 307.102 160.9C299.827 135.692 283.515 111.205 255.66 106.96C211.147 100.18 223.26 132.565 201.54 155.17Z" fill="#407BFF"/>
<path opacity="0.9" d="M201.54 155.17C160.56 197.822 67.1848 158.717 64.6348 242.05C62.1973 321.895 166.312 317.897 218.16 300.85C278.272 281.087 325.935 226.18 307.102 160.9C299.827 135.692 283.515 111.205 255.66 106.96C211.147 100.18 223.26 132.565 201.54 155.17Z" fill="white"/>
<path d="M187.5 366.67C267.812 366.67 332.918 362.869 332.918 358.18C332.918 353.491 267.812 349.69 187.5 349.69C107.189 349.69 42.083 353.491 42.083 358.18C42.083 362.869 107.189 366.67 187.5 366.67Z" fill="#F5F5F5"/>
<path d="M246.27 147.985C243.405 146.192 235.177 147.97 236.55 157.007C237.922 166.045 227.317 163.697 229.627 174.175C231.937 184.652 250.68 200.2 262.222 189.64C273.765 179.08 264.037 174.422 264.255 161.89C264.375 154.435 261 141.1 246.27 147.985Z" fill="#263238"/>
<path d="M263.28 189.183C263.227 189.183 263.182 189.168 263.145 189.123C263.07 189.048 263.07 188.928 263.145 188.853C270.255 181.788 268.612 177.483 266.535 172.038C265.387 169.03 264.082 165.618 263.977 161.185C263.865 156.408 262.117 149.868 257.565 147.183C254.34 145.27 250.2 145.6 245.265 148.165C245.167 148.21 245.055 148.18 245.002 148.083C244.95 147.985 244.987 147.873 245.085 147.82C250.147 145.195 254.407 144.873 257.76 146.853C262.447 149.628 264.247 156.303 264.36 161.178C264.465 165.543 265.755 168.925 266.895 171.903C269.025 177.483 270.705 181.885 263.415 189.13C263.377 189.16 263.325 189.183 263.28 189.183Z" fill="#263238"/>
<path d="M264.915 188.155C264.907 188.133 265.035 188.328 265.117 188.44L265.425 188.845C265.642 189.123 265.875 189.4 266.122 189.678C266.617 190.233 267.157 190.765 267.727 191.283C268.852 192.325 270.105 193.285 271.447 194.14C272.797 194.973 274.185 195.79 275.67 196.458C276.39 196.825 277.162 197.11 277.905 197.448C278.047 197.508 277.92 197.47 277.815 197.508C277.695 197.538 277.635 197.62 277.717 197.568C277.875 197.493 278.272 197.013 278.572 196.42C278.887 195.82 279.157 195.108 279.42 194.373C279.93 192.88 280.297 191.245 280.642 189.603C280.98 187.953 281.242 186.258 281.475 184.555C281.73 182.86 281.917 181.128 282.105 179.44L285.157 179.455C285.412 183.055 285.39 186.595 285.082 190.225C284.932 192.04 284.677 193.863 284.235 195.738C284.01 196.675 283.717 197.628 283.297 198.618C282.855 199.6 282.345 200.673 281.16 201.73C280.575 202.248 279.705 202.735 278.722 202.908C277.747 203.095 276.727 202.923 276.052 202.675C275.175 202.36 274.275 202.098 273.405 201.738C271.657 201.055 269.947 200.23 268.297 199.27C266.655 198.288 265.072 197.17 263.595 195.88C262.86 195.228 262.162 194.523 261.495 193.773C261.157 193.398 260.835 193 260.512 192.588L260.047 191.928C259.882 191.68 259.77 191.508 259.537 191.103L264.915 188.155Z" fill="#FFC3BD"/>
<path d="M263.887 185.38C270.9 189.858 270.33 192.618 270.33 192.618L265.927 199C265.927 199 254.692 194.493 253.98 190.968C253.237 187.285 260.482 183.205 263.887 185.38Z" fill="#263238"/>
<path opacity="0.1" d="M263.887 185.38C270.9 189.858 270.33 192.618 270.33 192.618L265.927 199C265.927 199 254.692 194.493 253.98 190.968C253.237 187.285 260.482 183.205 263.887 185.38Z" fill="white"/>
<path d="M270.712 191.98C270.982 192.168 271.05 192.543 270.862 192.82L266.347 199.278C266.16 199.548 265.785 199.615 265.507 199.428C265.237 199.24 265.17 198.865 265.357 198.588L269.872 192.13C270.067 191.86 270.442 191.793 270.712 191.98Z" fill="#407BFF"/>
<path d="M282.623 180.917L279.143 176.267L285.818 174.542C285.818 174.542 287.175 178.682 284.955 181.72L282.623 180.917Z" fill="#FFC3BD"/>
<path d="M279.33 170.553L284.888 169.615L285.818 174.55L279.143 176.268L279.33 170.553Z" fill="#FFC3BD"/>
<path d="M222.78 351.7L229.14 352.315L233.685 337.36L227.325 336.745L222.78 351.7Z" fill="#FFC3BD"/>
<path d="M182.317 329.598L187.035 334.023L197.22 322.833L192.502 318.408L182.317 329.598Z" fill="#FFC3BD"/>
<path d="M189.217 331.9L185.67 325.51C185.542 325.278 185.272 325.18 185.032 325.27L179.572 327.348C179.01 327.565 178.762 328.293 179.07 328.818C180.345 331.023 181.072 332.02 182.632 334.833C183.592 336.558 185.46 340.525 186.78 342.91C188.077 345.243 190.537 344.11 190.2 343C188.685 338.013 188.97 335.238 189.397 333.033C189.472 332.65 189.405 332.245 189.217 331.9Z" fill="#263238"/>
<path d="M229.897 350.373H222.187C221.91 350.373 221.655 350.568 221.58 350.845L219.9 356.95C219.727 357.58 220.192 358.165 220.837 358.173C223.552 358.195 224.842 358.188 228.232 358.188C230.317 358.188 235.717 358.188 238.597 358.188C241.417 358.188 242.002 355.338 240.84 355.083C235.612 353.928 232.597 352.33 230.985 350.808C230.7 350.515 230.31 350.373 229.897 350.373Z" fill="#263238"/>
<path opacity="0.2" d="M233.685 337.368L231.345 345.07H224.79L227.325 336.753L233.685 337.368Z" fill="black"/>
<path opacity="0.2" d="M192.502 318.408L197.219 322.84L191.969 328.608L187.252 324.175L192.502 318.408Z" fill="black"/>
<path d="M263.887 185.38C263.887 185.38 266.437 187.12 250.275 222.228C240.172 219.43 229.74 216.543 224.827 215.185C228.12 204.948 229.905 198.565 230.835 175.938C230.835 175.938 236.49 176.252 242.04 177.505C246.382 178.487 249.93 179.32 253.597 180.708C258.435 182.523 263.887 185.38 263.887 185.38Z" fill="#263238"/>
<path opacity="0.1" d="M263.887 185.38C263.887 185.38 266.437 187.12 250.275 222.228C240.172 219.43 229.74 216.543 224.827 215.185C228.12 204.948 229.905 198.565 230.835 175.938C230.835 175.938 236.49 176.252 242.04 177.505C246.382 178.487 249.93 179.32 253.597 180.708C258.435 182.523 263.887 185.38 263.887 185.38Z" fill="white"/>
<path d="M246.787 164.8C246.487 168.723 245.325 175.735 242.04 177.498C242.04 177.498 240.127 184 248.43 186.393C255.45 188.41 253.597 180.7 253.597 180.7C249.727 178.563 252.12 174.775 252.825 170.538L246.787 164.8Z" fill="#FFC3BD"/>
<path opacity="0.2" d="M246.779 164.808C246.539 167.958 245.744 173.11 243.734 175.923C246.074 176.155 249.764 175.435 250.814 173.695C251.092 173.245 251.639 171.535 252.112 169.863L246.779 164.808Z" fill="black"/>
<path d="M257.077 159.123C257.062 165.573 257.189 168.31 254.137 171.798C249.547 177.048 241.619 175.615 239.707 169.285C237.989 163.585 238.304 153.993 244.447 151.068C250.507 148.188 257.092 152.673 257.077 159.123Z" fill="#FFC3BD"/>
<path d="M243.735 155.545C247.358 160.608 259.545 167.643 260.363 160.863C261.18 154.083 254.955 147.385 248.798 148.03C242.633 148.675 240.653 151.24 243.735 155.545Z" fill="#263238"/>
<path d="M259.748 165.145C259.17 166.353 258.083 167.178 257.04 167.523C255.473 168.04 254.61 166.66 254.978 165.138C255.308 163.765 256.53 161.845 258.135 161.988C259.725 162.123 260.415 163.773 259.748 165.145Z" fill="#FFC3BD"/>
<path d="M250.275 222.228C250.275 222.228 259.335 258.925 253.395 286.69C249.412 305.283 235.065 342.843 235.065 342.843L223.845 342.558C223.845 342.558 234.712 303.145 236.955 287.643C240.795 261.13 231.645 217.075 231.645 217.075L250.275 222.228Z" fill="#407BFF"/>
<path opacity="0.2" d="M240.172 227.5L234.562 236.35C235.987 245.523 237.412 257.005 237.772 268.045C245.662 253.922 241.927 234.978 240.172 227.5Z" fill="black"/>
<path d="M237.068 343.42L222.78 343.067L223.74 337.982L238.11 339.062L237.068 343.42Z" fill="#263238"/>
<path d="M244.695 220.765C244.695 220.765 239.46 260.89 228.134 283.69C218.992 302.103 194.594 328.315 194.594 328.315L188.354 321.888C188.354 321.888 204.832 293.403 211.627 281.17C228.292 251.178 213.517 224.283 224.82 215.185L244.695 220.765Z" fill="#407BFF"/>
<path d="M195.232 329.178L187.185 321.325L189.855 317.695L198.63 326.763L195.232 329.178Z" fill="#263238"/>
<path d="M224.858 213.58L223.08 215.538C222.945 215.688 223.103 215.928 223.395 216.01L250.088 223.398C250.32 223.458 250.538 223.405 250.59 223.263L251.453 221.05C251.513 220.9 251.348 220.705 251.1 220.638L225.33 213.505C225.135 213.453 224.948 213.483 224.858 213.58Z" fill="#407BFF"/>
<path opacity="0.5" d="M224.858 213.58L223.08 215.538C222.945 215.688 223.103 215.928 223.395 216.01L250.088 223.398C250.32 223.458 250.538 223.405 250.59 223.263L251.453 221.05C251.513 220.9 251.348 220.705 251.1 220.638L225.33 213.505C225.135 213.453 224.948 213.483 224.858 213.58Z" fill="white"/>
<path d="M227.52 217.42L226.83 217.233C226.695 217.195 226.605 217.098 226.642 217.008L227.782 214.135C227.812 214.053 227.955 214.015 228.09 214.053L228.78 214.24C228.915 214.278 229.005 214.375 228.967 214.465L227.827 217.338C227.797 217.42 227.662 217.458 227.52 217.42Z" fill="#407BFF"/>
<path d="M248.077 223.113L247.387 222.918C247.252 222.88 247.162 222.783 247.2 222.693L248.34 219.82C248.37 219.738 248.512 219.7 248.647 219.738L249.337 219.925C249.472 219.963 249.562 220.06 249.525 220.15L248.385 223.023C248.355 223.113 248.212 223.15 248.077 223.113Z" fill="#407BFF"/>
<path d="M237.802 220.27L237.112 220.083C236.977 220.045 236.887 219.948 236.925 219.858L238.065 216.985C238.095 216.903 238.237 216.865 238.372 216.903L239.062 217.09C239.197 217.128 239.287 217.225 239.25 217.315L238.11 220.188C238.08 220.27 237.937 220.308 237.802 220.27Z" fill="#407BFF"/>
<path d="M246.866 162.485C247.21 162.464 247.463 162.022 247.432 161.497C247.402 160.972 247.098 160.563 246.755 160.583C246.412 160.603 246.159 161.045 246.189 161.57C246.22 162.095 246.523 162.505 246.866 162.485Z" fill="#263238"/>
<path d="M240.96 162.826C241.304 162.806 241.557 162.364 241.526 161.839C241.495 161.314 241.191 160.904 240.848 160.925C240.505 160.945 240.252 161.387 240.283 161.912C240.314 162.437 240.617 162.847 240.96 162.826Z" fill="#263238"/>
<path d="M240.991 160.945L239.708 160.66C239.716 160.66 240.413 161.605 240.991 160.945Z" fill="#263238"/>
<path d="M243.128 162.647C243.128 162.647 242.37 164.95 241.455 166.097C242.183 166.705 243.345 166.337 243.345 166.337L243.128 162.647Z" fill="#ED847E"/>
<path d="M246.263 168.123C245.97 168.198 245.655 168.25 245.31 168.273C245.243 168.28 245.183 168.22 245.175 168.153C245.168 168.085 245.228 168.018 245.295 168.018C247.605 167.883 248.595 166.203 248.603 166.188C248.64 166.128 248.715 166.105 248.775 166.143C248.835 166.18 248.858 166.255 248.82 166.315C248.79 166.368 248.025 167.665 246.263 168.123Z" fill="#263238"/>
<path d="M249.39 157.667C249.307 157.69 249.21 157.667 249.15 157.6C248.152 156.625 247.042 156.85 246.997 156.865C246.862 156.895 246.72 156.805 246.69 156.67C246.66 156.535 246.742 156.4 246.885 156.362C246.945 156.347 248.31 156.062 249.502 157.232C249.6 157.33 249.607 157.495 249.51 157.592C249.48 157.63 249.435 157.652 249.39 157.667Z" fill="#263238"/>
<path d="M238.935 158.425C238.853 158.463 238.755 158.455 238.68 158.395C238.568 158.313 238.545 158.148 238.628 158.035C239.625 156.685 241.02 156.76 241.08 156.76C241.223 156.768 241.328 156.888 241.32 157.03C241.313 157.173 241.193 157.278 241.05 157.27C241.005 157.27 239.873 157.225 239.04 158.343C239.003 158.38 238.973 158.41 238.935 158.425Z" fill="#263238"/>
<path d="M231.427 185.598C230.774 186.588 230.174 187.375 229.514 188.223C228.862 189.048 228.194 189.85 227.504 190.638C226.117 192.205 224.647 193.683 223.094 195.093C221.549 196.503 219.922 197.838 218.189 199.045C217.342 199.675 216.434 200.223 215.549 200.793L214.169 201.588L213.479 201.978C213.224 202.113 212.894 202.293 212.579 202.42C211.312 202.99 209.684 203.283 208.139 203.005C206.587 202.743 205.289 201.993 204.284 201.175C203.264 200.35 202.507 199.42 201.839 198.483C201.187 197.545 200.624 196.593 200.152 195.618C198.277 191.725 197.174 187.81 196.484 183.7L199.454 183.01C200.077 184.795 200.774 186.64 201.562 188.38C202.327 190.135 203.182 191.838 204.164 193.375C205.132 194.898 206.257 196.323 207.404 197.11C207.974 197.508 208.499 197.695 208.919 197.718C209.347 197.74 209.759 197.658 210.284 197.388C210.427 197.32 210.524 197.253 210.704 197.148L211.289 196.765L212.452 196C213.202 195.445 213.974 194.928 214.702 194.335C216.179 193.195 217.582 191.935 218.947 190.645C220.312 189.348 221.602 187.96 222.839 186.535C223.462 185.823 224.069 185.103 224.654 184.368C225.217 183.648 225.832 182.853 226.297 182.193L231.427 185.598Z" fill="#FFC3BD"/>
<path d="M200.077 185.785L200.737 178.788L194.452 181.36C194.452 181.36 195.202 184.878 197.595 186.138L200.077 185.785Z" fill="#FFC3BD"/>
<path d="M198.727 175.008L193.859 173.95L194.444 181.36L200.737 178.788L198.727 175.008Z" fill="#FFC3BD"/>
<path d="M230.834 175.93C227.557 175.9 219.659 188.44 219.659 188.44L225.239 194.215C225.239 194.215 235.717 187.135 236.144 182.943C236.512 179.38 235.004 175.968 230.834 175.93Z" fill="#263238"/>
<path opacity="0.1" d="M230.834 175.93C227.557 175.9 219.659 188.44 219.659 188.44L225.239 194.215C225.239 194.215 235.717 187.135 236.144 182.943C236.512 179.38 235.004 175.968 230.834 175.93Z" fill="white"/>
<path d="M225.757 194.47C225.524 194.71 225.142 194.71 224.909 194.478L219.284 188.958C219.044 188.725 219.044 188.343 219.277 188.11C219.509 187.87 219.892 187.87 220.124 188.103L225.749 193.623C225.989 193.848 225.989 194.23 225.757 194.47Z" fill="#407BFF"/>
<path d="M190.462 335.335C190.65 335.335 190.837 335.268 191.025 335.125C191.227 334.975 191.257 334.795 191.242 334.668C191.175 333.858 189.112 332.755 188.88 332.628C188.835 332.605 188.782 332.613 188.737 332.643C188.7 332.673 188.677 332.725 188.692 332.778C188.925 333.603 189.435 335.035 190.2 335.29C190.29 335.32 190.372 335.335 190.462 335.335ZM189.03 333.003C189.735 333.408 190.942 334.188 190.987 334.69C190.995 334.75 190.987 334.833 190.867 334.923C190.665 335.073 190.477 335.118 190.29 335.058C189.855 334.9 189.39 334.143 189.03 333.003Z" fill="#407BFF"/>
<path d="M190.777 333.325C191.167 333.325 191.505 333.258 191.7 333.093C191.805 333.003 191.955 332.808 191.82 332.463C191.73 332.238 191.565 332.088 191.34 332.005C190.462 331.69 188.827 332.59 188.76 332.628C188.722 332.65 188.692 332.688 188.692 332.74C188.692 332.785 188.715 332.83 188.752 332.853C189.15 333.093 190.05 333.325 190.777 333.325ZM190.905 332.193C191.032 332.193 191.152 332.208 191.257 332.245C191.415 332.305 191.527 332.403 191.587 332.553C191.67 332.755 191.602 332.838 191.542 332.89C191.16 333.213 189.81 333.033 189.105 332.733C189.487 332.553 190.297 332.193 190.905 332.193Z" fill="#407BFF"/>
<path d="M233.318 351.618C233.91 351.618 234.458 351.528 234.81 351.265C235.043 351.085 235.178 350.845 235.193 350.545C235.208 350.328 235.103 350.208 235.013 350.148C234.308 349.668 231.51 350.965 231.195 351.115C231.143 351.138 231.12 351.19 231.12 351.243C231.128 351.295 231.165 351.34 231.218 351.355C231.773 351.475 232.575 351.618 233.318 351.618ZM234.548 350.29C234.683 350.29 234.788 350.313 234.863 350.358C234.9 350.38 234.938 350.425 234.93 350.53C234.915 350.755 234.825 350.928 234.653 351.063C234.023 351.543 232.485 351.34 231.653 351.183C232.613 350.755 233.903 350.29 234.548 350.29Z" fill="#407BFF"/>
<path d="M231.241 351.355C231.256 351.355 231.271 351.355 231.286 351.348C232.126 351.003 233.896 349.585 233.798 348.88C233.776 348.73 233.671 348.543 233.296 348.498C231.788 348.325 231.143 351.078 231.113 351.198C231.106 351.243 231.121 351.295 231.158 351.325C231.181 351.348 231.211 351.355 231.241 351.355ZM233.161 348.745C233.198 348.745 233.228 348.745 233.266 348.753C233.528 348.783 233.543 348.888 233.551 348.918C233.611 349.368 232.351 350.515 231.436 350.995C231.623 350.35 232.193 348.745 233.161 348.745Z" fill="#407BFF"/>
<path d="M246.907 160.6L245.625 160.308C245.632 160.315 246.33 161.26 246.907 160.6Z" fill="#263238"/>
<path d="M114.383 354.783L199.208 347.373C204.945 346.87 209.228 341.77 208.725 336.033L191.048 133.69C190.545 127.953 185.445 123.67 179.708 124.173L94.8828 131.583C89.1453 132.085 84.8628 137.185 85.3653 142.923L103.043 345.265C103.538 350.995 108.645 355.285 114.383 354.783Z" fill="#407BFF"/>
<path d="M91.7251 202.668C93.3601 202.525 94.5751 201.07 94.4326 199.443L92.1001 172.72C91.9576 171.085 90.5026 169.87 88.8751 170.013C87.2401 170.155 86.0251 171.61 86.1676 173.238L88.5001 199.96C88.6426 201.588 90.0901 202.81 91.7251 202.668Z" fill="#407BFF"/>
<path d="M195.315 181.578L196.358 181.488C197.573 181.383 198.473 180.303 198.368 179.095L196.943 162.79C196.838 161.575 195.758 160.675 194.55 160.78L193.508 160.87C192.293 160.975 191.393 162.055 191.498 163.263L192.923 179.568C193.028 180.783 194.108 181.683 195.315 181.578Z" fill="#263238"/>
<path d="M197.708 208.968L198.75 208.878C199.965 208.773 200.865 207.693 200.76 206.485L199.335 190.18C199.23 188.965 198.15 188.065 196.943 188.17L195.9 188.26C194.685 188.365 193.785 189.445 193.89 190.653L195.315 206.958C195.42 208.165 196.5 209.073 197.708 208.968Z" fill="#263238"/>
<path d="M116.168 354.625L200.993 347.215C206.73 346.713 211.013 341.613 210.51 335.875L192.825 133.525C192.323 127.788 187.223 123.505 181.485 124.008L96.6601 131.418C90.9226 131.92 86.6401 137.02 87.1426 142.758L104.82 345.1C105.323 350.845 110.43 355.128 116.168 354.625Z" fill="#263238"/>
<path opacity="0.4" d="M107.813 342.01L207.023 333.34C208.103 333.243 208.898 332.298 208.808 331.218L191.993 138.76C191.895 137.68 190.95 136.885 189.87 136.975L90.6601 145.645C89.5801 145.743 88.7851 146.688 88.8751 147.768L105.69 340.225C105.788 341.313 106.733 342.108 107.813 342.01Z" fill="#407BFF"/>
<path opacity="0.3" d="M176.768 138.13L164.303 337.075L143.565 338.89L156.038 139.938L176.768 138.13Z" fill="#407BFF"/>
<path opacity="0.2" d="M150.098 131.741L128.91 133.593C128.423 133.638 128.055 134.073 128.1 134.561L128.175 135.423C128.22 135.911 128.655 136.278 129.143 136.233L150.33 134.381C150.818 134.336 151.185 133.901 151.14 133.413L151.065 132.551C151.02 132.063 150.585 131.696 150.098 131.741Z" fill="white"/>
<path d="M130.351 208.84H233.558C239.123 208.84 243.683 213.393 243.683 218.965V269.583C243.683 275.148 239.131 279.708 233.558 279.708H197.851L181.951 295.6L166.058 279.708H130.351C124.786 279.708 120.226 275.155 120.226 269.583V218.965C120.226 213.393 124.778 208.84 130.351 208.84Z" fill="#407BFF"/>
<path opacity="0.3" d="M130.351 208.84H233.558C239.123 208.84 243.683 213.393 243.683 218.965V269.583C243.683 275.148 239.131 279.708 233.558 279.708H197.851L181.951 295.6L166.058 279.708H130.351C124.786 279.708 120.226 275.155 120.226 269.583V218.965C120.226 213.393 124.778 208.84 130.351 208.84Z" fill="white"/>
<path d="M136.966 226.383V262.158C136.966 265.068 139.298 267.453 142.141 267.453H221.761C224.611 267.453 226.936 265.068 226.936 262.158V226.383C226.936 225.685 226.801 225.018 226.553 224.403C225.788 222.46 223.921 221.088 221.753 221.088H142.141C139.981 221.088 138.113 222.468 137.341 224.403C137.101 225.018 136.966 225.678 136.966 226.383Z" fill="white"/>
<path opacity="0.1" d="M137.349 224.403L175.839 241.165C179.746 242.868 184.164 242.868 188.071 241.165L226.561 224.403C225.796 222.46 223.929 221.088 221.761 221.088H142.141C139.981 221.088 138.114 222.468 137.349 224.403Z" fill="black"/>
<path d="M128.191 228.723C136.69 228.723 143.581 221.833 143.581 213.333C143.581 204.833 136.69 197.943 128.191 197.943C119.691 197.943 112.801 204.833 112.801 213.333C112.801 221.833 119.691 228.723 128.191 228.723Z" fill="#DE5753"/>
<path d="M131.161 222.715H127.576V209.215C126.263 210.438 124.726 211.345 122.948 211.93V208.675C123.886 208.368 124.898 207.79 125.993 206.935C127.088 206.08 127.838 205.083 128.251 203.943H131.161V222.715Z" fill="white"/>
<path d="M214.777 117.94C213.69 117.94 212.737 117.145 212.572 116.043C210.457 101.973 197.287 92.2527 183.225 94.3677C182.002 94.5477 180.87 93.7077 180.682 92.4927C180.502 91.2702 181.342 90.1377 182.557 89.9502C199.057 87.4677 214.5 98.8752 216.99 115.375C217.177 116.598 216.337 117.73 215.115 117.918C214.995 117.933 214.882 117.94 214.777 117.94Z" fill="#407BFF"/>
<path d="M203.685 119.605C202.598 119.605 201.645 118.81 201.48 117.708C200.28 109.758 192.84 104.26 184.883 105.453C183.668 105.633 182.528 104.793 182.34 103.578C182.153 102.355 183 101.223 184.215 101.035C194.603 99.4753 204.323 106.653 205.89 117.04C206.078 118.263 205.23 119.395 204.015 119.583C203.91 119.598 203.798 119.605 203.685 119.605Z" fill="#407BFF"/>
<path d="M192.6 121.278C191.512 121.278 190.56 120.483 190.395 119.38C190.26 118.488 189.788 117.7 189.06 117.168C188.333 116.635 187.448 116.41 186.555 116.545C185.333 116.725 184.2 115.885 184.013 114.67C183.825 113.448 184.665 112.315 185.888 112.128C187.958 111.813 190.028 112.33 191.708 113.575C193.395 114.82 194.49 116.643 194.805 118.713C194.985 119.935 194.145 121.068 192.93 121.255C192.825 121.27 192.712 121.278 192.6 121.278Z" fill="#407BFF"/>
</svg>
