<svg width="18" height="18" viewBox="0 0 18 18" fill="none" xmlns="http://www.w3.org/2000/svg">
<path d="M4.875 8.625C4.43179 8.625 3.99292 8.5377 3.58344 8.36809C3.17397 8.19848 2.80191 7.94988 2.48851 7.63649C2.17512 7.32309 1.92652 6.95103 1.75691 6.54156C1.5873 6.13208 1.5 5.69321 1.5 5.25C1.5 4.80679 1.5873 4.36792 1.75691 3.95844C1.92652 3.54897 2.17512 3.17691 2.48851 2.86351C2.80191 2.55012 3.17397 2.30152 3.58344 2.13191C3.99292 1.9623 4.43179 1.875 4.875 1.875C5.77011 1.875 6.62855 2.23058 7.26149 2.86351C7.89442 3.49645 8.25 4.35489 8.25 5.25C8.25 6.14511 7.89442 7.00355 7.26149 7.63649C6.62855 8.26942 5.77011 8.625 4.875 8.625V8.625ZM5.25 16.125C4.35489 16.125 3.49645 15.7694 2.86351 15.1365C2.23058 14.5035 1.875 13.6451 1.875 12.75C1.875 11.8549 2.23058 10.9965 2.86351 10.3635C3.49645 9.73058 4.35489 9.375 5.25 9.375C6.14511 9.375 7.00355 9.73058 7.63649 10.3635C8.26942 10.9965 8.625 11.8549 8.625 12.75C8.625 13.6451 8.26942 14.5035 7.63649 15.1365C7.00355 15.7694 6.14511 16.125 5.25 16.125V16.125ZM12.75 8.625C12.3068 8.625 11.8679 8.5377 11.4584 8.36809C11.049 8.19848 10.6769 7.94988 10.3635 7.63649C10.0501 7.32309 9.80152 6.95103 9.63191 6.54156C9.4623 6.13208 9.375 5.69321 9.375 5.25C9.375 4.80679 9.4623 4.36792 9.63191 3.95844C9.80152 3.54897 10.0501 3.17691 10.3635 2.86351C10.6769 2.55012 11.049 2.30152 11.4584 2.13191C11.8679 1.9623 12.3068 1.875 12.75 1.875C13.6451 1.875 14.5035 2.23058 15.1365 2.86351C15.7694 3.49645 16.125 4.35489 16.125 5.25C16.125 6.14511 15.7694 7.00355 15.1365 7.63649C14.5035 8.26942 13.6451 8.625 12.75 8.625V8.625ZM12.75 16.125C11.8549 16.125 10.9965 15.7694 10.3635 15.1365C9.73058 14.5035 9.375 13.6451 9.375 12.75C9.375 11.8549 9.73058 10.9965 10.3635 10.3635C10.9965 9.73058 11.8549 9.375 12.75 9.375C13.6451 9.375 14.5035 9.73058 15.1365 10.3635C15.7694 10.9965 16.125 11.8549 16.125 12.75C16.125 13.6451 15.7694 14.5035 15.1365 15.1365C14.5035 15.7694 13.6451 16.125 12.75 16.125ZM4.875 7.125C5.37228 7.125 5.84919 6.92746 6.20083 6.57583C6.55246 6.22419 6.75 5.74728 6.75 5.25C6.75 4.75272 6.55246 4.27581 6.20083 3.92417C5.84919 3.57254 5.37228 3.375 4.875 3.375C4.37772 3.375 3.90081 3.57254 3.54917 3.92417C3.19754 4.27581 3 4.75272 3 5.25C3 5.74728 3.19754 6.22419 3.54917 6.57583C3.90081 6.92746 4.37772 7.125 4.875 7.125V7.125ZM5.25 14.625C5.74728 14.625 6.22419 14.4275 6.57583 14.0758C6.92746 13.7242 7.125 13.2473 7.125 12.75C7.125 12.2527 6.92746 11.7758 6.57583 11.4242C6.22419 11.0725 5.74728 10.875 5.25 10.875C4.75272 10.875 4.27581 11.0725 3.92417 11.4242C3.57254 11.7758 3.375 12.2527 3.375 12.75C3.375 13.2473 3.57254 13.7242 3.92417 14.0758C4.27581 14.4275 4.75272 14.625 5.25 14.625ZM12.75 7.125C13.2473 7.125 13.7242 6.92746 14.0758 6.57583C14.4275 6.22419 14.625 5.74728 14.625 5.25C14.625 4.75272 14.4275 4.27581 14.0758 3.92417C13.7242 3.57254 13.2473 3.375 12.75 3.375C12.2527 3.375 11.7758 3.57254 11.4242 3.92417C11.0725 4.27581 10.875 4.75272 10.875 5.25C10.875 5.74728 11.0725 6.22419 11.4242 6.57583C11.7758 6.92746 12.2527 7.125 12.75 7.125ZM12.75 14.625C13.2473 14.625 13.7242 14.4275 14.0758 14.0758C14.4275 13.7242 14.625 13.2473 14.625 12.75C14.625 12.2527 14.4275 11.7758 14.0758 11.4242C13.7242 11.0725 13.2473 10.875 12.75 10.875C12.2527 10.875 11.7758 11.0725 11.4242 11.4242C11.0725 11.7758 10.875 12.2527 10.875 12.75C10.875 13.2473 11.0725 13.7242 11.4242 14.0758C11.7758 14.4275 12.2527 14.625 12.75 14.625Z" fill="#F7A212"/>
</svg>
