<svg width="24" height="44" viewBox="0 0 24 44" fill="none" xmlns="http://www.w3.org/2000/svg">
<path d="M12 11L21.5 16.5V27.5L12 33L2.5 27.5V16.5L12 11ZM12 13.311L4.5 17.653V26.347L12 30.689L19.5 26.347V17.653L12 13.311ZM12 26C10.9391 26 9.92172 25.5786 9.17157 24.8284C8.42143 24.0783 8 23.0609 8 22C8 20.9391 8.42143 19.9217 9.17157 19.1716C9.92172 18.4214 10.9391 18 12 18C13.0609 18 14.0783 18.4214 14.8284 19.1716C15.5786 19.9217 16 20.9391 16 22C16 23.0609 15.5786 24.0783 14.8284 24.8284C14.0783 25.5786 13.0609 26 12 26ZM12 24C12.5304 24 13.0391 23.7893 13.4142 23.4142C13.7893 23.0391 14 22.5304 14 22C14 21.4696 13.7893 20.9609 13.4142 20.5858C13.0391 20.2107 12.5304 20 12 20C11.4696 20 10.9609 20.2107 10.5858 20.5858C10.2107 20.9609 10 21.4696 10 22C10 22.5304 10.2107 23.0391 10.5858 23.4142C10.9609 23.7893 11.4696 24 12 24Z" fill="#292929"/>
</svg>
