<svg width="282" height="48" viewBox="0 0 282 48" fill="none" xmlns="http://www.w3.org/2000/svg">
<rect width="48" height="48" rx="24" fill="#F5F5F5"/>
<path d="M24 14C18.477 14 14 18.477 14 24C14 28.991 17.657 33.128 22.438 33.879V26.89H19.898V24H22.438V21.797C22.438 19.291 23.93 17.907 26.215 17.907C27.309 17.907 28.453 18.102 28.453 18.102V20.562H27.193C25.95 20.562 25.563 21.333 25.563 22.124V24H28.336L27.893 26.89H25.563V33.879C30.343 33.129 34 28.99 34 24C34 18.477 29.523 14 24 14Z" fill="#253DC0"/>
<rect x="78" width="48" height="48" rx="24" fill="#F5F5F5"/>
<path d="M112.162 17.6559C111.399 17.9936 110.589 18.2154 109.76 18.3139C110.634 17.7914 111.288 16.9689 111.6 15.9999C110.78 16.4879 109.881 16.8299 108.944 17.0149C108.315 16.3415 107.48 15.8949 106.571 15.7445C105.662 15.5941 104.728 15.7484 103.915 16.1834C103.103 16.6183 102.456 17.3096 102.077 18.1497C101.698 18.9898 101.607 19.9317 101.818 20.8289C100.155 20.7456 98.5284 20.3134 97.0433 19.5606C95.5583 18.8077 94.2482 17.751 93.1981 16.4589C92.8263 17.0974 92.631 17.8232 92.6321 18.5619C92.6321 20.0119 93.3701 21.2929 94.4921 22.0429C93.8281 22.022 93.1787 21.8427 92.5981 21.5199V21.5719C92.5983 22.5376 92.9324 23.4735 93.5439 24.221C94.1554 24.9684 95.0065 25.4814 95.9531 25.6729C95.3367 25.84 94.6904 25.8646 94.0631 25.7449C94.3299 26.5762 94.8501 27.3031 95.5506 27.824C96.2512 28.3449 97.0972 28.6337 97.9701 28.6499C97.1025 29.3313 96.1092 29.8349 95.0469 30.1321C93.9846 30.4293 92.8742 30.5142 91.7791 30.3819C93.6908 31.6114 95.9161 32.264 98.1891 32.2619C105.882 32.2619 110.089 25.8889 110.089 20.3619C110.089 20.1819 110.084 19.9999 110.076 19.8219C110.895 19.2301 111.602 18.4969 112.163 17.6569L112.162 17.6559Z" fill="#253DC0"/>
<rect x="156" width="48" height="48" rx="24" fill="#F5F5F5"/>
<path d="M180 21C179.204 21 178.441 21.3161 177.879 21.8787C177.316 22.4413 177 23.2044 177 24C177 24.7956 177.316 25.5587 177.879 26.1213C178.441 26.6839 179.204 27 180 27C180.796 27 181.559 26.6839 182.121 26.1213C182.684 25.5587 183 24.7956 183 24C183 23.2044 182.684 22.4413 182.121 21.8787C181.559 21.3161 180.796 21 180 21ZM180 19C181.326 19 182.598 19.5268 183.536 20.4645C184.473 21.4021 185 22.6739 185 24C185 25.3261 184.473 26.5979 183.536 27.5355C182.598 28.4732 181.326 29 180 29C178.674 29 177.402 28.4732 176.464 27.5355C175.527 26.5979 175 25.3261 175 24C175 22.6739 175.527 21.4021 176.464 20.4645C177.402 19.5268 178.674 19 180 19ZM186.5 18.75C186.5 19.0815 186.368 19.3995 186.134 19.6339C185.899 19.8683 185.582 20 185.25 20C184.918 20 184.601 19.8683 184.366 19.6339C184.132 19.3995 184 19.0815 184 18.75C184 18.4185 184.132 18.1005 184.366 17.8661C184.601 17.6317 184.918 17.5 185.25 17.5C185.582 17.5 185.899 17.6317 186.134 17.8661C186.368 18.1005 186.5 18.4185 186.5 18.75ZM180 16C177.526 16 177.122 16.007 175.971 16.058C175.187 16.095 174.661 16.2 174.173 16.39C173.765 16.5399 173.395 16.7803 173.093 17.093C172.78 17.3954 172.539 17.7646 172.389 18.173C172.199 18.663 172.094 19.188 172.058 19.971C172.006 21.075 172 21.461 172 24C172 26.474 172.007 26.878 172.058 28.029C172.095 28.812 172.2 29.339 172.389 29.826C172.559 30.261 172.759 30.574 173.091 30.906C173.428 31.242 173.741 31.443 174.171 31.609C174.665 31.8 175.191 31.906 175.971 31.942C177.075 31.994 177.461 32 180 32C182.474 32 182.878 31.993 184.029 31.942C184.811 31.905 185.338 31.8 185.826 31.611C186.234 31.4603 186.603 31.2205 186.906 30.909C187.243 30.572 187.444 30.259 187.61 29.829C187.8 29.336 187.906 28.809 187.942 28.029C187.994 26.925 188 26.539 188 24C188 21.526 187.993 21.122 187.942 19.971C187.905 19.189 187.8 18.661 187.61 18.173C187.459 17.765 187.219 17.396 186.907 17.093C186.605 16.7798 186.236 16.5392 185.827 16.389C185.337 16.199 184.811 16.094 184.029 16.058C182.925 16.006 182.539 16 180 16ZM180 14C182.717 14 183.056 14.01 184.122 14.06C185.187 14.11 185.912 14.277 186.55 14.525C187.21 14.779 187.766 15.123 188.322 15.678C188.83 16.1779 189.224 16.7826 189.475 17.45C189.722 18.087 189.89 18.813 189.94 19.878C189.987 20.944 190 21.283 190 24C190 26.717 189.99 27.056 189.94 28.122C189.89 29.187 189.722 29.912 189.475 30.55C189.225 31.2178 188.831 31.8226 188.322 32.322C187.822 32.8303 187.217 33.2238 186.55 33.475C185.913 33.722 185.187 33.89 184.122 33.94C183.056 33.987 182.717 34 180 34C177.283 34 176.944 33.99 175.878 33.94C174.813 33.89 174.088 33.722 173.45 33.475C172.782 33.2245 172.178 32.8309 171.678 32.322C171.169 31.8222 170.776 31.2175 170.525 30.55C170.277 29.913 170.11 29.187 170.06 28.122C170.013 27.056 170 26.717 170 24C170 21.283 170.01 20.944 170.06 19.878C170.11 18.812 170.277 18.088 170.525 17.45C170.775 16.7822 171.169 16.1773 171.678 15.678C172.178 15.1692 172.782 14.7757 173.45 14.525C174.088 14.277 174.812 14.11 175.878 14.06C176.944 14.013 177.283 14 180 14Z" fill="#253DC0"/>
<rect x="234" width="48" height="48" rx="24" fill="#F5F5F5"/>
<path d="M252.94 17C252.94 17.5305 252.729 18.0391 252.353 18.4139C251.978 18.7888 251.469 18.9993 250.939 18.999C250.409 18.9988 249.9 18.7878 249.525 18.4125C249.15 18.0373 248.94 17.5285 248.94 16.998C248.94 16.4676 249.151 15.959 249.526 15.5841C249.902 15.2092 250.411 14.9988 250.941 14.999C251.471 14.9993 251.98 15.2103 252.355 15.5855C252.73 15.9608 252.94 16.4696 252.94 17ZM253 20.48H249V33H253V20.48ZM259.32 20.48H255.34V33H259.28V26.43C259.28 22.77 264.05 22.43 264.05 26.43V33H268V25.07C268 18.9 260.94 19.13 259.28 22.16L259.32 20.48Z" fill="#253DC0"/>
</svg>
 