<svg width="375" height="400" viewBox="0 0 375 400" fill="none" xmlns="http://www.w3.org/2000/svg">
<path d="M253.744 73.6645H306.344C306.344 73.6645 301.696 65.2005 288.152 66.4645C275.224 67.6405 274.552 62.2965 267.992 61.6645C261.432 61.0325 255.936 65.9925 253.744 73.6645Z" fill="#E0E0E0"/>
<path d="M116.256 212.721C116.256 212.721 110.984 215.569 118.656 226.577C126.328 237.585 131.32 242.865 131.32 242.865C131.32 242.865 132.776 245.465 130.52 246.209C128.264 246.953 123.056 246.849 122.416 249.817C121.752 252.905 124.272 255.417 128.928 257.217C133.584 259.017 143.648 263.441 144.552 263.841C145.456 264.241 146.448 265.401 144.992 266.153C143.536 266.905 132.248 269.681 133.88 274.953C135.512 280.225 149.336 283.209 150.84 283.561C152.344 283.913 152.768 284.473 152.76 285.273C152.752 286.073 148.872 286.649 145.688 287.569C142.504 288.489 138.984 290.121 140.184 293.089C141.384 296.057 150.072 301.441 169.256 300.681L178.12 299.753L181.896 291.633C188.912 273.769 186.696 263.793 184.296 261.681C181.896 259.569 179.192 262.369 177.28 265.073C175.368 267.777 173.544 271.249 172.784 270.993C172.024 270.737 171.64 270.153 171.8 268.593C171.96 267.033 173.696 253.025 169.248 249.745C164.8 246.465 158.464 256.209 157.248 257.337C156.032 258.465 155.288 257.137 155.208 256.161C155.128 255.185 154.288 244.233 154.088 239.225C153.888 234.217 152.376 231.033 149.248 230.649C146.12 230.265 144.624 235.225 143.176 237.113C141.728 239.001 139.752 236.769 139.752 236.769C139.752 236.769 136.4 230.321 128.552 219.457C120.704 208.593 116.152 212.801 116.152 212.801" fill="#EBEBEB"/>
<path d="M178.864 301.776C173.112 293.776 163.136 279.376 154.504 267.064C145.872 254.752 138.056 243.616 132.344 235.584C129.488 231.584 127.184 228.336 125.576 226.088L123.736 223.496L123.264 222.824C123.16 222.672 123.112 222.584 123.112 222.584C123.112 222.584 123.176 222.656 123.288 222.808L123.784 223.464L125.664 226.024C127.264 228.24 129.664 231.472 132.504 235.472C138.256 243.472 146.104 254.592 154.728 266.904C163.352 279.216 173.312 293.632 179.024 301.656" fill="#E0E0E0"/>
<path d="M129.696 250.265C129.911 250.274 130.126 250.303 130.336 250.353C130.744 250.425 131.328 250.545 132.056 250.705C133.504 251.017 135.488 251.505 137.656 252.081L143.256 253.577L144.952 254.025C145.164 254.061 145.371 254.123 145.568 254.209C145.352 254.206 145.137 254.179 144.928 254.129C144.52 254.057 143.936 253.937 143.208 253.769C141.768 253.441 139.784 252.969 137.608 252.353L132.008 250.897L130.312 250.457C130.099 250.421 129.892 250.356 129.696 250.265Z" fill="#E0E0E0"/>
<path d="M146.096 253.6C146.016 253.6 146.84 249.44 147.928 244.352C149.016 239.264 149.968 235.144 150.04 235.16C150.112 235.176 149.296 239.312 148.2 244.408C147.104 249.504 146.168 253.6 146.096 253.6Z" fill="#E0E0E0"/>
<path d="M158.496 273.064C158.565 272.856 158.659 272.657 158.776 272.472L159.624 270.872C160.336 269.544 161.32 267.672 162.32 265.624C163.32 263.576 164.184 261.624 164.784 260.272L165.504 258.632C165.573 258.421 165.673 258.222 165.8 258.04C165.756 258.256 165.691 258.468 165.608 258.672C165.464 259.072 165.248 259.64 164.968 260.344C164.408 261.752 163.584 263.672 162.568 265.752C161.552 267.832 160.544 269.656 159.792 270.968C159.408 271.616 159.088 272.144 158.864 272.496C158.76 272.697 158.637 272.887 158.496 273.064Z" fill="#E0E0E0"/>
<path d="M143.008 273.352C143.203 273.298 143.406 273.274 143.608 273.28L145.264 273.184C146.656 273.112 148.584 273.04 150.712 272.968C152.84 272.896 154.768 272.856 156.168 272.84H157.824C158.026 272.823 158.23 272.823 158.432 272.84C158.234 272.895 158.029 272.921 157.824 272.92L156.176 273.016C154.776 273.08 152.848 273.16 150.72 273.224C148.592 273.288 146.664 273.336 145.264 273.352H143.616C143.414 273.376 143.21 273.376 143.008 273.352Z" fill="#E0E0E0"/>
<path d="M151.768 292C152.03 291.942 152.299 291.912 152.568 291.912L154.688 291.784C156.472 291.688 158.944 291.568 161.672 291.456C164.4 291.344 166.872 291.264 168.656 291.216L170.776 291.168C171.042 291.147 171.31 291.147 171.576 291.168C171.312 291.219 171.044 291.249 170.776 291.256L168.656 291.384C166.872 291.48 164.4 291.6 161.672 291.712C158.944 291.824 156.472 291.904 154.688 291.952L152.568 292C152.302 292.022 152.034 292.022 151.768 292Z" fill="#E0E0E0"/>
<path d="M171.048 291.041C171.139 290.778 171.251 290.524 171.384 290.281L172.392 288.241C173.24 286.521 174.392 284.145 175.592 281.481C176.792 278.817 177.832 276.385 178.568 274.609L179.44 272.513C179.536 272.254 179.651 272.002 179.784 271.761C179.729 272.035 179.646 272.303 179.536 272.561C179.36 273.073 179.096 273.801 178.736 274.689C178.048 276.481 177.04 278.937 175.832 281.601C174.624 284.265 173.432 286.641 172.544 288.337C172.096 289.185 171.744 289.873 171.456 290.337C171.338 290.581 171.201 290.817 171.048 291.041Z" fill="#E0E0E0"/>
<path d="M245.44 172.977C235.92 162.297 236.832 146.881 240.44 133.689C241.04 131.481 241.352 129.081 242.84 127.385C244.328 125.689 247.144 124.937 248.912 126.345C250.376 127.513 250.64 129.601 251.184 131.409C251.907 133.813 253.294 135.964 255.184 137.617C256.424 138.689 258.064 139.545 259.648 139.113C261.816 138.505 262.664 135.913 263.176 133.697C264.12 129.574 265.069 125.451 266.024 121.329C266.42 119.091 267.167 116.931 268.24 114.929C269.424 112.993 271.44 111.409 273.648 111.321C275.856 111.233 278.2 113.057 278.128 115.321C277.996 116.255 277.801 117.18 277.544 118.089C277.424 118.542 277.439 119.021 277.589 119.466C277.738 119.912 278.015 120.303 278.384 120.593C279.184 121.065 280.232 120.649 281.048 120.153C283.856 118.465 286.088 115.961 288.208 113.441C290.328 110.921 292.424 108.337 295.072 106.393C297.72 104.449 301.032 103.193 304.24 103.769C307.448 104.345 310.352 107.097 310.416 110.385C310.48 113.673 307.92 116.425 305.344 118.473C301.538 121.513 297.313 123.989 292.8 125.825C291.947 126.062 291.193 126.567 290.648 127.265C289.848 128.625 290.864 130.417 292.2 131.265C293.72 132.201 295.544 132.457 297.224 133.065C298.904 133.673 300.584 134.881 300.848 136.657C301.216 139.129 298.768 141.049 296.544 142.161C292.09 144.374 287.29 145.808 282.352 146.401C280.584 146.609 278.752 146.729 277.168 147.553C275.584 148.377 274.328 150.185 274.768 151.929C275.208 153.673 277.104 154.657 278.88 154.737C280.656 154.817 282.4 154.265 284.168 154.041C287.472 153.609 291.368 154.745 292.664 157.833C293.049 158.882 293.185 160.007 293.06 161.118C292.935 162.228 292.553 163.295 291.944 164.233C290.726 166.083 289.148 167.669 287.304 168.897C281.125 173.534 273.826 176.449 266.152 177.345C258.536 178.145 251.848 177.233 245.456 173.017" fill="#F5F5F5"/>
<path d="M247.376 174.256C249.104 169.104 247.296 171.688 250.856 165.456C254.782 158.729 259.09 152.233 263.76 146C264.987 144.336 266.2 142.696 267.4 141.08C268.6 139.48 269.8 137.88 271.048 136.368C273.476 133.509 276.059 130.785 278.784 128.208C281.368 125.728 283.912 123.472 286.312 121.376C288.712 119.28 290.984 117.376 293.128 115.736C296.504 113.12 300.08 110.774 303.824 108.72C305.144 107.992 306.224 107.464 306.904 107.12L307.704 106.728L307.984 106.608C307.902 106.67 307.813 106.724 307.72 106.768L306.92 107.2C306.216 107.576 305.184 108.128 303.88 108.872C300.181 110.979 296.645 113.362 293.304 116C291.176 117.656 288.92 119.568 286.536 121.664C284.152 123.76 281.624 126.032 279.048 128.512C276.342 131.088 273.776 133.807 271.36 136.656C270.112 138.144 268.96 139.736 267.736 141.352L264.096 146.272C259.442 152.484 255.137 158.95 251.2 165.64C247.632 171.856 249.424 169.232 247.664 174.352" fill="#E0E0E0"/>
<path d="M271.2 136.384C271.167 136.054 271.167 135.722 271.2 135.392C271.2 134.752 271.304 133.792 271.408 132.696C271.616 130.416 272.016 127.288 272.464 123.84C272.912 120.392 273.264 117.264 273.432 114.992C273.52 113.856 273.584 112.944 273.624 112.304C273.621 111.973 273.656 111.643 273.728 111.32C273.781 111.648 273.799 111.981 273.784 112.312C273.784 112.944 273.784 113.912 273.728 115.008C273.632 117.296 273.328 120.44 272.872 123.896C272.416 127.352 272.016 130.376 271.704 132.696C271.568 133.76 271.456 134.656 271.368 135.376C271.35 135.718 271.293 136.056 271.2 136.384Z" fill="#E0E0E0"/>
<path d="M300.8 137.8C300.41 137.798 300.021 137.755 299.64 137.672C298.896 137.56 297.816 137.4 296.48 137.24C293.816 136.904 290.08 136.576 286.016 136.384C281.952 136.192 278.2 136.192 275.504 136.264C274.16 136.264 273.104 136.344 272.304 136.376C271.913 136.409 271.519 136.409 271.128 136.376C271.511 136.282 271.902 136.223 272.296 136.2C273.048 136.12 274.136 136.024 275.496 135.96C278.192 135.808 281.896 135.768 286.04 135.96C289.55 136.112 293.051 136.441 296.528 136.944C297.856 137.144 298.928 137.352 299.672 137.504C300.057 137.567 300.434 137.666 300.8 137.8Z" fill="#E0E0E0"/>
<path d="M251.328 165.009C251.269 164.885 251.232 164.752 251.216 164.617C251.152 164.305 251.072 163.929 250.968 163.473C250.768 162.481 250.504 161.073 250.208 159.249C249.608 155.673 248.936 150.705 248.264 145.209C247.592 139.713 246.968 134.745 246.448 131.161C246.192 129.417 245.976 127.961 245.816 126.921C245.752 126.457 245.696 126.073 245.648 125.761C245.636 125.625 245.636 125.488 245.648 125.353C245.706 125.477 245.746 125.609 245.768 125.745L246.008 126.889C246.216 127.881 246.472 129.289 246.768 131.113C247.368 134.689 248.04 139.657 248.712 145.153C249.384 150.649 250.008 155.617 250.528 159.201C250.792 160.945 251 162.401 251.16 163.449C251.232 163.905 251.28 164.289 251.328 164.601C251.345 164.736 251.345 164.873 251.328 165.009Z" fill="#E0E0E0"/>
<path d="M291.944 161.784C291.812 161.826 291.675 161.848 291.536 161.848L290.352 161.96L286 162.312C282.328 162.608 277.256 163.112 271.656 163.608C266.056 164.104 260.968 164.56 257.256 164.784C255.416 164.896 253.928 164.968 252.896 165H251.712C251.574 165.021 251.434 165.021 251.296 165C251.429 164.962 251.566 164.94 251.704 164.936L252.888 164.824L257.24 164.472C260.912 164.176 265.984 163.672 271.584 163.176C277.184 162.68 282.264 162.224 285.984 162.008C287.832 161.896 289.32 161.816 290.352 161.784H291.536C291.672 161.767 291.809 161.767 291.944 161.784Z" fill="#E0E0E0"/>
<path d="M323.448 243.2C323.42 243.33 323.377 243.456 323.32 243.576L322.88 244.64C322.472 245.6 321.896 246.952 321.176 248.64L315.008 262.904L314.968 262.984H314.88L295.504 266.184L289.008 267.248L288.712 267.296L288.784 267.008C290.384 260.776 291.816 255.008 293.056 250.168L293.144 250.352L281.76 245.264L278.616 243.832L277.816 243.448C277.72 243.408 277.629 243.357 277.544 243.296L277.832 243.4L278.672 243.744L281.872 245.096L293.312 250.056L293.44 250.112V250.24C292.224 255.12 290.792 260.864 289.24 267.104L289.016 266.864L295.512 265.792L314.896 262.64L314.76 262.744L321.056 248.544C321.816 246.848 322.424 245.504 322.856 244.544L323.336 243.496C323.368 243.395 323.405 243.297 323.448 243.2Z" fill="#E0E0E0"/>
<path d="M291.28 265L290.744 266.392L291.592 267.624L290.104 267.552L289.2 268.736L288.808 267.296L287.4 266.8L288.648 265.984L288.688 264.496L289.848 265.432L291.28 265Z" fill="#E0E0E0"/>
<path d="M277.976 242.401L277.712 243.097L278.128 243.705L277.392 243.665L276.944 244.257L276.744 243.545L276.048 243.297L276.664 242.889L276.688 242.145L277.264 242.609L277.976 242.401Z" fill="#E0E0E0"/>
<path d="M315.552 262.049L315.288 262.745L315.704 263.353L314.968 263.321L314.52 263.913L314.32 263.193L313.624 262.953L314.24 262.545L314.256 261.801L314.84 262.265L315.552 262.049Z" fill="#E0E0E0"/>
<path d="M293.864 249.576L293.6 250.264L294.024 250.88L293.28 250.84L292.832 251.432L292.64 250.712L291.936 250.472L292.56 250.064L292.576 249.32L293.152 249.784L293.864 249.576Z" fill="#E0E0E0"/>
<path d="M324.352 242.505L324.088 243.201L324.512 243.809L323.768 243.777L323.32 244.369L323.128 243.649L322.424 243.401L323.048 243.001L323.064 242.257L323.64 242.721L324.352 242.505Z" fill="#E0E0E0"/>
<path d="M81.8721 300.728H123.76C123.76 300.728 120.056 293.984 109.272 294.968C98.9761 295.904 98.4561 291.648 93.2161 291.128C87.9761 290.608 83.6241 294.616 81.8721 300.728Z" fill="#E0E0E0"/>
<path d="M90.1921 135.833H132.072C132.072 135.833 128.368 129.097 117.584 130.073C107.296 131.017 106.768 126.761 101.536 126.241C96.3041 125.721 91.9361 129.729 90.1921 135.833Z" fill="#F5F5F5"/>
<path d="M302.896 164.96H337.296C337.296 164.96 334.256 159.424 325.4 160.224C316.936 161.024 316.504 157.504 312.208 157.072C307.912 156.64 304.328 159.944 302.896 164.96Z" fill="#F5F5F5"/>
<path d="M234.184 232.872C235.896 219.984 226.832 209.344 215.504 202.952C204.176 196.56 191.032 194.4 178.52 190.864C166.72 187.512 154.984 182.616 146.248 174.008C137.512 165.4 132.264 152.464 135.4 140.608C136.2 137.632 137.6 134.64 140.16 132.92C142.72 131.2 146.616 131.248 148.528 133.664C152.592 138.816 144.672 148.064 149.632 152.336C150.768 153.328 152.336 153.688 153.512 154.624C156.64 157.128 155.632 161.984 156.072 165.968C156.944 173.848 164.336 179.32 171.592 182.512C181.312 186.784 191.84 188.792 202.144 191.312C212.448 193.832 222.856 197.04 231.44 203.312C240.024 209.584 247.488 219.312 247.44 229.944C247.44 232.912 247.048 236.56 245.184 238.864C243.32 241.168 240.952 241.656 238.264 240.392C235.576 239.128 233.704 237.192 234.2 232.888" fill="#407BFF"/>
<g opacity="0.8">
<path opacity="0.8" d="M234.184 232.872C235.896 219.984 226.832 209.344 215.504 202.952C204.176 196.56 191.032 194.4 178.52 190.864C166.72 187.512 154.984 182.616 146.248 174.008C137.512 165.4 132.264 152.464 135.4 140.608C136.2 137.632 137.6 134.64 140.16 132.92C142.72 131.2 146.616 131.248 148.528 133.664C152.592 138.816 144.672 148.064 149.632 152.336C150.768 153.328 152.336 153.688 153.512 154.624C156.64 157.128 155.632 161.984 156.072 165.968C156.944 173.848 164.336 179.32 171.592 182.512C181.312 186.784 191.84 188.792 202.144 191.312C212.448 193.832 222.856 197.04 231.44 203.312C240.024 209.584 247.488 219.312 247.44 229.944C247.44 232.912 247.048 236.56 245.184 238.864C243.32 241.168 240.952 241.656 238.264 240.392C235.576 239.128 233.704 237.192 234.2 232.888" fill="white"/>
</g>
<path d="M179.384 130.4C178.976 125.6 182.536 121.464 186.584 119.24C190.632 117.016 195.272 116.104 199.44 114.128C209.8 109.216 216.384 97.6556 216.872 85.8076C217.36 73.9596 212.216 62.1036 204.184 53.3996C200.912 49.8636 196.896 46.1516 196.848 41.3276C196.8 36.2876 201.648 32.3196 206.56 32.3836C211.472 32.4476 215.936 35.7196 218.856 39.8236C221.776 43.9276 223.384 48.7996 224.96 53.5996C223.84 51.5836 226.136 49.0956 228.36 49.3116C230.584 49.5276 232.36 51.3756 233.696 53.2156C239.615 61.2514 242.453 71.1442 241.696 81.0956C240.894 90.8614 236.472 99.975 229.296 106.648C221.4 113.848 210.96 117.216 200.832 120.416L179.704 127.08" fill="#407BFF"/>
<g opacity="0.8">
<path opacity="0.8" d="M179.384 130.4C178.976 125.6 182.536 121.464 186.584 119.24C190.632 117.016 195.272 116.104 199.44 114.128C209.8 109.216 216.384 97.6556 216.872 85.8076C217.36 73.9596 212.216 62.1036 204.184 53.3996C200.912 49.8636 196.896 46.1516 196.848 41.3276C196.8 36.2876 201.648 32.3196 206.56 32.3836C211.472 32.4476 215.936 35.7196 218.856 39.8236C221.776 43.9276 223.384 48.7996 224.96 53.5996C223.84 51.5836 226.136 49.0956 228.36 49.3116C230.584 49.5276 232.36 51.3756 233.696 53.2156C239.615 61.2514 242.453 71.1442 241.696 81.0956C240.894 90.8614 236.472 99.975 229.296 106.648C221.4 113.848 210.96 117.216 200.832 120.416L179.704 127.08" fill="white"/>
</g>
<path d="M173.504 30.0156C172.433 30.4576 171.573 31.2963 171.105 32.3566C170.637 33.4169 170.597 34.617 170.993 35.7064C171.388 36.7958 172.189 37.6903 173.228 38.2033C174.268 38.7163 175.465 38.8082 176.57 38.4598C177.676 38.1114 178.604 37.3495 179.161 36.3333C179.718 35.317 179.861 34.1249 179.561 33.0056C179.26 31.8862 178.539 30.9263 177.547 30.3259C176.556 29.7256 175.371 29.5313 174.24 29.7836" fill="#407BFF"/>
<g opacity="0.8">
<path opacity="0.8" d="M173.504 30.0156C172.433 30.4576 171.573 31.2963 171.105 32.3566C170.637 33.4169 170.597 34.617 170.993 35.7064C171.388 36.7958 172.189 37.6903 173.228 38.2033C174.268 38.7163 175.465 38.8082 176.57 38.4598C177.676 38.1114 178.604 37.3495 179.161 36.3333C179.718 35.317 179.861 34.1249 179.561 33.0056C179.26 31.8862 178.539 30.9263 177.547 30.3259C176.556 29.7256 175.371 29.5313 174.24 29.7836" fill="white"/>
</g>
<path d="M199.56 338.272C196.968 332.904 199.232 326.208 203.36 321.904C207.488 317.6 213.12 315.144 218.56 312.744C230.608 307.432 243.36 301.112 249.48 289.464C251.544 285.536 252.72 281.216 253.88 276.928C256.128 268.64 258.24 259.224 253.72 251.92C252.416 249.816 250.464 247.92 248.032 247.52C245.256 247.024 242.432 248.552 240.704 250.784C239.102 253.116 238.139 255.827 237.912 258.648C237.24 263.952 237.8 269.352 237.24 274.648C236.68 279.944 234.752 285.6 230.4 288.624C225.064 292.344 217.456 291.512 212.28 295.44C208.096 298.64 206.504 304.112 203.24 308.24C200.488 311.688 196.64 314.04 193.12 316.696C189.6 319.352 186.192 322.584 184.992 326.832C184.362 329.052 184.386 331.407 185.061 333.614C185.736 335.821 187.033 337.787 188.797 339.276C190.561 340.764 192.717 341.713 195.006 342.007C197.295 342.301 199.621 341.929 201.704 340.936" fill="#407BFF"/>
<g opacity="0.8">
<path opacity="0.8" d="M199.56 338.272C196.968 332.904 199.232 326.208 203.36 321.904C207.488 317.6 213.12 315.144 218.56 312.744C230.608 307.432 243.36 301.112 249.48 289.464C251.544 285.536 252.72 281.216 253.88 276.928C256.128 268.64 258.24 259.224 253.72 251.92C252.416 249.816 250.464 247.92 248.032 247.52C245.256 247.024 242.432 248.552 240.704 250.784C239.102 253.116 238.139 255.827 237.912 258.648C237.24 263.952 237.8 269.352 237.24 274.648C236.68 279.944 234.752 285.6 230.4 288.624C225.064 292.344 217.456 291.512 212.28 295.44C208.096 298.64 206.504 304.112 203.24 308.24C200.488 311.688 196.64 314.04 193.12 316.696C189.6 319.352 186.192 322.584 184.992 326.832C184.362 329.052 184.386 331.407 185.061 333.614C185.736 335.821 187.033 337.787 188.797 339.276C190.561 340.764 192.717 341.713 195.006 342.007C197.295 342.301 199.621 341.929 201.704 340.936" fill="white"/>
</g>
<path d="M119.464 67.0877C117.334 65.5061 115.612 63.4394 114.441 61.0589C113.269 58.6784 112.683 56.0528 112.73 53.4002C112.777 50.7477 113.456 48.1445 114.71 45.807C115.965 43.4694 117.759 41.4648 119.944 39.9596C122.408 38.2716 125.32 37.2316 127.512 35.1596C129.456 33.3516 130.712 30.8476 132.896 29.3276C134.259 28.3611 135.895 27.8553 137.566 27.884C139.237 27.9127 140.854 28.4744 142.183 29.4872C143.512 30.5 144.483 31.9109 144.954 33.5142C145.424 35.1174 145.371 36.8291 144.8 38.3996C143.8 41.2076 141.28 43.2637 140.224 46.0477C139.088 49.0557 139.824 52.4477 139.424 55.5997C139.162 57.5621 138.462 59.4404 137.375 61.0954C136.289 62.7503 134.844 64.1395 133.147 65.1599C131.451 66.1803 129.546 66.8058 127.575 66.9899C125.604 67.1741 123.616 66.9122 121.76 66.2237" fill="#407BFF"/>
<g opacity="0.8">
<path opacity="0.8" d="M119.464 67.0877C117.334 65.5061 115.612 63.4394 114.441 61.0589C113.269 58.6784 112.683 56.0528 112.73 53.4002C112.777 50.7477 113.456 48.1445 114.71 45.807C115.965 43.4694 117.759 41.4648 119.944 39.9596C122.408 38.2716 125.32 37.2316 127.512 35.1596C129.456 33.3516 130.712 30.8476 132.896 29.3276C134.259 28.3611 135.895 27.8553 137.566 27.884C139.237 27.9127 140.854 28.4744 142.183 29.4872C143.512 30.5 144.483 31.9109 144.954 33.5142C145.424 35.1174 145.371 36.8291 144.8 38.3996C143.8 41.2076 141.28 43.2637 140.224 46.0477C139.088 49.0557 139.824 52.4477 139.424 55.5997C139.162 57.5621 138.462 59.4404 137.375 61.0954C136.289 62.7503 134.844 64.1395 133.147 65.1599C131.451 66.1803 129.546 66.8058 127.575 66.9899C125.604 67.1741 123.616 66.9122 121.76 66.2237" fill="white"/>
</g>
<path d="M119.768 49.9355H129.6V70.1995C129.6 70.7679 129.488 71.3307 129.271 71.8558C129.053 72.3809 128.734 72.858 128.332 73.2599C127.931 73.6618 127.453 73.9806 126.928 74.1981C126.403 74.4156 125.84 74.5275 125.272 74.5275H124.104C122.956 74.5275 121.855 74.0716 121.044 73.2599C120.232 72.4482 119.776 71.3474 119.776 70.1995V49.9355H119.768Z" fill="#407BFF"/>
<path d="M119.768 49.9359L124.68 40.9199L129.6 49.9359H119.768Z" fill="#FFBE9D"/>
<path d="M122.736 44.4879C122.736 44.4879 124.232 46.7359 126.632 44.4879L124.688 40.9199L122.736 44.4879Z" fill="#407BFF"/>
<path d="M129.736 69.2156C128.077 69.4161 126.405 69.4829 124.736 69.4156C123.069 69.483 121.4 69.4161 119.744 69.2156C121.4 69.0151 123.069 68.9482 124.736 69.0156C126.405 68.9483 128.077 69.0152 129.736 69.2156Z" fill="#263238"/>
<path d="M129.6 67.7034C127.976 67.9038 126.339 67.9707 124.704 67.9034C123.069 67.9707 121.432 67.9038 119.808 67.7034C121.433 67.5131 123.07 67.4489 124.704 67.5114C126.339 67.4489 127.976 67.5131 129.6 67.7034Z" fill="#263238"/>
<path d="M122.656 50.0801C122.76 50.0801 122.856 54.0001 122.856 58.8401C122.856 63.6801 122.76 67.6401 122.656 67.6401C122.552 67.6401 122.456 63.7121 122.456 58.8401C122.456 53.9681 122.544 50.0801 122.656 50.0801Z" fill="#FAFAFA"/>
<path d="M126.632 50.0801C126.744 50.0801 126.832 54.0001 126.832 58.8401C126.832 63.6801 126.744 67.6401 126.632 67.6401C126.52 67.6401 126.432 63.7121 126.432 58.8401C126.432 53.9681 126.52 50.0801 126.632 50.0801Z" fill="#FAFAFA"/>
<path d="M205.192 326.976L249.856 328.888L250.936 331.488L221.656 379.008L168.808 377.464L205.192 326.976Z" fill="#263238"/>
<path d="M166.808 372.831L219.968 375.871L247.744 332.775L228.24 334.359L178.888 351.735L166.808 372.831Z" fill="#E0E0E0"/>
<path d="M159.336 369.64L208.136 370.44C206.112 364.192 210.888 355.4 217.456 352.44C221.808 350.48 229.992 347.936 234.216 345.768C242.216 341.648 249.496 333.856 248.864 327.16L228.8 326.496L203.2 325.504C201.056 331.856 196.48 336.008 189.52 338.512C183.296 340.752 176.208 340.744 170.128 343.312C160.352 347.408 155.656 360.68 159.296 369.664" fill="#EBEBEB"/>
<path d="M159.336 369.639C159.336 369.639 159.288 369.535 159.216 369.319L158.88 368.383C158.703 367.861 158.564 367.326 158.464 366.783C158.301 366.051 158.189 365.308 158.128 364.559C157.973 362.482 158.102 360.393 158.512 358.351C159.08 355.601 160.143 352.978 161.648 350.607C162.072 349.922 162.54 349.265 163.048 348.639C163.312 348.327 163.568 347.983 163.848 347.679L164.752 346.759C165.055 346.444 165.381 346.152 165.728 345.887C166.072 345.607 166.408 345.311 166.776 345.047C167.538 344.511 168.341 344.035 169.176 343.623C172.56 341.919 176.6 341.223 180.808 340.423C182.92 340.039 185.096 339.623 187.272 339.039C189.511 338.425 191.672 337.556 193.712 336.447C194.766 335.877 195.77 335.219 196.712 334.479C197.684 333.732 198.576 332.888 199.376 331.959C201.033 330.044 202.295 327.82 203.088 325.415L203.136 325.279H203.272L224.592 326.079C231.992 326.367 239.648 326.567 247.488 326.831L248.912 326.879H249.088V327.055C249.195 328.588 248.977 330.125 248.448 331.567C248.196 332.28 247.896 332.974 247.552 333.647C247.199 334.309 246.809 334.95 246.384 335.567C244.697 337.989 242.659 340.146 240.336 341.967C238.091 343.755 235.638 345.268 233.032 346.471C230.456 347.631 227.848 348.575 225.296 349.519C222.744 350.463 220.216 351.359 217.824 352.399C216.647 352.921 215.541 353.594 214.536 354.399C214.016 354.767 213.584 355.239 213.112 355.647C212.64 356.055 212.232 356.551 211.856 357.055C210.298 358.937 209.136 361.114 208.44 363.455C207.734 365.672 207.693 368.047 208.32 370.287L208.392 370.503H208.168L172.656 369.879L162.808 369.679L160.232 369.607H159.344C159.344 369.607 159.648 369.607 160.232 369.607H162.816L172.664 369.719L208.168 370.215L208.016 370.423C207.359 368.123 207.395 365.679 208.12 363.399C208.816 361.005 209.995 358.777 211.584 356.855C211.96 356.343 212.432 355.903 212.856 355.423C213.28 354.943 213.784 354.519 214.312 354.135C215.336 353.309 216.466 352.623 217.672 352.095C220.072 351.039 222.616 350.135 225.168 349.191C227.72 348.247 230.32 347.295 232.872 346.143C235.444 344.952 237.861 343.453 240.072 341.679C242.364 339.887 244.376 337.762 246.04 335.375C246.458 334.777 246.845 334.157 247.2 333.519C247.535 332.864 247.826 332.188 248.072 331.495C248.582 330.107 248.795 328.627 248.696 327.151L248.888 327.327L247.456 327.287C239.616 327.023 231.96 326.815 224.568 326.487L203.24 325.687L203.424 325.559C202.608 328.007 201.32 330.271 199.632 332.223C198.816 333.167 197.904 334.025 196.912 334.783C195.954 335.536 194.931 336.202 193.856 336.775C191.795 337.896 189.609 338.771 187.344 339.383C185.144 339.983 182.96 340.383 180.848 340.759C176.64 341.511 172.616 342.215 169.28 343.879C168.464 344.281 167.68 344.747 166.936 345.271C166.568 345.527 166.24 345.823 165.896 346.071C165.552 346.334 165.228 346.622 164.928 346.935L164 347.855C163.712 348.159 163.464 348.495 163.2 348.807C162.69 349.42 162.223 350.067 161.8 350.743C160.295 353.085 159.229 355.683 158.656 358.407C158.227 360.431 158.079 362.503 158.216 364.567C158.264 365.312 158.366 366.053 158.52 366.783C158.61 367.325 158.738 367.86 158.904 368.383C159.04 368.799 159.136 369.111 159.208 369.335C159.28 369.559 159.336 369.639 159.336 369.639Z" fill="#263238"/>
<path d="M216.952 326.296C216.952 326.296 217.016 325.984 217.064 325.424C217.123 324.636 216.992 323.846 216.68 323.12C216.245 322.037 215.424 321.153 214.376 320.64C213.734 320.34 213.039 320.174 212.331 320.149C211.623 320.124 210.917 320.243 210.256 320.496C209.594 320.75 208.991 321.134 208.481 321.626C207.971 322.118 207.566 322.708 207.288 323.36C206.798 324.421 206.634 325.604 206.816 326.76C206.932 327.537 207.205 328.282 207.616 328.952C207.92 329.432 208.144 329.656 208.12 329.68C207.873 329.509 207.661 329.292 207.496 329.04C207.001 328.381 206.664 327.617 206.512 326.808C206.275 325.594 206.417 324.337 206.92 323.208C207.213 322.507 207.645 321.873 208.19 321.344C208.735 320.815 209.382 320.403 210.091 320.132C210.8 319.861 211.557 319.737 212.316 319.768C213.075 319.799 213.819 319.984 214.504 320.312C215.618 320.876 216.476 321.843 216.904 323.016C217.204 323.778 217.297 324.605 217.176 325.416C217.144 325.636 217.091 325.853 217.016 326.064C217 326.232 216.968 326.296 216.952 326.296Z" fill="#263238"/>
<path d="M224.608 326.295C224.568 326.295 224.672 325.983 224.72 325.423C224.775 324.636 224.644 323.846 224.336 323.119C223.897 322.036 223.074 321.154 222.024 320.639C221.382 320.341 220.686 320.175 219.979 320.151C219.271 320.127 218.566 320.246 217.905 320.499C217.244 320.753 216.64 321.137 216.13 321.628C215.621 322.119 215.214 322.708 214.936 323.359C214.448 324.422 214.287 325.605 214.472 326.759C214.585 327.537 214.857 328.284 215.272 328.951C215.576 329.431 215.8 329.655 215.776 329.679C215.523 329.513 215.307 329.295 215.144 329.039C214.652 328.379 214.316 327.616 214.16 326.807C213.93 325.593 214.075 324.337 214.576 323.207C214.869 322.507 215.3 321.874 215.845 321.346C216.389 320.818 217.035 320.407 217.744 320.136C218.452 319.865 219.208 319.741 219.966 319.771C220.724 319.801 221.468 319.985 222.152 320.311C223.266 320.876 224.124 321.842 224.552 323.015C224.849 323.778 224.945 324.604 224.832 325.415C224.802 325.637 224.746 325.855 224.664 326.063C224.662 326.144 224.643 326.223 224.608 326.295Z" fill="#263238"/>
<path d="M230.4 326.696C230.4 326.696 230.448 326.376 230.464 325.816C230.476 325.026 230.301 324.245 229.952 323.536C229.451 322.482 228.58 321.65 227.504 321.2C226.847 320.94 226.146 320.813 225.44 320.827C224.734 320.841 224.038 320.995 223.392 321.28C222.092 321.876 221.082 322.963 220.584 324.304C220.156 325.393 220.058 326.584 220.304 327.728C220.473 328.501 220.8 329.231 221.264 329.872C221.592 330.328 221.832 330.544 221.808 330.568C221.547 330.417 221.321 330.212 221.144 329.968C220.612 329.337 220.232 328.592 220.032 327.792C219.732 326.593 219.804 325.332 220.24 324.176C220.492 323.46 220.888 322.802 221.402 322.244C221.916 321.685 222.539 321.237 223.232 320.926C223.925 320.616 224.673 320.449 225.433 320.437C226.192 320.425 226.946 320.568 227.648 320.856C228.792 321.355 229.704 322.27 230.2 323.416C230.548 324.165 230.691 324.993 230.616 325.816C230.599 326.039 230.556 326.259 230.488 326.472C230.464 326.624 230.4 326.696 230.4 326.696Z" fill="#263238"/>
<path d="M236.648 327.047C236.648 327.047 236.648 326.727 236.648 326.167C236.622 325.378 236.405 324.607 236.016 323.919C235.463 322.891 234.548 322.104 233.448 321.711C232.778 321.485 232.069 321.395 231.363 321.448C230.658 321.501 229.97 321.695 229.341 322.019C228.712 322.343 228.154 322.79 227.701 323.333C227.248 323.877 226.909 324.506 226.704 325.183C226.332 326.292 226.299 327.487 226.608 328.615C226.819 329.38 227.184 330.093 227.68 330.711C228.032 331.143 228.28 331.343 228.256 331.375C227.988 331.235 227.752 331.042 227.56 330.807C226.998 330.205 226.579 329.483 226.336 328.695C225.967 327.515 225.967 326.251 226.336 325.071C226.552 324.344 226.912 323.668 227.394 323.082C227.877 322.497 228.472 322.014 229.144 321.663C229.822 321.316 230.562 321.111 231.322 321.06C232.081 321.009 232.843 321.114 233.56 321.367C234.725 321.802 235.685 322.658 236.248 323.767C236.636 324.506 236.821 325.334 236.784 326.167C236.777 326.388 236.747 326.608 236.696 326.823C236.688 326.975 236.664 327.047 236.648 327.047Z" fill="#263238"/>
<path d="M242.888 326.903C242.888 326.903 242.888 326.583 242.888 326.023C242.839 325.234 242.601 324.468 242.192 323.791C241.61 322.781 240.676 322.021 239.568 321.655C238.891 321.446 238.179 321.375 237.474 321.447C236.769 321.519 236.086 321.733 235.466 322.075C234.845 322.417 234.3 322.88 233.862 323.438C233.425 323.995 233.105 324.635 232.92 325.319C232.632 326.256 232.585 327.251 232.782 328.211C232.979 329.172 233.414 330.067 234.048 330.815C234.416 331.239 234.672 331.431 234.648 331.455C234.374 331.331 234.131 331.148 233.936 330.919C233.36 330.33 232.923 329.619 232.656 328.839C232.257 327.669 232.227 326.404 232.568 325.215C232.765 324.482 233.106 323.796 233.572 323.197C234.037 322.598 234.618 322.098 235.28 321.727C235.947 321.363 236.681 321.138 237.437 321.067C238.194 320.995 238.957 321.079 239.68 321.311C240.86 321.716 241.846 322.55 242.44 323.647C242.849 324.38 243.056 325.208 243.04 326.047C243.04 326.271 243.016 326.493 242.968 326.711C242.928 326.823 242.904 326.903 242.888 326.903Z" fill="#263238"/>
<path d="M248.152 327.6C248.152 327.6 248.152 327.28 248.152 326.72C248.135 325.929 247.926 325.155 247.544 324.464C247.002 323.434 246.099 322.639 245.008 322.232C244.341 321.996 243.633 321.897 242.926 321.941C242.22 321.985 241.53 322.171 240.897 322.488C240.263 322.804 239.701 323.245 239.241 323.784C238.782 324.323 238.436 324.948 238.224 325.624C237.902 326.549 237.816 327.54 237.974 328.506C238.132 329.473 238.529 330.385 239.128 331.16C239.48 331.6 239.72 331.8 239.704 331.832C239.438 331.689 239.203 331.493 239.016 331.256C238.457 330.649 238.046 329.92 237.816 329.128C237.464 327.942 237.483 326.677 237.872 325.504C238.097 324.779 238.465 324.106 238.954 323.527C239.443 322.947 240.044 322.471 240.72 322.128C241.402 321.79 242.144 321.594 242.904 321.553C243.663 321.512 244.423 321.626 245.136 321.888C246.301 322.336 247.251 323.211 247.792 324.336C248.173 325.076 248.35 325.904 248.304 326.736C248.295 326.957 248.263 327.177 248.208 327.392C248.192 327.528 248.168 327.608 248.152 327.6Z" fill="#263238"/>
<path d="M271.2 163.72C268.99 163.654 266.779 163.755 264.584 164.024C257.926 164.881 251.81 168.143 247.39 173.195C242.969 178.248 240.549 184.743 240.584 191.456C240.561 195.873 241.134 200.272 242.288 204.536C246.136 218.184 247.32 230.208 246.88 236.072L259.76 242.992C259.76 242.992 265.72 234.424 271.48 230.728C277.24 227.032 296.408 217.128 304 207.008C308.888 200.464 309.832 187.008 298.168 175.28C290.994 168.111 281.339 163.972 271.2 163.72Z" fill="#407BFF"/>
<path d="M240.72 250.968L252.352 257.256L244.784 266.872L237.024 263.352L240.72 250.968Z" fill="#455A64"/>
<path d="M241.288 251.36C241.184 251.32 242.336 247.864 243.864 243.648C245.392 239.432 246.712 236.032 246.816 236.072C246.92 236.112 245.768 239.56 244.24 243.784C242.712 248.008 241.392 251.392 241.288 251.36Z" fill="#263238"/>
<path d="M251.624 256.799C251.528 256.743 253.352 253.479 255.688 249.511C258.024 245.543 260 242.399 260.104 242.399C260.208 242.399 258.376 245.719 256.032 249.687C253.688 253.655 251.712 256.839 251.624 256.799Z" fill="#263238"/>
<g opacity="0.4">
<path opacity="0.4" d="M275.04 164.088C274.52 164.088 268.12 171.608 265.288 176.68C255.76 193.744 255.328 210.344 252.688 229.704C252.312 232.472 250.936 238.432 250.96 238.296C252.368 239.4 257.104 241.6 257.104 241.6C257.104 241.6 261.576 236.208 263.352 233.496C270.456 222.64 278.176 214.168 284.264 202.704C290.352 191.24 296.208 181.104 290.576 169.376C290.576 169.376 280.8 163.76 275.04 164.088Z" fill="black"/>
</g>
<path d="M304 208.72C303.933 208.603 303.877 208.48 303.832 208.352C303.728 208.112 303.6 207.736 303.384 207.272C302.781 205.929 302.027 204.66 301.136 203.488C299.769 201.679 298.099 200.12 296.2 198.88C293.767 197.267 290.993 196.241 288.096 195.88H288L287.952 195.816C286.397 193.68 284.66 191.684 282.76 189.848C280.68 187.841 278.283 186.192 275.664 184.968C273.033 183.778 270.157 183.229 267.272 183.368C264.644 183.471 262.1 184.32 259.936 185.816L259.816 185.896L259.712 185.8C257.513 183.87 254.778 182.657 251.872 182.32C249.615 182.063 247.329 182.354 245.208 183.168C243.835 183.693 242.546 184.419 241.384 185.32C240.984 185.64 240.68 185.896 240.488 186.072C240.393 186.168 240.289 186.253 240.176 186.328C240.261 186.224 240.352 186.125 240.448 186.032C240.632 185.84 240.92 185.568 241.312 185.232C242.459 184.279 243.75 183.515 245.136 182.968C247.284 182.106 249.61 181.782 251.912 182.024C254.888 182.345 257.695 183.57 259.952 185.536H259.728C261.944 183.99 264.556 183.11 267.256 183C270.199 182.849 273.135 183.398 275.824 184.6C278.484 185.844 280.917 187.523 283.024 189.568C284.94 191.422 286.685 193.443 288.24 195.608L288.12 195.536C291.067 195.91 293.885 196.973 296.344 198.64C298.258 199.916 299.933 201.516 301.296 203.368C302.177 204.565 302.908 205.865 303.472 207.24C303.672 207.712 303.784 208.096 303.872 208.344C303.923 208.466 303.966 208.592 304 208.72Z" fill="#263238"/>
<path d="M280.048 225.719C279.85 224.729 279.473 223.783 278.936 222.927C278.307 221.949 277.461 221.128 276.464 220.527C275.189 219.738 273.693 219.385 272.2 219.519H272.04V219.359C271.728 217.444 270.931 215.641 269.725 214.12C268.52 212.6 266.945 211.413 265.152 210.671C263.562 210.05 261.854 209.79 260.152 209.911C258.588 210.025 257.065 210.464 255.68 211.199L255.56 211.263L255.464 211.159C254.266 209.904 252.7 209.064 250.992 208.759C249.666 208.502 248.299 208.546 246.992 208.887C245.833 209.211 244.746 209.754 243.792 210.487C243.792 210.487 243.84 210.415 243.96 210.311C244.08 210.207 244.256 210.039 244.504 209.855C245.234 209.338 246.045 208.946 246.904 208.695C248.243 208.31 249.653 208.238 251.024 208.487C252.811 208.782 254.453 209.65 255.704 210.959L255.488 210.919C256.91 210.164 258.474 209.712 260.08 209.591C261.841 209.468 263.607 209.741 265.248 210.391C267.222 211.189 268.933 212.525 270.184 214.247C271.31 215.76 272.046 217.527 272.328 219.391L272.144 219.247C273.706 219.125 275.264 219.516 276.584 220.359C277.599 220.99 278.453 221.847 279.08 222.863C279.481 223.514 279.768 224.228 279.928 224.975C279.968 225.171 279.998 225.369 280.016 225.567C280.031 225.617 280.042 225.668 280.048 225.719Z" fill="#263238"/>
<path d="M250.104 260.288C250.104 260.288 249.976 260.128 249.68 260C249.234 259.865 248.756 259.882 248.32 260.048C247.985 260.153 247.639 260.215 247.288 260.232C247.072 260.23 246.859 260.185 246.661 260.098C246.463 260.011 246.284 259.886 246.136 259.728C245.52 259.08 245.288 258.128 244.704 257.512C244.571 257.36 244.406 257.241 244.22 257.162C244.035 257.083 243.834 257.047 243.632 257.056C243.22 257.101 242.813 257.184 242.416 257.304C242.021 257.417 241.605 257.439 241.2 257.368C240.775 257.263 240.387 257.04 240.083 256.724C239.779 256.408 239.57 256.013 239.48 255.584C239.426 255.407 239.426 255.217 239.48 255.04C239.48 255.04 239.48 255.232 239.616 255.552C239.767 255.994 240.045 256.381 240.416 256.664C240.66 256.859 240.949 256.988 241.256 257.04C241.614 257.088 241.977 257.056 242.32 256.944C242.739 256.809 243.171 256.718 243.608 256.672C243.866 256.657 244.123 256.7 244.361 256.799C244.599 256.897 244.812 257.048 244.984 257.24C245.664 258.04 245.872 258.92 246.392 259.472C246.622 259.729 246.944 259.884 247.288 259.904C247.61 259.9 247.93 259.855 248.24 259.768C248.734 259.615 249.266 259.649 249.736 259.864C250.072 260.056 250.12 260.288 250.104 260.288Z" fill="#263238"/>
<path d="M251.44 258.4C249.491 257.59 247.597 256.654 245.768 255.6C243.874 254.662 242.038 253.61 240.272 252.448C242.221 253.264 244.118 254.199 245.952 255.248C247.844 256.187 249.676 257.24 251.44 258.4Z" fill="#263238"/>
<path d="M249.128 261.352C249.128 261.352 248.968 261.432 248.688 261.56C248.544 261.624 248.384 261.72 248.16 261.816C247.904 261.905 247.631 261.941 247.36 261.92C246.658 261.881 245.985 261.621 245.44 261.176C245.122 260.905 244.872 260.562 244.712 260.176C244.582 259.798 244.39 259.444 244.144 259.128C243.856 258.885 243.519 258.705 243.157 258.601C242.794 258.496 242.414 258.468 242.04 258.52C241.36 258.6 240.67 258.534 240.016 258.328C239.568 258.157 239.202 257.823 238.992 257.392C238.864 257.08 238.912 256.88 238.928 256.888C238.944 256.896 238.976 257.064 239.136 257.32C239.368 257.675 239.716 257.938 240.12 258.064C240.743 258.22 241.39 258.25 242.024 258.152C242.451 258.089 242.887 258.12 243.301 258.241C243.716 258.363 244.099 258.572 244.424 258.856C244.695 259.205 244.906 259.597 245.048 260.016C245.183 260.355 245.394 260.659 245.664 260.904C246.148 261.31 246.741 261.566 247.368 261.64C247.797 261.678 248.228 261.601 248.616 261.416C248.944 261.328 249.128 261.328 249.128 261.352Z" fill="#263238"/>
<path d="M161.296 186.641L181.416 183.657L171.816 170.057L166.664 170.361C164.962 170.459 163.32 171.028 161.923 172.006C160.525 172.984 159.428 174.331 158.752 175.897C158.022 177.595 157.818 179.473 158.168 181.289L161.296 186.641Z" fill="#407BFF"/>
<path opacity="0.4" d="M161.296 186.641L181.416 183.657L171.816 170.057L166.664 170.361C164.962 170.459 163.32 171.028 161.923 172.006C160.525 172.984 159.428 174.331 158.752 175.897C158.022 177.595 157.818 179.473 158.168 181.289L161.296 186.641Z" fill="black"/>
<path d="M247.712 208.928C247.92 209.504 248.144 210.184 248.376 211C248.567 211.703 248.64 212.433 248.592 213.16C248.56 214.062 248.407 214.955 248.136 215.816C247.808 216.616 248.576 217.352 249.224 216.968C249.872 216.584 250.824 214.504 250.824 211.832C250.824 209.16 253.496 212.36 254.512 213.512C255.528 214.664 258.84 218.08 259.44 218.048C260.32 218 260.432 217.048 259.392 215.92C258.352 214.792 255.464 211.2 256.096 210.688C256.728 210.176 261.816 216.12 261.816 216.12C261.816 216.12 262.696 217.568 263.416 217.008C264.776 215.992 258.896 210.08 258.32 209.536C257.928 209.152 258.592 208.576 259 209.008C259.408 209.44 263.944 215.048 265.336 214.024C266.4 213.224 260.536 209.12 260.248 207.44C259.96 205.76 264.376 211.016 265.36 210.232C265.736 209.936 265.968 209.664 262.96 207.032C261.52 205.736 256.032 201.896 256.032 201.896L239.52 154.624L226.768 161.928L247.712 208.928Z" fill="#FFBE9D"/>
<path d="M149.416 119.521L130.968 97.5046C130.735 96.7449 130.433 96.0084 130.064 95.3046C129.636 94.4263 129.027 93.6486 128.277 93.0226C127.527 92.3966 126.653 91.9365 125.712 91.6726C124.544 91.4166 123.2 91.5446 122.28 90.7766C121.872 90.4326 121.6 89.9766 121.168 89.6246C120.736 89.2726 120.024 89.2406 119.744 89.6966C119.672 89.8745 119.642 90.0665 119.656 90.2579C119.67 90.4493 119.727 90.6349 119.824 90.8006C120.517 92.4295 121.619 93.8516 123.024 94.9286C121.296 95.4566 118.824 96.2566 118.824 96.2566C118.824 96.2566 114.928 92.0246 112.928 92.0326C110.928 92.0406 114.528 95.8166 114.528 95.8166C114.528 95.8166 111.328 92.8566 110.336 93.6886C109.344 94.5206 111.888 96.7206 111.888 96.7206C111.124 96.2011 110.211 95.9455 109.288 95.9926C108.384 96.1446 107.608 97.2086 108.096 97.9846C108.304 98.2642 108.579 98.4871 108.896 98.6326L113.808 101.369C114.594 101.893 115.493 102.222 116.432 102.329C118.928 102.409 120.824 100.865 123.312 100.929C123.312 100.929 137.224 130.217 138.632 131.729C140.04 133.241 170.632 135.297 170.632 135.297L188.32 120.057L149.416 119.521Z" fill="#FFBE9D"/>
<path d="M204.84 279.064L223.68 287.264L213.6 310.76C211.408 309.664 212.128 295.56 212.128 295.56L199.84 290.8L204.84 279.064Z" fill="#407BFF"/>
<g opacity="0.6">
<path opacity="0.6" d="M214.216 287.872C214.381 287.675 214.614 287.545 214.869 287.508C215.125 287.471 215.385 287.53 215.6 287.672C215.801 287.832 215.934 288.062 215.971 288.317C216.008 288.571 215.947 288.83 215.8 289.04C215.625 289.248 215.379 289.384 215.11 289.421C214.841 289.458 214.568 289.393 214.344 289.24C214.148 289.054 214.032 288.798 214.022 288.528C214.012 288.257 214.107 287.994 214.288 287.792" fill="white"/>
</g>
<path opacity="0.6" d="M223.68 287.265L221.744 286.513L212.8 309.321C212.8 309.321 212.8 310.569 213.6 310.761L223.68 287.265Z" fill="white"/>
<path d="M211.832 295.904C211.952 295.944 212.248 295.392 212.864 294.992C213.48 294.592 214.08 294.488 214.08 294.368C214.08 294.248 213.344 294.128 212.616 294.632C211.888 295.136 211.72 295.88 211.832 295.904Z" fill="#263238"/>
<path d="M211.792 298.8C211.896 298.88 212.304 298.464 212.96 298.28C213.616 298.096 214.168 298.208 214.216 298.096C214.264 297.984 213.64 297.624 212.832 297.864C212.024 298.104 211.688 298.752 211.792 298.8Z" fill="#263238"/>
<path d="M214.144 301.472C214.216 301.376 213.704 300.968 212.952 300.992C212.2 301.016 211.72 301.448 211.792 301.536C211.864 301.624 212.344 301.44 212.968 301.432C213.592 301.424 214.08 301.6 214.144 301.472Z" fill="#263238"/>
<path d="M209.152 294.504C209.28 294.504 209.344 293.904 209.672 293.28C210 292.656 210.416 292.232 210.344 292.128C210.272 292.024 209.648 292.336 209.28 293.08C208.912 293.824 209.04 294.52 209.152 294.504Z" fill="#263238"/>
<path d="M206.608 292.744C206.656 292.744 206.92 292.344 207.104 291.568C207.214 291.113 207.265 290.645 207.256 290.176C207.252 289.908 207.231 289.641 207.192 289.376C207.174 289.213 207.131 289.054 207.064 288.904C207.015 288.794 206.932 288.704 206.826 288.647C206.72 288.591 206.598 288.571 206.48 288.592C206.375 288.613 206.276 288.658 206.193 288.725C206.109 288.792 206.043 288.878 206 288.976C205.935 289.127 205.892 289.286 205.872 289.448C205.743 290.196 205.807 290.964 206.056 291.68C206.32 292.44 206.672 292.808 206.712 292.776C206.752 292.744 206.528 292.32 206.344 291.592C206.245 291.165 206.199 290.727 206.208 290.288C206.214 290.02 206.241 289.752 206.288 289.488C206.328 289.216 206.416 289 206.56 288.984C206.704 288.968 206.624 288.984 206.68 289.064C206.722 289.178 206.752 289.296 206.768 289.416C206.813 289.681 206.843 289.948 206.856 290.216C206.88 290.657 206.861 291.099 206.8 291.536C206.709 291.934 206.644 292.338 206.608 292.744Z" fill="#263238"/>
<path d="M206.832 292.672C206.832 292.672 206.56 292.232 205.832 291.872C205.405 291.663 204.945 291.53 204.472 291.48C204.206 291.451 203.938 291.451 203.672 291.48C203.489 291.478 203.309 291.522 203.148 291.609C202.987 291.696 202.851 291.822 202.752 291.976C202.711 292.082 202.7 292.197 202.721 292.309C202.743 292.421 202.795 292.524 202.872 292.608C202.986 292.726 203.115 292.828 203.256 292.912C203.503 293.067 203.773 293.183 204.056 293.256C204.523 293.372 205.012 293.372 205.48 293.256C206.28 293.056 206.632 292.64 206.6 292.616C206.214 292.75 205.822 292.862 205.424 292.952C205.001 293.013 204.569 292.98 204.16 292.856C203.922 292.781 203.696 292.673 203.488 292.536C203.256 292.392 203.096 292.216 203.16 292.136C203.229 292.056 203.315 291.992 203.412 291.949C203.509 291.906 203.614 291.885 203.72 291.888C203.986 291.862 204.254 291.862 204.52 291.888C204.955 291.918 205.383 292.01 205.792 292.16C206.4 292.416 206.792 292.72 206.832 292.672Z" fill="#263238"/>
<path d="M190.328 311.336L198.12 327.664L200.56 342.4C200.601 342.651 200.694 342.89 200.832 343.104C200.97 343.317 201.15 343.499 201.362 343.64C201.574 343.78 201.812 343.875 202.062 343.92C202.312 343.964 202.569 343.956 202.816 343.896C203.104 343.83 203.371 343.695 203.595 343.502C203.82 343.31 203.994 343.066 204.104 342.792C205.536 339.248 210.744 326.168 210.104 325.008C209.368 323.664 203.024 307.24 203.024 307.24L190.328 311.336Z" fill="#407BFF"/>
<path opacity="0.6" d="M202.816 343.856L209.6 323.856L209.92 324.552C210.191 325.156 210.239 325.837 210.056 326.472C209.56 328.176 208.096 332.872 204.152 342.728C204.04 343.013 203.859 343.264 203.626 343.461C203.393 343.658 203.114 343.794 202.816 343.856Z" fill="white"/>
<g opacity="0.6">
<path opacity="0.6" d="M203.824 320.056C203.687 320.295 203.645 320.577 203.704 320.846C203.763 321.115 203.92 321.352 204.144 321.512C204.379 321.658 204.661 321.707 204.932 321.651C205.203 321.594 205.442 321.436 205.6 321.208C205.74 320.952 205.782 320.654 205.717 320.369C205.652 320.085 205.485 319.834 205.248 319.664C204.987 319.538 204.688 319.518 204.413 319.609C204.138 319.7 203.909 319.895 203.776 320.152" fill="white"/>
</g>
<path d="M203.344 334.953C202.738 334.563 202.039 334.344 201.32 334.319C200.6 334.293 199.887 334.462 199.256 334.809C199.256 334.809 199.376 334.553 199.736 334.329C200.218 334.038 200.774 333.897 201.336 333.921C201.894 333.938 202.436 334.115 202.896 334.433C203.248 334.689 203.376 334.921 203.344 334.953Z" fill="#263238"/>
<path d="M203.2 337.689C202.609 337.635 202.016 337.618 201.424 337.641C200.846 337.778 200.277 337.949 199.72 338.153C199.632 338.089 200.272 337.353 201.368 337.241C201.687 337.163 202.02 337.163 202.338 337.241C202.657 337.319 202.953 337.473 203.2 337.689Z" fill="#263238"/>
<path d="M204.256 331.136C203.352 330.979 202.437 330.891 201.52 330.872C200.606 330.975 199.701 331.151 198.816 331.4C199.603 330.841 200.533 330.519 201.497 330.472C202.461 330.425 203.419 330.656 204.256 331.136Z" fill="#263238"/>
<path d="M202.304 325.976C202.304 326.096 201.224 326.12 200.016 326.616C198.808 327.112 198 327.808 197.92 327.72C198.378 327.014 199.068 326.49 199.872 326.24C200.626 325.868 201.488 325.774 202.304 325.976Z" fill="#263238"/>
<path d="M200.136 321.12C199.312 321.214 198.505 321.419 197.736 321.729C197.023 322.145 196.371 322.659 195.8 323.257C195.76 323.257 195.84 322.945 196.128 322.561C196.504 322.052 196.998 321.643 197.568 321.368C198.131 321.087 198.754 320.944 199.384 320.952C199.864 320.968 200.144 321.08 200.136 321.12Z" fill="#263238"/>
<path d="M197.352 320.8C197.213 320.615 197.11 320.406 197.048 320.184C196.851 319.586 196.772 318.956 196.816 318.328C196.807 317.866 196.95 317.413 197.224 317.04C197.323 316.932 197.451 316.855 197.594 316.819C197.736 316.784 197.886 316.791 198.024 316.84C198.293 316.972 198.506 317.196 198.624 317.472C198.836 318.044 198.842 318.672 198.64 319.247C198.439 319.823 198.042 320.31 197.52 320.624C196.998 320.924 196.399 321.063 195.798 321.023C195.197 320.984 194.622 320.767 194.144 320.4C194.022 320.304 193.923 320.183 193.854 320.045C193.785 319.907 193.747 319.755 193.744 319.6C193.752 319.447 193.808 319.3 193.904 319.181C194.001 319.062 194.132 318.976 194.28 318.936C194.727 318.846 195.19 318.873 195.624 319.016C196.236 319.176 196.814 319.447 197.328 319.816C197.688 320.064 197.848 320.248 197.832 320.272C197.129 319.837 196.362 319.513 195.56 319.312C195.178 319.199 194.773 319.185 194.384 319.272C194.303 319.292 194.23 319.338 194.177 319.403C194.123 319.468 194.092 319.548 194.088 319.632C194.102 319.73 194.136 319.824 194.186 319.91C194.237 319.995 194.304 320.069 194.384 320.128C194.804 320.434 195.304 320.612 195.823 320.642C196.342 320.672 196.859 320.552 197.312 320.296C197.765 320.032 198.114 319.619 198.297 319.128C198.481 318.637 198.489 318.097 198.32 317.6C198.248 317.404 198.105 317.241 197.92 317.144C197.844 317.109 197.758 317.1 197.676 317.117C197.594 317.134 197.52 317.177 197.464 317.24C197.229 317.555 197.1 317.936 197.096 318.328C197.035 319.161 197.122 319.998 197.352 320.8Z" fill="#263238"/>
<path d="M216.584 281.056L195.216 266.656L202.288 197.224L182.048 185.408L163.544 181.12C163.544 181.12 155.816 197.2 152.344 207.52C145.032 229.416 139.904 237.264 141.08 253.12C141.448 258.144 159.992 270.72 171.704 277.688C171.835 279.083 172.044 280.469 172.328 281.84C176.328 299.936 188.552 324 188.552 324L207.112 315.368L201.128 294.848L207.368 298.488L216.584 281.056ZM170.656 236.256L173.152 225.128C172.624 232.208 172.144 239.592 171.8 246.672C170.593 243.349 170.201 239.786 170.656 236.28V236.256Z" fill="#263238"/>
<path d="M188.584 324C188.527 323.906 188.479 323.807 188.44 323.704L188.048 322.832L186.616 319.448C185.384 316.496 183.616 312.248 181.496 306.928C179.376 301.608 176.864 295.304 174.296 288.184C173.664 286.4 173.048 284.568 172.464 282.672C172.208 281.712 171.88 280.768 171.712 279.752C171.664 279.504 171.608 279.248 171.568 279L171.48 278.24L171.312 276.72C171.088 274.672 170.909 272.587 170.776 270.464C170.712 269.408 170.656 268.336 170.608 267.264C170.56 266.192 170.528 265.096 170.608 264C170.928 255.28 171.656 247.008 172.264 239.48C172.872 231.952 173.456 225.184 173.936 219.48C174.416 213.776 174.736 209.184 174.896 205.992C175 204.392 175.056 203.16 175.088 202.328L175.144 201.368C175.13 201.262 175.13 201.154 175.144 201.048C175.153 201.154 175.153 201.261 175.144 201.368C175.144 201.608 175.144 201.92 175.144 202.328C175.144 203.168 175.104 204.408 175.032 206C174.896 209.2 174.616 213.808 174.192 219.504C173.768 225.2 173.2 231.976 172.592 239.504C171.984 247.032 171.288 255.304 170.992 264C170.928 265.088 170.992 266.16 170.992 267.24C170.992 268.32 171.088 269.376 171.16 270.44C171.288 272.573 171.461 274.651 171.68 276.672L171.848 278.2L171.936 278.952C171.976 279.2 172.032 279.44 172.08 279.688C172.24 280.664 172.56 281.616 172.816 282.568C173.384 284.448 174 286.28 174.624 288.064C177.136 295.176 179.624 301.504 181.704 306.824C183.784 312.144 185.52 316.424 186.712 319.384C187.296 320.856 187.76 322 188.08 322.8C188.224 323.176 188.344 323.472 188.424 323.688C188.504 323.904 188.584 324 188.584 324Z" fill="#455A64"/>
<path d="M174.296 198.696C174.296 198.696 174.112 198.584 173.816 198.304C173.433 197.874 173.128 197.381 172.912 196.848C172.278 195.083 171.969 193.219 172 191.344C171.975 189.474 172.063 187.604 172.264 185.744C172.301 184.976 172.408 184.213 172.584 183.464C172.649 184.23 172.649 185.001 172.584 185.768C172.512 187.184 172.4 189.144 172.432 191.304C172.419 193.14 172.689 194.966 173.232 196.72C173.42 197.234 173.675 197.721 173.992 198.168C174.184 198.496 174.32 198.68 174.296 198.696Z" fill="#455A64"/>
<path d="M166.312 182.176C166.5 182.803 166.555 183.462 166.472 184.112C166.365 185.705 165.835 187.24 164.937 188.559C164.038 189.879 162.803 190.934 161.36 191.616C160.784 191.93 160.149 192.12 159.496 192.176C159.496 192.112 160.192 191.92 161.232 191.376C162.585 190.656 163.744 189.618 164.608 188.351C165.472 187.084 166.015 185.627 166.192 184.104C166.328 182.92 166.24 182.176 166.312 182.176Z" fill="#455A64"/>
<path d="M199.512 222.544C199.512 222.544 199.512 222.616 199.512 222.752C199.512 222.888 199.512 223.12 199.464 223.368C199.4 223.944 199.32 224.744 199.224 225.768C198.992 227.856 198.672 230.824 198.272 234.472C197.472 241.856 196.288 251.992 195.024 263.2C194.573 268.476 194.927 273.79 196.072 278.96C196.573 281.212 197.217 283.43 198 285.6C198.72 287.648 199.384 289.56 200 291.312C201.208 294.784 202.184 297.608 202.872 299.592C203.192 300.552 203.448 301.304 203.672 301.848L203.864 302.44C203.891 302.504 203.907 302.571 203.912 302.64C203.912 302.64 203.912 302.584 203.824 302.448C203.736 302.312 203.688 302.112 203.6 301.872C203.392 301.336 203.12 300.592 202.8 299.64L199.808 291.408C199.184 289.664 198.496 287.752 197.76 285.712C196.958 283.53 196.298 281.299 195.784 279.032C194.606 273.829 194.236 268.476 194.688 263.16C195.936 251.92 197.184 241.792 198.056 234.44C198.512 230.792 198.856 227.824 199.136 225.744C199.264 224.736 199.368 223.952 199.448 223.344C199.448 223.096 199.512 222.896 199.536 222.736C199.519 222.673 199.511 222.609 199.512 222.544Z" fill="#455A64"/>
<path d="M163.544 181L166.824 172.624L174.304 183.776L164.328 181.288" fill="#FFBE9D"/>
<path d="M241.8 155.824L232.928 135.928C231.864 132.728 229.872 132.232 228.208 130.376L205.976 117.84C189.768 111.2 180.944 133.456 180.944 133.456L166.216 167.056C148.896 172.792 161.16 186.096 161.16 186.096C161.16 186.096 156.448 177.904 161.088 174.952C165.936 171.856 171.312 180.008 176.48 187.752C182.584 196.888 202.408 202.824 202.408 202.824C204.728 200.376 204.08 191.824 205.896 187.232C206.472 185.784 220.2 153.984 220.2 153.984L225.52 166.872C225.52 166.872 232.336 158.872 235.648 157.608C237.644 156.84 239.702 156.244 241.8 155.824Z" fill="#407BFF"/>
<path d="M202.4 169.968C202.196 170.153 201.97 170.311 201.728 170.44C201.082 170.815 200.405 171.134 199.704 171.392C197.374 172.27 194.856 172.532 192.395 172.152C189.934 171.772 187.613 170.764 185.656 169.224C185.065 168.768 184.516 168.259 184.016 167.704C183.817 167.516 183.65 167.297 183.52 167.056C183.576 167 184.32 167.904 185.824 169C187.778 170.442 190.053 171.389 192.454 171.76C194.855 172.13 197.309 171.914 199.608 171.128C201.384 170.536 202.4 169.904 202.4 169.968Z" fill="#263238"/>
<path d="M165.6 138.4L179.32 139.696L201.272 116.496L188.36 116.048L165.376 118.32C166.585 124.952 166.661 131.742 165.6 138.4Z" fill="#407BFF"/>
<path d="M184.616 126.192C184.583 126.342 184.526 126.485 184.448 126.616L183.896 127.8C183.4 128.872 182.704 130.352 181.864 132.144C180.16 135.824 177.864 140.944 175.464 146.624C173.064 152.304 170.776 157.448 169.064 161.136C168.224 162.984 167.528 164.464 167.032 165.488L166.448 166.656C166.387 166.798 166.309 166.933 166.216 167.056C166.257 166.908 166.31 166.763 166.376 166.624L166.888 165.424L168.808 161.024C170.408 157.256 172.64 152.128 175.072 146.464C177.504 140.8 179.872 135.68 181.608 132.024C182.496 130.2 183.208 128.736 183.76 127.728C184.016 127.264 184.216 126.88 184.376 126.576C184.442 126.44 184.522 126.311 184.616 126.192Z" fill="#263238"/>
<path d="M226.496 132.937C226.536 133.009 225.696 133.449 224.52 134.441C223.845 135.019 223.227 135.659 222.672 136.353C221.996 137.209 221.412 138.134 220.928 139.113C220.464 140.098 220.099 141.127 219.84 142.185C219.638 143.054 219.52 143.941 219.488 144.833C219.432 146.353 219.608 147.297 219.528 147.305C219.444 147.097 219.39 146.879 219.368 146.657C219.308 146.394 219.27 146.126 219.256 145.857C219.215 145.506 219.196 145.153 219.2 144.801C219.194 143.886 219.288 142.974 219.48 142.081C219.72 140.977 220.082 139.904 220.56 138.881C221.061 137.878 221.67 136.934 222.376 136.065C222.961 135.365 223.618 134.73 224.336 134.169C224.607 133.946 224.893 133.743 225.192 133.561C225.407 133.406 225.635 133.27 225.872 133.153C226.067 133.048 226.278 132.975 226.496 132.937Z" fill="#263238"/>
<path d="M230.328 101.072L217.456 125.136C216.441 127.029 214.748 128.467 212.716 129.162C210.684 129.857 208.465 129.756 206.504 128.88C205.447 128.403 204.5 127.713 203.72 126.855C202.94 125.997 202.344 124.988 201.969 123.89C201.594 122.793 201.449 121.63 201.54 120.474C201.632 119.318 201.96 118.193 202.504 117.168L204.72 112.992C204.72 112.992 199.12 109.368 201.744 103.32C204.08 97.9285 212.656 82.6965 214.472 79.4805L225.32 84.3365C226.764 85.0895 228.042 86.1245 229.079 87.3801C230.117 88.6357 230.892 90.0865 231.358 91.6468C231.825 93.207 231.975 94.845 231.798 96.464C231.621 98.0829 231.121 99.65 230.328 101.072Z" fill="#FFBE9D"/>
<path d="M204.72 112.904C207.475 114.198 210.552 114.643 213.56 114.184C213.56 114.184 209.768 117.68 204.008 114.456L204.72 112.904Z" fill="#EB996E"/>
<path d="M208.856 93.664C208.753 93.8873 208.742 94.1417 208.824 94.3733C208.906 94.6048 209.075 94.7952 209.296 94.904C209.401 94.9611 209.517 94.9967 209.636 95.0087C209.755 95.0207 209.876 95.0089 209.99 94.9739C210.105 94.9389 210.212 94.8814 210.304 94.8049C210.396 94.7283 210.472 94.6342 210.528 94.528C210.63 94.3047 210.642 94.0502 210.559 93.8187C210.477 93.5872 210.308 93.3968 210.088 93.288C209.982 93.2309 209.867 93.1953 209.747 93.1833C209.628 93.1713 209.508 93.1831 209.393 93.2181C209.278 93.2531 209.172 93.3105 209.08 93.3871C208.987 93.4636 208.911 93.5577 208.856 93.664Z" fill="#263238"/>
<path d="M208.904 92.9043C208.96 93.0643 209.824 92.9043 210.752 93.2883C211.68 93.6723 212.144 94.4643 212.296 94.4003C212.448 94.3363 212.344 94.1203 212.152 93.7763C211.874 93.3208 211.463 92.9608 210.976 92.7443C210.494 92.5284 209.957 92.4696 209.44 92.5763C209.064 92.6643 208.872 92.8003 208.904 92.9043Z" fill="#263238"/>
<path d="M217.504 97.9199C217.399 98.1429 217.387 98.3981 217.469 98.6302C217.552 98.8623 217.722 99.0526 217.944 99.1599C218.05 99.2167 218.166 99.2519 218.286 99.2633C218.405 99.2747 218.526 99.2622 218.641 99.2264C218.755 99.1907 218.862 99.1324 218.954 99.0551C219.046 98.9777 219.121 98.8828 219.176 98.7759C219.276 98.5534 219.286 98.3009 219.204 98.0713C219.122 97.8416 218.954 97.6526 218.736 97.5439C218.631 97.4856 218.515 97.4491 218.396 97.4366C218.276 97.424 218.155 97.4356 218.04 97.4707C217.925 97.5057 217.819 97.5636 217.727 97.6408C217.634 97.7179 217.559 97.8128 217.504 97.9199Z" fill="#263238"/>
<path d="M217.912 97.1362C217.968 97.2962 218.832 97.1362 219.76 97.5202C220.688 97.9042 221.152 98.7042 221.304 98.6402C221.456 98.5762 221.36 98.3602 221.16 98.0082C220.881 97.5553 220.471 97.1981 219.984 96.9842C219.503 96.7644 218.964 96.7055 218.448 96.8162C218.072 96.9042 217.88 97.0642 217.912 97.1362Z" fill="#263238"/>
<path d="M211.488 102.489C211.068 102.123 210.606 101.808 210.112 101.553C209.888 101.417 209.68 101.273 209.712 101.097C209.744 100.921 209.952 100.689 210.184 100.465L211.688 98.9766C213.016 97.7427 214.244 96.4051 215.36 94.9766C213.928 96.0947 212.59 97.3282 211.36 98.6646L209.88 100.177C209.604 100.395 209.414 100.704 209.344 101.049C209.343 101.147 209.363 101.244 209.403 101.334C209.443 101.424 209.502 101.504 209.576 101.569C209.691 101.661 209.818 101.739 209.952 101.801C210.43 102.099 210.947 102.331 211.488 102.489Z" fill="#263238"/>
<path d="M213.92 104.345C213.776 104.273 213.328 105.273 212.152 105.601C210.976 105.929 209.952 105.345 209.88 105.481C209.808 105.617 210.032 105.777 210.48 105.993C211.062 106.265 211.723 106.322 212.344 106.153C212.942 105.994 213.454 105.606 213.768 105.073C213.992 104.673 213.992 104.377 213.92 104.345Z" fill="#263238"/>
<path d="M219.296 93.408C219.296 93.704 220.248 93.992 221.272 94.608C222.296 95.224 223.048 95.912 223.288 95.752C223.4 95.672 223.352 95.368 223.112 94.952C222.771 94.4445 222.32 94.0205 221.792 93.7116C221.264 93.4027 220.673 93.2169 220.064 93.168C219.6 93.168 219.304 93.272 219.296 93.408Z" fill="#263238"/>
<path d="M210.44 90.4006C210.512 90.6886 211.24 90.7526 212.04 91.0806C212.84 91.4086 213.392 91.8806 213.64 91.7046C213.888 91.5286 213.752 91.3686 213.552 91.0486C213.288 90.6333 212.898 90.3136 212.44 90.1366C211.986 89.9406 211.482 89.893 211 90.0006C210.6 90.0646 210.4 90.2406 210.44 90.4006Z" fill="#263238"/>
<path d="M226.28 104.681C226.408 104.681 230.96 105.305 228.992 109.361C227.024 113.417 223.392 110.601 223.392 110.481C223.392 110.361 226.28 104.681 226.28 104.681Z" fill="#FFBE9D"/>
<path d="M225.392 109.545C225.392 109.545 225.44 109.625 225.528 109.745C225.664 109.897 225.853 109.991 226.056 110.009C226.404 109.974 226.735 109.846 227.017 109.639C227.298 109.432 227.519 109.154 227.656 108.833C227.835 108.491 227.936 108.114 227.952 107.729C227.975 107.583 227.962 107.435 227.914 107.295C227.867 107.156 227.787 107.03 227.68 106.929C227.608 106.869 227.518 106.836 227.424 106.836C227.33 106.836 227.24 106.869 227.168 106.929C227.064 107.017 227.048 107.105 227.024 107.105C227 107.105 226.968 106.993 227.08 106.841C227.153 106.751 227.255 106.689 227.368 106.665C227.521 106.636 227.678 106.667 227.808 106.753C227.957 106.867 228.075 107.017 228.151 107.189C228.226 107.361 228.257 107.549 228.24 107.737C228.241 108.171 228.137 108.599 227.936 108.985C227.781 109.355 227.519 109.672 227.185 109.896C226.851 110.119 226.458 110.239 226.056 110.241C225.932 110.216 225.814 110.165 225.711 110.092C225.608 110.019 225.521 109.925 225.456 109.817C225.352 109.649 225.376 109.545 225.392 109.545Z" fill="#EB996E"/>
<path d="M228.632 105.6C228.255 105.41 227.835 105.322 227.414 105.346C226.992 105.37 226.585 105.504 226.232 105.736C225.704 106.2 225.344 106.84 224.816 107.336C224.572 107.594 224.25 107.764 223.9 107.819C223.549 107.874 223.191 107.811 222.88 107.64C222.698 107.478 222.562 107.27 222.486 107.038C222.41 106.806 222.397 106.559 222.448 106.32C222.555 105.841 222.753 105.388 223.032 104.984C224.128 103.176 225.384 101.448 226.328 99.5521C227.355 97.6793 227.803 95.5438 227.616 93.4161C227.507 92.3579 227.116 91.3485 226.482 90.494C225.849 89.6395 224.997 88.9714 224.016 88.5601C222.696 88.0961 221.224 88.2321 219.872 87.8481C219.072 87.6079 218.336 87.1893 217.721 86.624C217.106 86.0587 216.627 85.3612 216.32 84.5841C216.161 84.2707 215.984 83.9662 215.792 83.6721C215.84 83.5761 216.32 82.7601 216.792 82.6001C220.36 81.3921 225.184 82.7761 228.136 85.1041C229.643 86.275 230.876 87.7608 231.749 89.4576C232.622 91.1544 233.115 93.0214 233.192 94.9281C233.232 98.6881 230.864 102.832 228.664 105.632" fill="#263238"/>
<path d="M228.672 105.16C229.8 103.24 231.624 101.856 233.016 100.128C234.408 98.4002 235.416 95.9602 234.376 93.9762C234.04 93.2962 233.496 92.7282 233.216 92.0242C232.994 91.2933 232.86 90.5387 232.816 89.7762C232.635 88.611 232.193 87.5018 231.522 86.532C230.852 85.5621 229.97 84.7567 228.944 84.1762C227.52 83.3762 225.88 83.0562 224.432 82.2962C222.152 81.0962 220.48 78.8722 218.032 77.9202C217.646 77.7321 217.225 77.6277 216.796 77.6139C216.367 77.6001 215.941 77.6772 215.544 77.8402C215.354 77.9326 215.186 78.0639 215.05 78.2256C214.914 78.3873 214.814 78.5758 214.756 78.7788C214.698 78.9818 214.683 79.1948 214.713 79.4038C214.742 79.6129 214.815 79.8134 214.928 79.9922C214.88 79.8079 214.793 79.6362 214.673 79.4892C214.552 79.3421 214.401 79.2233 214.229 79.1409C214.057 79.0586 213.87 79.0148 213.68 79.0126C213.49 79.0104 213.301 79.0499 213.128 79.1282C212.787 79.3138 212.509 79.5957 212.329 79.9387C212.148 80.2817 212.072 80.6705 212.112 81.0562C212.206 81.8262 212.507 82.5562 212.984 83.1682C214.467 85.271 216.651 86.7769 219.144 87.4162L224.672 86.9842L229.2 90.3362L232.544 95.6722L226.472 103.56L228.672 105.16Z" fill="#263238"/>
<path d="M194.12 73.6799C193.895 70.1942 192.739 66.8328 190.771 63.9469C188.803 61.061 186.096 58.7565 182.934 57.2742C179.771 55.7918 176.268 55.186 172.791 55.5201C169.314 55.8541 165.991 57.1158 163.168 59.1732C160.345 61.2306 158.127 64.0083 156.745 67.216C155.362 70.4238 154.867 73.9439 155.31 77.4086C155.753 80.8734 157.118 84.1555 159.263 86.9122C161.408 89.6689 164.254 91.799 167.504 93.0799C167.656 95.3839 167.824 97.9919 167.824 97.9919L184.88 96.8879C184.88 96.8879 184.808 94.1279 184.68 91.6639C187.755 89.8239 190.263 87.1717 191.928 83.9989C193.594 80.8262 194.352 77.2557 194.12 73.6799Z" fill="#407BFF"/>
<path d="M178.704 97.2083C178.704 97.2083 178.704 97.1203 178.704 96.9683C178.704 96.8163 178.704 96.5603 178.704 96.2563C178.704 95.6403 178.792 94.7203 178.888 93.5443C178.984 92.3683 179.12 90.9203 179.384 89.2643C179.676 87.3775 180.15 85.5235 180.8 83.7283C181.182 82.6833 181.656 81.674 182.216 80.7123C182.521 80.1871 182.953 79.747 183.472 79.4323C183.753 79.2756 184.067 79.1887 184.389 79.179C184.711 79.1692 185.03 79.2369 185.32 79.3763C185.627 79.5242 185.865 79.785 185.984 80.1043C186.115 80.4274 186.115 80.7892 185.984 81.1123C185.698 81.7341 185.194 82.2295 184.568 82.5043C183.907 82.7629 183.202 82.8878 182.493 82.8719C181.784 82.856 181.085 82.6995 180.437 82.4115C179.789 82.1235 179.205 81.7098 178.718 81.1943C178.23 80.6788 177.851 80.0717 177.6 79.4083C177.304 78.7011 177.212 77.925 177.336 77.1683C177.403 76.7659 177.608 76.3995 177.916 76.1323C178.224 75.865 178.616 75.7137 179.024 75.7043C179.235 75.7111 179.441 75.7721 179.621 75.8814C179.802 75.9907 179.952 76.1446 180.056 76.3283C180.271 76.6831 180.353 77.1026 180.288 77.5123C180.1 78.3014 179.665 79.0102 179.048 79.5363C178.46 80.1018 177.759 80.5367 176.991 80.8124C176.223 81.0881 175.405 81.1985 174.592 81.1363C173.777 81.0596 172.992 80.7867 172.305 80.3409C171.618 79.8951 171.05 79.2897 170.648 78.5763C170.441 78.2248 170.31 77.8344 170.262 77.4296C170.213 77.0248 170.25 76.6144 170.368 76.2243C170.426 76.0241 170.527 75.8391 170.664 75.6824C170.801 75.5256 170.971 75.4008 171.162 75.3169C171.353 75.233 171.56 75.1919 171.768 75.1967C171.976 75.2014 172.181 75.2518 172.368 75.3443C172.736 75.5147 173.043 75.7939 173.248 76.1443C173.439 76.4858 173.564 76.8604 173.616 77.2483C173.718 77.9975 173.667 78.7598 173.464 79.4883C173.088 80.9163 172.181 82.1468 170.928 82.9283C169.732 83.6617 168.314 83.9454 166.928 83.7283C166.254 83.6653 165.619 83.3844 165.12 82.9283C164.875 82.6901 164.719 82.3757 164.677 82.037C164.635 81.6982 164.709 81.3552 164.888 81.0643C165.095 80.7964 165.4 80.6211 165.736 80.5763C166.056 80.5354 166.38 80.5767 166.68 80.6963C167.232 80.9658 167.679 81.4102 167.952 81.9603C168.512 82.9843 168.968 83.9843 169.432 84.9363C171.24 88.7603 172.552 91.9203 173.432 94.1123C173.872 95.2083 174.232 96.0643 174.424 96.6403C174.528 96.9283 174.608 97.1523 174.672 97.3043C174.701 97.3799 174.725 97.4574 174.744 97.5363L174.648 97.3123L174.376 96.6643L173.344 94.1443C172.432 91.9683 171.096 88.8163 169.272 85.0083C168.808 84.0643 168.336 83.0483 167.784 82.0483C167.527 81.5382 167.112 81.1255 166.6 80.8723C166.341 80.7505 166.051 80.7143 165.77 80.769C165.49 80.8237 165.234 80.9663 165.04 81.1763C164.895 81.4301 164.838 81.725 164.878 82.0146C164.919 82.3042 165.055 82.5721 165.264 82.7763C165.73 83.2017 166.323 83.4629 166.952 83.5203C168.289 83.7193 169.653 83.4357 170.8 82.7203C171.989 81.9584 172.846 80.7754 173.2 79.4083C173.395 78.7085 173.444 77.9759 173.344 77.2563C173.32 76.8986 173.206 76.5529 173.011 76.2519C172.817 75.9508 172.548 75.7045 172.232 75.5363C172.072 75.463 171.899 75.4251 171.724 75.4251C171.548 75.4251 171.375 75.463 171.216 75.5363C171.054 75.6136 170.911 75.7252 170.796 75.8634C170.681 76.0015 170.598 76.1628 170.552 76.3363C170.444 76.6951 170.412 77.0722 170.458 77.4439C170.503 77.8157 170.625 78.174 170.816 78.4963C171.205 79.1677 171.75 79.736 172.404 80.1536C173.058 80.5712 173.803 80.8258 174.576 80.8963C175.355 80.954 176.138 80.8463 176.873 80.5802C177.608 80.3141 178.278 79.8957 178.84 79.3523C179.412 78.8644 179.818 78.2099 180 77.4803C180.056 77.1235 179.985 76.7583 179.8 76.4483C179.714 76.2993 179.592 76.1743 179.445 76.0848C179.299 75.9953 179.132 75.9443 178.96 75.9363C178.607 75.9385 178.267 76.0726 178.008 76.3123C177.747 76.5506 177.573 76.8685 177.512 77.2163C177.394 77.9296 177.48 78.6618 177.76 79.3283C177.999 79.97 178.364 80.5576 178.833 81.0564C179.302 81.5553 179.866 81.9554 180.492 82.2333C181.118 82.5113 181.793 82.6614 182.478 82.675C183.163 82.6885 183.843 82.5652 184.48 82.3123C185.058 82.0597 185.525 81.6045 185.792 81.0323C185.906 80.7627 185.914 80.4596 185.813 80.1846C185.712 79.9097 185.51 79.6836 185.248 79.5523C184.986 79.4257 184.697 79.364 184.406 79.3723C184.115 79.3807 183.83 79.4589 183.576 79.6003C183.091 79.898 182.688 80.3101 182.4 80.8003C181.845 81.7495 181.374 82.7452 180.992 83.7763C180.335 85.5545 179.852 87.3925 179.552 89.2643C179.272 90.9203 179.12 92.3603 179.008 93.5363C178.896 94.7123 178.84 95.6163 178.784 96.2483C178.784 96.5443 178.736 96.7843 178.728 96.9523C178.72 97.1203 178.704 97.2083 178.704 97.2083Z" fill="#263238"/>
<path d="M183.768 100.128L169.128 101.08C168.836 101.098 168.548 100.999 168.328 100.806C168.108 100.613 167.972 100.34 167.952 100.048C167.934 99.7565 168.033 99.4698 168.227 99.2509C168.42 99.032 168.692 98.8986 168.984 98.8801L183.632 97.9361C183.776 97.9263 183.92 97.9451 184.057 97.9913C184.194 98.0376 184.32 98.1103 184.429 98.2055C184.537 98.3006 184.626 98.4163 184.69 98.5458C184.753 98.6753 184.791 98.8161 184.8 98.9601C184.817 99.2517 184.719 99.5384 184.525 99.7573C184.332 99.9763 184.059 100.11 183.768 100.128Z" fill="#263238"/>
<path d="M183.832 101.088L169.184 102.04C168.893 102.059 168.622 102.193 168.43 102.412C168.238 102.631 168.141 102.917 168.16 103.208C168.179 103.499 168.313 103.77 168.532 103.962C168.751 104.154 169.037 104.251 169.328 104.232L170.928 104.128L173.328 108.056C173.464 108.275 173.658 108.453 173.887 108.572C174.117 108.69 174.374 108.744 174.632 108.728L179.864 108.392C180.123 108.372 180.371 108.283 180.584 108.133C180.797 107.984 180.965 107.781 181.072 107.544L182.88 103.36L183.976 103.288C184.256 103.254 184.513 103.114 184.693 102.897C184.874 102.68 184.964 102.402 184.945 102.12C184.927 101.838 184.801 101.574 184.594 101.382C184.387 101.19 184.114 101.085 183.832 101.088Z" fill="#263238"/>
<g opacity="0.2">
<path opacity="0.2" d="M161.352 63.3436C162.431 62.1959 163.693 61.2361 165.088 60.5036C166 60.0045 166.982 59.6433 168 59.4316C168.736 59.3116 169.16 59.3516 169.208 59.5036C169.312 59.8556 167.872 60.4716 166.008 61.9036C163.518 63.7155 161.602 66.2056 160.488 69.0767C159.375 71.9478 159.111 75.0786 159.728 78.0956C160.152 80.4556 160.8 81.8796 160.528 82.0956C160.384 82.1836 160.048 81.9276 159.592 81.3436C158.965 80.4995 158.474 79.5629 158.136 78.5676C157.618 77.086 157.347 75.5291 157.336 73.9596C157.298 72.0064 157.638 70.0643 158.336 68.2396" fill="white"/>
</g>
<g opacity="0.2">
<path opacity="0.2" d="M173.96 60.0481C172.728 60.1121 171.616 59.8481 171.448 59.2001C171.376 58.8801 171.584 58.5201 172.008 58.2241C172.557 57.8905 173.179 57.6957 173.82 57.6567C174.461 57.6177 175.102 57.7356 175.688 58.0001C176.152 58.2481 176.392 58.5841 176.36 58.9121" fill="white"/>
</g>
<path d="M180.8 107.904C180.451 107.843 180.107 107.76 179.768 107.656C178.945 107.482 178.102 107.431 177.264 107.504C176.439 107.593 175.63 107.8 174.864 108.12C174.272 108.376 173.92 108.584 173.904 108.552C174.163 108.305 174.463 108.108 174.792 107.968C175.57 107.589 176.41 107.353 177.272 107.272C178.135 107.189 179.005 107.265 179.84 107.496C180.181 107.577 180.505 107.715 180.8 107.904Z" fill="#455A64"/>
<path d="M182.92 103.408C182.92 103.472 180.28 103.696 177.008 103.912C173.736 104.128 171.096 104.24 171.088 104.168C171.08 104.096 173.728 103.88 176.992 103.672C180.256 103.464 182.912 103.344 182.92 103.408Z" fill="#455A64"/>
<path d="M182.112 105.207C181.642 105.324 181.163 105.402 180.68 105.439C179.792 105.559 178.56 105.687 177.192 105.799C175.824 105.911 174.592 105.967 173.696 105.991C173.214 106.035 172.729 106.035 172.248 105.991C172.722 105.895 173.204 105.841 173.688 105.831L177.176 105.567L180.664 105.279C181.144 105.214 181.628 105.19 182.112 105.207Z" fill="#455A64"/>
<path d="M76.6399 203.2L79.8399 208.296C79.8399 208.296 93.4399 195.808 106.872 199.336C106.848 199.32 94.7519 189.064 76.6399 203.2Z" fill="#407BFF"/>
<path d="M106.848 199.32C106.848 199.32 116.808 188.504 131.416 190.968L135.416 191.568L134.152 189.272C134.152 189.272 108.72 180.568 106.848 199.32Z" fill="#407BFF"/>
<path d="M85.8238 162.848C85.8238 162.848 65.8718 159.416 52.7998 166.496L73.5998 205.6C73.5998 205.6 90.6078 189.208 106.88 199.304L85.8238 162.848Z" fill="#F5F5F5"/>
<path d="M85.8239 162.848C85.8649 162.898 85.9024 162.952 85.9359 163.008L86.2319 163.504L87.3839 165.448L91.7039 172.856L107 199.256C107.019 199.289 107.026 199.328 107.021 199.366C107.016 199.405 106.999 199.44 106.971 199.467C106.944 199.495 106.909 199.512 106.87 199.517C106.832 199.522 106.793 199.515 106.76 199.496C104.415 198.045 101.817 197.049 99.1039 196.56C97.6786 196.329 96.2354 196.227 94.7919 196.256C93.307 196.321 91.83 196.508 90.3759 196.816C84.2289 198.326 78.5579 201.352 73.8799 205.616L73.7039 205.776C73.6859 205.795 73.6642 205.81 73.6402 205.821C73.6161 205.831 73.5901 205.836 73.5639 205.836C73.5376 205.836 73.5117 205.831 73.4876 205.821C73.4635 205.81 73.4418 205.795 73.4239 205.776V205.736L52.6479 166.576C52.6368 166.558 52.6297 166.537 52.627 166.516C52.6243 166.495 52.626 166.474 52.632 166.454C52.638 166.433 52.6482 166.414 52.662 166.398C52.6758 166.382 52.6928 166.369 52.7119 166.36C56.8811 164.28 61.38 162.94 66.0079 162.4C69.5395 161.965 73.0999 161.81 76.6559 161.936C79.5999 162.04 81.8959 162.272 83.4479 162.464C84.2479 162.56 84.8239 162.648 85.2239 162.72L85.6799 162.8H85.8239H85.6719L85.2159 162.744C84.8159 162.696 84.2239 162.616 83.4399 162.536C81.8399 162.376 79.5839 162.176 76.6479 162.104C73.106 162.006 69.5618 162.185 66.0479 162.64C61.4582 163.204 57.0007 164.557 52.8719 166.64L52.9359 166.424L73.7359 205.528L73.4239 205.472L73.5999 205.312C76.0254 203.144 78.6939 201.265 81.5519 199.712C84.2932 198.202 87.2343 197.086 90.2879 196.4C91.7649 196.084 93.2665 195.897 94.7759 195.84C96.2438 195.806 97.7116 195.91 99.1599 196.152C101.916 196.659 104.553 197.676 106.936 199.152L106.688 199.392L91.5599 172.992L87.3039 165.52L86.1919 163.536C86.0719 163.312 85.9759 163.144 85.9119 163.016C85.8786 162.962 85.8492 162.906 85.8239 162.848Z" fill="#263238"/>
<path d="M117.184 154.824C117.184 154.824 102.096 145.224 86.0801 162.824L107.104 199.296C107.104 199.296 111.392 184.496 136.496 189.64L117.184 154.824Z" fill="#F5F5F5"/>
<path d="M117.184 154.824C117.225 154.87 117.26 154.921 117.288 154.976C117.352 155.096 117.448 155.248 117.56 155.448L118.624 157.304L122.624 164.376L136.648 189.6C136.659 189.619 136.667 189.641 136.669 189.663C136.672 189.685 136.671 189.708 136.665 189.729C136.659 189.751 136.649 189.771 136.635 189.789C136.621 189.806 136.604 189.821 136.584 189.832C136.545 189.847 136.503 189.847 136.464 189.832L132.728 189.216C132.09 189.108 131.446 189.035 130.8 189L128.832 188.84C128.164 188.784 127.494 188.768 126.824 188.792L124.8 188.8C124.112 188.8 123.432 188.936 122.744 189C122.05 189.057 121.36 189.161 120.68 189.312L118.624 189.776L116.6 190.488C115.934 190.756 115.283 191.058 114.648 191.392C114.318 191.542 114.002 191.722 113.704 191.928L112.784 192.52C112.176 192.928 111.632 193.424 111.064 193.88C110.528 194.382 110.023 194.917 109.552 195.48C108.584 196.617 107.825 197.917 107.312 199.32C107.294 199.37 107.257 199.41 107.209 199.433C107.161 199.455 107.106 199.458 107.056 199.44C107.012 199.424 106.975 199.393 106.952 199.352L106.104 197.888C98.6719 184.968 91.7039 172.928 85.9519 162.872C85.9326 162.842 85.9224 162.807 85.9224 162.772C85.9224 162.736 85.9326 162.702 85.9519 162.672C89.1273 159.077 93.0004 156.164 97.3359 154.112C100.7 152.576 104.388 151.884 108.08 152.096C110.438 152.237 112.758 152.755 114.952 153.632C115.526 153.868 116.087 154.135 116.632 154.432L117.048 154.672L117.176 154.768L117.032 154.696L116.608 154.48C116.232 154.296 115.672 154.024 114.92 153.736C112.113 152.668 109.121 152.173 106.12 152.282C103.119 152.39 100.17 153.1 97.4479 154.368C93.1614 156.426 89.3354 159.329 86.1999 162.904V162.712L106.4 197.752L107.28 199.2L106.912 199.248C107.441 197.789 108.224 196.435 109.224 195.248C109.712 194.669 110.23 194.116 110.776 193.592C111.368 193.12 111.92 192.608 112.544 192.2L113.48 191.592C113.786 191.383 114.11 191.201 114.448 191.048C115.12 190.736 115.752 190.36 116.44 190.12L118.496 189.408L120.592 188.936C121.282 188.781 121.983 188.676 122.688 188.624C123.384 188.56 124.072 188.432 124.76 188.424H126.816C127.491 188.392 128.167 188.408 128.84 188.472L130.824 188.64C131.476 188.671 132.125 188.743 132.768 188.856L136.528 189.488L136.344 189.744C130.608 179.344 125.816 170.632 122.44 164.496C120.768 161.448 119.448 159.032 118.544 157.368L117.52 155.48C117.416 155.272 117.328 155.112 117.264 154.992C117.2 154.872 117.184 154.824 117.184 154.824Z" fill="#263238"/>
<path d="M58.3999 147.696L80.9039 191.016C80.9039 191.016 99.1839 190.216 106.928 199.128L86.0799 162.848C86.0799 162.848 73.8559 147.696 58.3999 147.696Z" fill="#F5F5F5"/>
<path d="M58.3998 147.696H58.9758L60.7038 147.768C60.8958 147.768 61.1038 147.768 61.3118 147.768L61.9758 147.88L63.4798 148.128C64.0625 148.225 64.6374 148.364 65.1998 148.544C65.8518 148.7 66.4953 148.89 67.1279 149.112C72.5039 150.904 79.7198 155.24 86.1999 162.712L107.08 198.968C107.106 199.014 107.113 199.068 107.1 199.119C107.086 199.17 107.053 199.213 107.008 199.24C106.974 199.267 106.931 199.282 106.888 199.282C106.844 199.282 106.802 199.267 106.768 199.24L105.888 198.36C104.215 196.754 102.263 195.466 100.128 194.56C98.0599 193.636 95.9017 192.928 93.6879 192.448C89.4871 191.516 85.1897 191.092 80.8878 191.184C80.8539 191.184 80.8204 191.176 80.7909 191.159C80.7614 191.142 80.7368 191.118 80.7199 191.088C74.1599 178.368 68.5599 167.496 64.5839 159.8C62.6479 156 61.0958 152.96 59.9998 150.864C59.4798 149.848 59.0718 149.056 58.7918 148.464L58.4878 147.864L58.3918 147.664C58.4396 147.731 58.4799 147.804 58.5118 147.88L58.8478 148.496L60.1118 150.896L64.7998 159.872L81.0399 190.928L80.8718 190.832C85.2024 190.727 89.5298 191.146 93.7598 192.08C95.9972 192.566 98.1792 193.279 100.272 194.208C102.449 195.137 104.439 196.455 106.144 198.096L107.056 198.992L106.728 199.224C98.9919 185.744 91.8319 173.248 85.9279 162.936C83.0359 159.56 79.7267 156.566 76.0798 154.024C73.2967 152.058 70.2614 150.476 67.0558 149.32C66.4261 149.093 65.7853 148.898 65.1358 148.736C64.5793 148.55 64.0098 148.406 63.4318 148.304L61.9358 148.032L61.2878 147.912L60.6958 147.864L58.3998 147.696Z" fill="#263238"/>
<path d="M128.64 270.56L129.12 271.36C129.662 272.26 130.451 272.988 131.392 273.456L132.192 273.872L131.392 274.352C130.494 274.897 129.768 275.685 129.296 276.624L128.88 277.464L128.4 276.664C127.858 275.763 127.07 275.036 126.128 274.568L125.288 274.152L126.088 273.672C126.991 273.132 127.719 272.343 128.184 271.4L128.64 270.56Z" fill="#407BFF"/>
<path d="M84.288 105.544L84.768 106.344C85.3107 107.242 86.099 107.967 87.04 108.432L87.84 108.848L87.04 109.336C86.1357 109.874 85.4075 110.663 84.944 111.608L84.528 112.408L84.048 111.608C83.505 110.705 82.7134 109.977 81.768 109.512L80.928 109.096L81.728 108.616C82.6271 108.068 83.3535 107.278 83.824 106.336L84.288 105.544Z" fill="#407BFF"/>
<path d="M289.552 134.016L290.032 134.816C290.575 135.719 291.367 136.446 292.312 136.912L293.152 137.328L292.352 137.808C291.453 138.353 290.729 139.144 290.264 140.088L289.848 140.888L289.36 140.088C288.82 139.187 288.031 138.462 287.088 138L286.24 137.6L287.04 137.112C287.944 136.574 288.673 135.784 289.136 134.84L289.552 134.016Z" fill="#407BFF"/>
<path d="M265.312 280.92L265.792 281.72C266.338 282.619 267.129 283.343 268.072 283.808L268.912 284.224L268.112 284.712C267.212 285.255 266.484 286.043 266.016 286.984L265.608 287.824L265.12 287.024C264.58 286.121 263.791 285.393 262.848 284.928L262.008 284.512L262.808 284.032C263.711 283.489 264.439 282.697 264.904 281.752L265.312 280.92Z" fill="#407BFF"/>
<path d="M269.928 311.792L270.16 311.888C270.414 311.987 270.691 312.015 270.96 311.968L271.208 311.92L271.112 312.152C271.013 312.406 270.985 312.683 271.032 312.952L271.08 313.2L270.848 313.104C270.594 313.005 270.317 312.978 270.048 313.024L269.8 313.072L269.896 312.84C269.995 312.586 270.023 312.309 269.976 312.04L269.928 311.792Z" fill="#407BFF"/>
<path d="M283.888 103.048L284.112 103.144C284.367 103.242 284.643 103.269 284.912 103.224L285.152 103.176L285.064 103.408C284.961 103.661 284.933 103.939 284.984 104.208L285.032 104.456L284.8 104.36C284.545 104.262 284.269 104.234 284 104.28L283.76 104.328L283.848 104.096C283.951 103.842 283.979 103.565 283.928 103.296L283.888 103.048Z" fill="#407BFF"/>
<path d="M93.304 84L93.536 84.088C93.7895 84.191 94.0672 84.2187 94.336 84.168H94.584L94.488 84.392C94.39 84.6467 94.3624 84.923 94.408 85.192L94.456 85.432L94.224 85.344C93.9706 85.241 93.6928 85.2133 93.424 85.264H93.176L93.272 85.04C93.37 84.7853 93.3976 84.509 93.352 84.24L93.304 84Z" fill="#407BFF"/>
<path d="M116.8 246.528L117.032 246.616C117.285 246.723 117.563 246.751 117.832 246.696L118.08 246.656L117.984 246.888C117.885 247.143 117.857 247.419 117.904 247.688L117.952 247.928L117.72 247.84C117.467 247.737 117.189 247.71 116.92 247.76L116.672 247.808L116.768 247.576C116.866 247.322 116.894 247.045 116.848 246.776L116.8 246.528Z" fill="#407BFF"/>
<path d="M142.328 309.352L142.104 309.584L141.44 310.248L138.856 312.8L129.256 322.056V321.96C129.76 332 130.4 345.6 131.072 360.8V361.136L130.784 360.952L127.32 358.632L105.368 343.936H105.32V343.888C102.04 334.104 99.28 325.848 97.32 320.024C96.36 317.128 95.608 314.84 95.08 313.256L94.504 311.456C94.44 311.264 94.392 311.112 94.36 311C94.36 310.888 94.312 310.84 94.32 310.84L94.384 310.984L94.552 311.44C94.696 311.864 94.904 312.456 95.176 313.224L97.496 319.968C99.48 325.784 102.296 334.016 105.608 343.784L105.544 343.704L127.52 358.376L130.984 360.688L130.712 360.84C130.064 345.64 129.48 332.04 129.048 321.984V321.928H129.088L138.752 312.76L141.384 310.288L142.072 309.656C142.24 309.416 142.328 309.352 142.328 309.352Z" fill="#407BFF"/>
<path d="M132.104 356.2L132.032 358.464L133.864 359.808L131.688 360.44L130.976 362.592L129.696 360.72L127.432 360.712L128.824 358.92L128.128 356.76L130.264 357.528L132.104 356.2Z" fill="#407BFF"/>
<path d="M105.656 340.832L105.704 342.296L106.936 343.096L105.552 343.584L105.176 345.008L104.28 343.848L102.816 343.928L103.64 342.712L103.112 341.344L104.52 341.76L105.656 340.832Z" fill="#407BFF"/>
<path d="M94.2639 308.088L95.3679 309.512L97.1679 309.4L96.1599 310.896L96.8159 312.568L95.0879 312.072L93.6959 313.216L93.6319 311.416L92.1199 310.448L93.8079 309.832L94.2639 308.088Z" fill="#407BFF"/>
<path d="M141.216 306.672L142.328 308.088L144.12 307.984L143.112 309.472L143.768 311.152L142.04 310.648L140.648 311.792L140.592 309.992L139.072 309.024L140.768 308.408L141.216 306.672Z" fill="#407BFF"/>
<path d="M128.896 320.384L129.6 321.296L130.744 321.224L130.104 322.176L130.52 323.248L129.416 322.928L128.528 323.656L128.488 322.512L127.52 321.888L128.6 321.496L128.896 320.384Z" fill="#407BFF"/>
<path d="M86.5521 259.881C95.3622 259.881 102.504 252.739 102.504 243.929C102.504 235.119 95.3622 227.977 86.5521 227.977C77.7421 227.977 70.6001 235.119 70.6001 243.929C70.6001 252.739 77.7421 259.881 86.5521 259.881Z" fill="#407BFF"/>
<g opacity="0.3">
<path opacity="0.3" d="M84.4799 248.904C84.4815 249.42 84.3297 249.926 84.0437 250.356C83.7578 250.786 83.3505 251.121 82.8736 251.32C82.3968 251.518 81.8717 251.57 81.3651 251.47C80.8584 251.37 80.393 251.121 80.0278 250.756C79.6626 250.391 79.414 249.925 79.3136 249.419C79.2133 248.912 79.2656 248.387 79.464 247.91C79.6624 247.433 79.9979 247.026 80.428 246.74C80.8581 246.454 81.3634 246.302 81.8799 246.304C82.5688 246.306 83.2289 246.58 83.7161 247.068C84.2032 247.555 84.4778 248.215 84.4799 248.904Z" fill="white"/>
</g>
<g opacity="0.3">
<path opacity="0.3" d="M80.8 241.4C80.8016 241.701 80.7138 241.995 80.5477 242.246C80.3817 242.497 80.1448 242.693 79.8672 242.81C79.5896 242.926 79.2838 242.957 78.9884 242.899C78.693 242.842 78.4214 242.698 78.208 242.485C77.9947 242.273 77.8491 242.002 77.7898 241.707C77.7305 241.412 77.7601 241.106 77.8749 240.828C77.9897 240.55 78.1846 240.312 78.4347 240.144C78.6848 239.977 78.979 239.888 79.28 239.888C79.6817 239.888 80.0672 240.047 80.352 240.33C80.6368 240.613 80.7979 240.998 80.8 241.4Z" fill="white"/>
</g>
<path d="M71.0719 247.808C71.1439 248.088 57.4159 261.256 60.9599 264.064C64.5039 266.872 79.3599 259.672 92.0719 249.424C104.784 239.176 116.352 226.728 113.176 223.432C110 220.136 94.1439 229.888 94.1439 229.888L96.0399 231.104C96.0399 231.104 105.64 224.952 108.664 227.336C111.688 229.72 103.064 239.048 90.8479 247.96C78.6319 256.872 66.8479 263.112 65.0319 260.672C63.2159 258.232 71.8319 250.096 71.8319 250.096L71.0719 247.808Z" fill="#407BFF"/>
<g opacity="0.3">
<path opacity="0.3" d="M71.0719 247.808C71.1439 248.088 57.4159 261.256 60.9599 264.064C64.5039 266.872 79.3599 259.672 92.0719 249.424C104.784 239.176 116.352 226.728 113.176 223.432C110 220.136 94.1439 229.888 94.1439 229.888L96.0399 231.104C96.0399 231.104 105.64 224.952 108.664 227.336C111.688 229.72 103.064 239.048 90.8479 247.96C78.6319 256.872 66.8479 263.112 65.0319 260.672C63.2159 258.232 71.8319 250.096 71.8319 250.096L71.0719 247.808Z" fill="black"/>
</g>
<g opacity="0.3">
<path opacity="0.3" d="M77.76 232.688C77.888 232.84 76.808 233.76 75.584 235.6C73.9602 237.965 73.0645 240.753 73.0076 243.62C72.9507 246.488 73.7352 249.31 75.264 251.736C76.416 253.632 77.456 254.592 77.32 254.736C77.184 254.88 75.96 254.112 74.536 252.224C73.7136 251.12 73.061 249.898 72.6 248.6C71.4327 245.37 71.5039 241.821 72.8 238.64C73.3103 237.358 74.0116 236.161 74.88 235.088C76.376 233.264 77.688 232.576 77.76 232.688Z" fill="white"/>
</g>
<path d="M271.49 103.954C276.731 98.9178 276.897 90.587 271.861 85.3464C266.825 80.1059 258.494 79.9401 253.253 84.9762C248.013 90.0122 247.847 98.343 252.883 103.584C257.919 108.824 266.25 108.99 271.49 103.954Z" fill="#407BFF"/>
<g opacity="0.4">
<path opacity="0.4" d="M266.664 89.4402C266.673 89.0163 266.809 88.6048 267.052 88.2577C267.295 87.9105 267.636 87.6434 268.032 87.49C268.427 87.3366 268.859 87.3038 269.273 87.3958C269.687 87.4879 270.064 87.7006 270.357 88.007C270.65 88.3134 270.846 88.6999 270.919 89.1175C270.992 89.5351 270.94 89.9651 270.769 90.3531C270.598 90.7411 270.316 91.0697 269.959 91.2974C269.601 91.5251 269.184 91.6416 268.76 91.6322C268.478 91.627 268.2 91.5661 267.942 91.4529C267.683 91.3397 267.45 91.1765 267.255 90.9728C267.06 90.769 266.908 90.5286 266.806 90.2656C266.705 90.0026 266.656 89.722 266.664 89.4402Z" fill="black"/>
</g>
<g opacity="0.4">
<path opacity="0.4" d="M270.952 94.4484C270.957 94.1997 271.035 93.9581 271.178 93.7541C271.32 93.5501 271.52 93.393 271.751 93.3026C271.983 93.2123 272.236 93.1927 272.479 93.2465C272.722 93.3003 272.943 93.425 273.115 93.6048C273.287 93.7845 273.402 94.0113 273.445 94.2563C273.488 94.5013 273.457 94.7535 273.356 94.9809C273.256 95.2084 273.09 95.4009 272.88 95.5339C272.669 95.667 272.424 95.7347 272.176 95.7284C272.011 95.7253 271.849 95.6896 271.698 95.6235C271.547 95.5574 271.411 95.4621 271.297 95.3431C271.184 95.2242 271.095 95.0838 271.035 94.9303C270.976 94.7767 270.948 94.6129 270.952 94.4484Z" fill="black"/>
</g>
<g opacity="0.4">
<path opacity="0.4" d="M269.28 98.2884C269.34 98.2883 269.399 98.3004 269.455 98.3239C269.51 98.3474 269.56 98.3819 269.602 98.4252C269.644 98.4685 269.677 98.5198 269.698 98.576C269.72 98.6322 269.73 98.6922 269.728 98.7524C269.723 98.8748 269.672 98.9907 269.584 99.0758C269.496 99.1609 269.378 99.2084 269.256 99.2084C269.134 99.2042 269.019 99.1524 268.935 99.0641C268.851 98.9758 268.806 98.8581 268.808 98.7364C268.809 98.6758 268.822 98.616 268.846 98.5606C268.871 98.5051 268.906 98.4551 268.95 98.4133C268.994 98.3716 269.045 98.3391 269.102 98.3176C269.159 98.2962 269.219 98.2862 269.28 98.2884Z" fill="black"/>
</g>
</svg>
