<svg xmlns="http://www.w3.org/2000/svg" width="19.313" height="19.313" viewBox="0 0 19.313 19.313">
  <path id="Icon_ionic-md-help-buoy" data-name="Icon ionic-md-help-buoy" d="M13.031,3.375a9.656,9.656,0,1,0,9.656,9.656A9.655,9.655,0,0,0,13.031,3.375ZM15.863,19.9,15.3,18.064a5.546,5.546,0,0,0,2.772-2.772l1.834.562a7.382,7.382,0,0,1-1.62,2.423A7.258,7.258,0,0,1,15.863,19.9ZM10.2,6.16,10.766,8A5.546,5.546,0,0,0,7.994,10.77L6.16,10.209a7.382,7.382,0,0,1,1.62-2.423A7.258,7.258,0,0,1,10.2,6.16Zm2.832,3.9a2.971,2.971,0,1,1-2.971,2.971A2.974,2.974,0,0,1,13.031,10.06Zm5.251-2.279A7.485,7.485,0,0,1,19.9,10.2l-1.834.566a5.546,5.546,0,0,0-1.133-1.639A5.46,5.46,0,0,0,15.3,7.994l.562-1.834A7.382,7.382,0,0,1,18.282,7.781Zm-10.5,10.5a7.315,7.315,0,0,1-1.62-2.419L7.994,15.3a5.546,5.546,0,0,0,1.133,1.639,5.46,5.46,0,0,0,1.639,1.133L10.2,19.9A7.382,7.382,0,0,1,7.781,18.282Z" transform="translate(-3.375 -3.375)" fill="#f7a212"/>
</svg>
