<svg width="17" height="18" viewBox="0 0 17 18" fill="none" xmlns="http://www.w3.org/2000/svg">
<path d="M0.5 9.83367H5.5V8.167H0.5V0.538666C0.500012 0.466261 0.518892 0.39511 0.554778 0.332224C0.590664 0.269338 0.642317 0.216889 0.704647 0.180047C0.766977 0.143204 0.837832 0.123239 0.910228 0.12212C0.982623 0.121001 1.05406 0.138767 1.1175 0.173666L16.5025 8.63533C16.5678 8.6713 16.6223 8.72414 16.6602 8.78835C16.6982 8.85255 16.7182 8.92576 16.7182 9.00033C16.7182 9.07491 16.6982 9.14812 16.6602 9.21232C16.6223 9.27652 16.5678 9.32936 16.5025 9.36533L1.1175 17.827C1.05406 17.8619 0.982623 17.8797 0.910228 17.8785C0.837832 17.8774 0.766977 17.8575 0.704647 17.8206C0.642317 17.7838 0.590664 17.7313 0.554778 17.6684C0.518892 17.6056 0.500012 17.5344 0.5 17.462V9.83367Z" fill="white"/>
</svg>
